SplineFontDB: 3.0
FontName: Pixeltype
FullName: Pixeltype Regular
FamilyName: Pixeltype
Weight: Book
Copyright: thejman0205 2015\niSage 2017
Version: 1.0
ItalicAngle: 0
UnderlinePosition: 0
UnderlineWidth: 0
Ascent: 824
Descent: 200
InvalidEm: 0
sfntRevision: 0x00010000
LayerCount: 5
Layer: 0 1 "Back" 1
Layer: 1 1 "Fore" 0
Layer: 2 0 "Back 2" 1
Layer: 3 0 "Back 3" 1
Layer: 4 0 "Back 4" 1
XUID: [1021 345 -585622032 6649394]
StyleMap: 0x0040
FSType: 4
OS2Version: 2
OS2_WeightWidthSlopeOnly: 0
OS2_UseTypoMetrics: 0
CreationTime: 1435163356
ModificationTime: 1514883307
PfmFamily: 81
TTFWeight: 400
TTFWidth: 5
LineGap: 0
VLineGap: 0
Panose: 0 0 4 0 0 0 0 0 0 0
OS2TypoAscent: 640
OS2TypoAOffset: 0
OS2TypoDescent: -200
OS2TypoDOffset: 0
OS2TypoLinegap: 0
OS2WinAscent: 640
OS2WinAOffset: 0
OS2WinDescent: 200
OS2WinDOffset: 0
HheadAscent: 640
HheadAOffset: 0
HheadDescent: -200
HheadDOffset: 0
OS2SubXSize: 512
OS2SubYSize: 512
OS2SubXOff: 0
OS2SubYOff: -64
OS2SupXSize: 512
OS2SupYSize: 512
OS2SupXOff: 0
OS2SupYOff: 512
OS2StrikeYSize: 51
OS2StrikeYPos: 204
OS2CapHeight: 448
OS2XHeight: 320
OS2Vendor: 'FSTR'
OS2CodePages: 00000001.00000000
OS2UnicodeRanges: 80000001.00000000.00000000.00000000
MarkAttachClasses: 1
DEI: 91125
ShortTable: maxp 16
  1
  0
  102
  44
  11
  0
  0
  2
  0
  0
  0
  0
  0
  0
  0
  0
EndShort
LangName: 1033 "" "" "Regular" "Pixeltype" "" "Version 1.0" "" "" "" "thejman0205"
Encoding: UnicodeFull
UnicodeInterp: none
NameList: AGL For New Fonts
DisplaySize: -48
AntiAlias: 0
FitToEm: 0
WinInfo: 64 32 10
BeginPrivate: 0
EndPrivate
BeginChars: 1114115 372

StartChar: .notdef
Encoding: 1114112 -1 0
Width: 0
Flags: W
LayerCount: 5
Fore
SplineSet
224 63 m 1,0,-1
 224 134 l 1,1,-1
 152 134 l 1,2,-1
 152 63 l 1,3,-1
 224 63 l 1,0,-1
295 146 m 1,4,-1
 295 218 l 1,5,-1
 152 218 l 1,6,-1
 152 146 l 1,7,-1
 295 146 l 1,4,-1
224 229 m 1,8,-1
 224 301 l 1,9,-1
 152 301 l 1,10,-1
 152 229 l 1,11,-1
 224 229 l 1,8,-1
295 313 m 1,12,-1
 295 383 l 1,13,-1
 224 383 l 2,14,15
 194 383 194 383 173 363 c 0,16,17
 152 342 152 342 152 313 c 1,18,-1
 295 313 l 1,12,-1
0 0 m 1,19,-1
 0 448 l 1,20,-1
 448 448 l 1,21,-1
 448 0 l 1,22,-1
 0 0 l 1,19,-1
EndSplineSet
Validated: 1
EndChar

StartChar: exclam
Encoding: 33 33 4
Width: 128
Flags: W
LayerCount: 5
Fore
SplineSet
0 0 m 1,0,-1
 0 64 l 1,1,-1
 64 64 l 1,2,-1
 64 0 l 1,3,-1
 0 0 l 1,0,-1
0 128 m 1,4,-1
 0 448 l 1,5,-1
 64 448 l 1,6,-1
 64 128 l 1,7,-1
 0 128 l 1,4,-1
EndSplineSet
Validated: 1
EndChar

StartChar: quotedbl
Encoding: 34 34 5
Width: 256
Flags: W
LayerCount: 5
Fore
SplineSet
0 320 m 1,0,-1
 0 448 l 1,1,-1
 64 448 l 1,2,-1
 64 320 l 1,3,-1
 0 320 l 1,0,-1
128 320 m 1,4,-1
 128 448 l 1,5,-1
 192 448 l 1,6,-1
 192 320 l 1,7,-1
 128 320 l 1,4,-1
EndSplineSet
Validated: 1
EndChar

StartChar: numbersign
Encoding: 35 35 6
Width: 384
Flags: W
LayerCount: 5
Fore
SplineSet
192 192 m 1,0,-1
 192 256 l 1,1,-1
 128 256 l 1,2,-1
 128 192 l 1,3,-1
 192 192 l 1,0,-1
64 0 m 1,4,-1
 64 128 l 1,5,-1
 0 128 l 1,6,-1
 0 192 l 1,7,-1
 64 192 l 1,8,-1
 64 256 l 1,9,-1
 0 256 l 1,10,-1
 0 320 l 1,11,-1
 64 320 l 1,12,-1
 64 448 l 1,13,-1
 128 448 l 1,14,-1
 128 320 l 1,15,-1
 192 320 l 1,16,-1
 192 448 l 1,17,-1
 256 448 l 1,18,-1
 256 320 l 1,19,-1
 320 320 l 1,20,-1
 320 256 l 1,21,-1
 256 256 l 1,22,-1
 256 192 l 1,23,-1
 320 192 l 1,24,-1
 320 128 l 1,25,-1
 256 128 l 1,26,-1
 256 0 l 1,27,-1
 192 0 l 1,28,-1
 192 128 l 1,29,-1
 128 128 l 1,30,-1
 128 0 l 1,31,-1
 64 0 l 1,4,-1
EndSplineSet
Validated: 1
EndChar

StartChar: dollar
Encoding: 36 36 7
Width: 384
Flags: W
LayerCount: 5
Fore
SplineSet
0 64 m 1,0,-1
 0 128 l 1,1,-1
 64 128 l 1,2,-1
 64 64 l 1,3,-1
 0 64 l 1,0,-1
256 64 m 1,4,-1
 256 192 l 1,5,-1
 320 192 l 1,6,-1
 320 64 l 1,7,-1
 256 64 l 1,4,-1
0 256 m 1,8,-1
 0 384 l 1,9,-1
 64 384 l 1,10,-1
 64 256 l 1,11,-1
 0 256 l 1,8,-1
256 320 m 1,12,-1
 256 384 l 1,13,-1
 320 384 l 1,14,-1
 320 320 l 1,15,-1
 256 320 l 1,12,-1
64 0 m 1,16,-1
 64 64 l 1,17,-1
 128 64 l 1,18,-1
 128 192 l 1,19,-1
 64 192 l 1,20,-1
 64 256 l 1,21,-1
 128 256 l 1,22,-1
 128 384 l 1,23,-1
 64 384 l 1,24,-1
 64 448 l 1,25,-1
 256 448 l 1,26,-1
 256 384 l 1,27,-1
 192 384 l 1,28,-1
 192 256 l 1,29,-1
 256 256 l 1,30,-1
 256 192 l 1,31,-1
 192 192 l 1,32,-1
 192 64 l 1,33,-1
 256 64 l 1,34,-1
 256 0 l 1,35,-1
 64 0 l 1,16,-1
EndSplineSet
Validated: 5
EndChar

StartChar: percent
Encoding: 37 37 8
Width: 384
Flags: W
LayerCount: 5
Fore
SplineSet
0 0 m 1,0,-1
 0 64 l 1,1,-1
 64 64 l 1,2,-1
 64 0 l 1,3,-1
 0 0 l 1,0,-1
192 0 m 1,4,-1
 192 128 l 1,5,-1
 320 128 l 1,6,-1
 320 0 l 1,7,-1
 192 0 l 1,4,-1
64 64 m 1,8,-1
 64 192 l 1,9,-1
 128 192 l 1,10,-1
 128 64 l 1,11,-1
 64 64 l 1,8,-1
128 192 m 1,12,-1
 128 256 l 1,13,-1
 192 256 l 1,14,-1
 192 192 l 1,15,-1
 128 192 l 1,12,-1
192 256 m 1,16,-1
 192 384 l 1,17,-1
 256 384 l 1,18,-1
 256 256 l 1,19,-1
 192 256 l 1,16,-1
0 320 m 1,20,-1
 0 448 l 1,21,-1
 128 448 l 1,22,-1
 128 320 l 1,23,-1
 0 320 l 1,20,-1
256 384 m 1,24,-1
 256 448 l 1,25,-1
 320 448 l 1,26,-1
 320 384 l 1,27,-1
 256 384 l 1,24,-1
EndSplineSet
Validated: 5
EndChar

StartChar: ampersand
Encoding: 38 38 9
Width: 384
Flags: W
LayerCount: 5
Fore
SplineSet
64 0 m 1,0,-1
 64 64 l 1,1,-1
 192 64 l 1,2,-1
 192 0 l 1,3,-1
 64 0 l 1,0,-1
256 0 m 1,4,-1
 256 64 l 1,5,-1
 320 64 l 1,6,-1
 320 0 l 1,7,-1
 256 0 l 1,4,-1
192 64 m 1,8,-1
 192 128 l 1,9,-1
 256 128 l 1,10,-1
 256 64 l 1,11,-1
 192 64 l 1,8,-1
0 64 m 1,12,-1
 0 192 l 1,13,-1
 64 192 l 1,14,-1
 64 64 l 1,15,-1
 0 64 l 1,12,-1
128 128 m 1,16,-1
 128 192 l 1,17,-1
 192 192 l 1,18,-1
 192 128 l 1,19,-1
 128 128 l 1,16,-1
256 128 m 1,20,-1
 256 192 l 1,21,-1
 320 192 l 1,22,-1
 320 128 l 1,23,-1
 256 128 l 1,20,-1
64 192 m 1,24,-1
 64 256 l 1,25,-1
 128 256 l 1,26,-1
 128 192 l 1,27,-1
 64 192 l 1,24,-1
128 256 m 1,28,-1
 128 320 l 1,29,-1
 192 320 l 1,30,-1
 192 256 l 1,31,-1
 128 256 l 1,28,-1
0 256 m 1,32,-1
 0 384 l 1,33,-1
 64 384 l 1,34,-1
 64 256 l 1,35,-1
 0 256 l 1,32,-1
192 320 m 1,36,-1
 192 384 l 1,37,-1
 256 384 l 1,38,-1
 256 320 l 1,39,-1
 192 320 l 1,36,-1
64 384 m 1,40,-1
 64 448 l 1,41,-1
 192 448 l 1,42,-1
 192 384 l 1,43,-1
 64 384 l 1,40,-1
EndSplineSet
Validated: 5
EndChar

StartChar: quotesingle
Encoding: 39 39 10
Width: 128
Flags: W
LayerCount: 5
Fore
SplineSet
0 320 m 1,0,-1
 0 448 l 1,1,-1
 64 448 l 1,2,-1
 64 320 l 1,3,-1
 0 320 l 1,0,-1
EndSplineSet
Validated: 1
EndChar

StartChar: parenleft
Encoding: 40 40 11
Width: 320
Flags: W
LayerCount: 5
Fore
SplineSet
192 0 m 1,0,-1
 192 64 l 1,1,-1
 256 64 l 1,2,-1
 256 0 l 1,3,-1
 192 0 l 1,0,-1
128 64 m 1,4,-1
 128 128 l 1,5,-1
 192 128 l 1,6,-1
 192 64 l 1,7,-1
 128 64 l 1,4,-1
64 128 m 1,8,-1
 64 320 l 1,9,-1
 128 320 l 1,10,-1
 128 128 l 1,11,-1
 64 128 l 1,8,-1
128 320 m 1,12,-1
 128 384 l 1,13,-1
 192 384 l 1,14,-1
 192 320 l 1,15,-1
 128 320 l 1,12,-1
192 384 m 1,16,-1
 192 448 l 1,17,-1
 256 448 l 1,18,-1
 256 384 l 1,19,-1
 192 384 l 1,16,-1
EndSplineSet
Validated: 5
EndChar

StartChar: parenright
Encoding: 41 41 12
Width: 320
Flags: W
LayerCount: 5
Fore
SplineSet
64 0 m 1,0,-1
 64 64 l 1,1,-1
 128 64 l 1,2,-1
 128 0 l 1,3,-1
 64 0 l 1,0,-1
128 64 m 1,4,-1
 128 128 l 1,5,-1
 192 128 l 1,6,-1
 192 64 l 1,7,-1
 128 64 l 1,4,-1
192 128 m 1,8,-1
 192 320 l 1,9,-1
 256 320 l 1,10,-1
 256 128 l 1,11,-1
 192 128 l 1,8,-1
128 320 m 1,12,-1
 128 384 l 1,13,-1
 192 384 l 1,14,-1
 192 320 l 1,15,-1
 128 320 l 1,12,-1
64 384 m 1,16,-1
 64 448 l 1,17,-1
 128 448 l 1,18,-1
 128 384 l 1,19,-1
 64 384 l 1,16,-1
EndSplineSet
Validated: 5
EndChar

StartChar: asterisk
Encoding: 42 42 13
Width: 384
Flags: W
LayerCount: 5
Fore
SplineSet
0 128 m 1,0,-1
 0 256 l 1,1,-1
 64 256 l 1,2,-1
 64 128 l 1,3,-1
 0 128 l 1,0,-1
256 128 m 1,4,-1
 256 256 l 1,5,-1
 320 256 l 1,6,-1
 320 128 l 1,7,-1
 256 128 l 1,4,-1
0 320 m 1,8,-1
 0 448 l 1,9,-1
 64 448 l 1,10,-1
 64 320 l 1,11,-1
 0 320 l 1,8,-1
128 128 m 1,12,-1
 128 256 l 1,13,-1
 64 256 l 1,14,-1
 64 320 l 1,15,-1
 128 320 l 1,16,-1
 128 448 l 1,17,-1
 192 448 l 1,18,-1
 192 320 l 1,19,-1
 256 320 l 1,20,-1
 256 256 l 1,21,-1
 192 256 l 1,22,-1
 192 128 l 1,23,-1
 128 128 l 1,12,-1
256 320 m 1,24,-1
 256 448 l 1,25,-1
 320 448 l 1,26,-1
 320 320 l 1,27,-1
 256 320 l 1,24,-1
EndSplineSet
Validated: 5
EndChar

StartChar: plus
Encoding: 43 43 14
Width: 384
Flags: W
LayerCount: 5
Fore
SplineSet
128 0 m 1,0,-1
 128 128 l 1,1,-1
 0 128 l 1,2,-1
 0 192 l 1,3,-1
 128 192 l 1,4,-1
 128 320 l 1,5,-1
 192 320 l 1,6,-1
 192 192 l 1,7,-1
 320 192 l 1,8,-1
 320 128 l 1,9,-1
 192 128 l 1,10,-1
 192 0 l 1,11,-1
 128 0 l 1,0,-1
EndSplineSet
Validated: 1
EndChar

StartChar: comma
Encoding: 44 44 15
Width: 128
Flags: W
LayerCount: 5
Fore
SplineSet
0 -64 m 1,0,-1
 0 64 l 1,1,-1
 64 64 l 1,2,-1
 64 -64 l 1,3,-1
 0 -64 l 1,0,-1
EndSplineSet
Validated: 1
EndChar

StartChar: hyphen
Encoding: 45 45 16
Width: 384
Flags: W
LayerCount: 5
Fore
SplineSet
0 128 m 1,0,-1
 0 192 l 1,1,-1
 320 192 l 1,2,-1
 320 128 l 1,3,-1
 0 128 l 1,0,-1
EndSplineSet
Validated: 1
EndChar

StartChar: period
Encoding: 46 46 17
Width: 128
Flags: W
LayerCount: 5
Fore
SplineSet
0 0 m 1,0,-1
 0 64 l 1,1,-1
 64 64 l 1,2,-1
 64 0 l 1,3,-1
 0 0 l 1,0,-1
EndSplineSet
Validated: 1
EndChar

StartChar: slash
Encoding: 47 47 18
Width: 384
Flags: W
LayerCount: 5
Fore
SplineSet
0 0 m 1,0,-1
 0 64 l 1,1,-1
 64 64 l 1,2,-1
 64 0 l 1,3,-1
 0 0 l 1,0,-1
64 64 m 1,4,-1
 64 192 l 1,5,-1
 128 192 l 1,6,-1
 128 64 l 1,7,-1
 64 64 l 1,4,-1
128 192 m 1,8,-1
 128 256 l 1,9,-1
 192 256 l 1,10,-1
 192 192 l 1,11,-1
 128 192 l 1,8,-1
192 256 m 1,12,-1
 192 384 l 1,13,-1
 256 384 l 1,14,-1
 256 256 l 1,15,-1
 192 256 l 1,12,-1
256 384 m 1,16,-1
 256 448 l 1,17,-1
 320 448 l 1,18,-1
 320 384 l 1,19,-1
 256 384 l 1,16,-1
EndSplineSet
Validated: 5
EndChar

StartChar: zero
Encoding: 48 48 19
Width: 384
Flags: W
LayerCount: 5
Fore
SplineSet
64 0 m 1,0,-1
 64 64 l 1,1,-1
 256 64 l 1,2,-1
 256 0 l 1,3,-1
 64 0 l 1,0,-1
128 192 m 1,4,-1
 128 256 l 1,5,-1
 192 256 l 1,6,-1
 192 192 l 1,7,-1
 128 192 l 1,4,-1
0 64 m 1,8,-1
 0 384 l 1,9,-1
 64 384 l 1,10,-1
 64 192 l 1,11,-1
 128 192 l 1,12,-1
 128 128 l 1,13,-1
 64 128 l 1,14,-1
 64 64 l 1,15,-1
 0 64 l 1,8,-1
256 64 m 1,16,-1
 256 256 l 1,17,-1
 192 256 l 1,18,-1
 192 320 l 1,19,-1
 256 320 l 1,20,-1
 256 384 l 1,21,-1
 320 384 l 1,22,-1
 320 64 l 1,23,-1
 256 64 l 1,16,-1
64 384 m 1,24,-1
 64 448 l 1,25,-1
 256 448 l 1,26,-1
 256 384 l 1,27,-1
 64 384 l 1,24,-1
EndSplineSet
Validated: 5
EndChar

StartChar: one
Encoding: 49 49 20
Width: 256
Flags: W
LayerCount: 5
Fore
SplineSet
0 0 m 1,0,-1
 0 64 l 1,1,-1
 64 64 l 1,2,-1
 64 320 l 1,3,-1
 0 320 l 1,4,-1
 0 384 l 1,5,-1
 64 384 l 1,6,-1
 64 448 l 1,7,-1
 128 448 l 1,8,-1
 128 64 l 1,9,-1
 192 64 l 1,10,-1
 192 0 l 1,11,-1
 0 0 l 1,0,-1
EndSplineSet
Validated: 1
EndChar

StartChar: two
Encoding: 50 50 21
Width: 384
Flags: W
LayerCount: 5
Fore
SplineSet
0 0 m 1,0,-1
 0 64 l 1,1,-1
 64 64 l 1,2,-1
 64 128 l 1,3,-1
 128 128 l 1,4,-1
 128 64 l 1,5,-1
 320 64 l 1,6,-1
 320 0 l 1,7,-1
 0 0 l 1,0,-1
128 128 m 1,8,-1
 128 192 l 1,9,-1
 192 192 l 1,10,-1
 192 128 l 1,11,-1
 128 128 l 1,8,-1
192 192 m 1,12,-1
 192 256 l 1,13,-1
 256 256 l 1,14,-1
 256 192 l 1,15,-1
 192 192 l 1,12,-1
0 320 m 1,16,-1
 0 384 l 1,17,-1
 64 384 l 1,18,-1
 64 320 l 1,19,-1
 0 320 l 1,16,-1
256 256 m 1,20,-1
 256 384 l 1,21,-1
 320 384 l 1,22,-1
 320 256 l 1,23,-1
 256 256 l 1,20,-1
64 384 m 1,24,-1
 64 448 l 1,25,-1
 256 448 l 1,26,-1
 256 384 l 1,27,-1
 64 384 l 1,24,-1
EndSplineSet
Validated: 5
EndChar

StartChar: three
Encoding: 51 51 22
Width: 384
Flags: W
LayerCount: 5
Fore
SplineSet
64 0 m 1,0,-1
 64 64 l 1,1,-1
 256 64 l 1,2,-1
 256 0 l 1,3,-1
 64 0 l 1,0,-1
0 64 m 1,4,-1
 0 128 l 1,5,-1
 64 128 l 1,6,-1
 64 64 l 1,7,-1
 0 64 l 1,4,-1
256 64 m 1,8,-1
 256 192 l 1,9,-1
 320 192 l 1,10,-1
 320 64 l 1,11,-1
 256 64 l 1,8,-1
64 192 m 1,12,-1
 64 256 l 1,13,-1
 256 256 l 1,14,-1
 256 192 l 1,15,-1
 64 192 l 1,12,-1
0 320 m 1,16,-1
 0 384 l 1,17,-1
 64 384 l 1,18,-1
 64 320 l 1,19,-1
 0 320 l 1,16,-1
256 256 m 1,20,-1
 256 384 l 1,21,-1
 320 384 l 1,22,-1
 320 256 l 1,23,-1
 256 256 l 1,20,-1
64 384 m 1,24,-1
 64 448 l 1,25,-1
 256 448 l 1,26,-1
 256 384 l 1,27,-1
 64 384 l 1,24,-1
EndSplineSet
Validated: 5
EndChar

StartChar: four
Encoding: 52 52 23
Width: 384
Flags: W
LayerCount: 5
Fore
SplineSet
192 0 m 1,0,-1
 192 192 l 1,1,-1
 0 192 l 1,2,-1
 0 448 l 1,3,-1
 64 448 l 1,4,-1
 64 256 l 1,5,-1
 192 256 l 1,6,-1
 192 448 l 1,7,-1
 256 448 l 1,8,-1
 256 256 l 1,9,-1
 320 256 l 1,10,-1
 320 192 l 1,11,-1
 256 192 l 1,12,-1
 256 0 l 1,13,-1
 192 0 l 1,0,-1
EndSplineSet
Validated: 1
EndChar

StartChar: five
Encoding: 53 53 24
Width: 384
Flags: W
LayerCount: 5
Fore
SplineSet
64 0 m 1,0,-1
 64 64 l 1,1,-1
 256 64 l 1,2,-1
 256 0 l 1,3,-1
 64 0 l 1,0,-1
0 64 m 1,4,-1
 0 128 l 1,5,-1
 64 128 l 1,6,-1
 64 64 l 1,7,-1
 0 64 l 1,4,-1
256 64 m 1,8,-1
 256 192 l 1,9,-1
 320 192 l 1,10,-1
 320 64 l 1,11,-1
 256 64 l 1,8,-1
0 192 m 1,12,-1
 0 448 l 1,13,-1
 320 448 l 1,14,-1
 320 384 l 1,15,-1
 64 384 l 1,16,-1
 64 256 l 1,17,-1
 256 256 l 1,18,-1
 256 192 l 1,19,-1
 0 192 l 1,12,-1
EndSplineSet
Validated: 5
EndChar

StartChar: six
Encoding: 54 54 25
Width: 384
Flags: W
LayerCount: 5
Fore
SplineSet
64 0 m 1,0,-1
 64 64 l 1,1,-1
 256 64 l 1,2,-1
 256 0 l 1,3,-1
 64 0 l 1,0,-1
256 64 m 1,4,-1
 256 192 l 1,5,-1
 320 192 l 1,6,-1
 320 64 l 1,7,-1
 256 64 l 1,4,-1
0 64 m 1,8,-1
 0 384 l 1,9,-1
 64 384 l 1,10,-1
 64 256 l 1,11,-1
 256 256 l 1,12,-1
 256 192 l 1,13,-1
 64 192 l 1,14,-1
 64 64 l 1,15,-1
 0 64 l 1,8,-1
256 320 m 5,16,-1
 256 384 l 5,17,-1
 320 384 l 5,18,-1
 320 320 l 5,19,-1
 256 320 l 5,16,-1
64 384 m 1,20,-1
 64 448 l 1,21,-1
 256 448 l 1,22,-1
 256 384 l 1,23,-1
 64 384 l 1,20,-1
EndSplineSet
Validated: 5
EndChar

StartChar: seven
Encoding: 55 55 26
Width: 384
Flags: W
LayerCount: 5
Fore
SplineSet
64 0 m 1,0,-1
 64 192 l 1,1,-1
 128 192 l 1,2,-1
 128 0 l 1,3,-1
 64 0 l 1,0,-1
128 192 m 1,4,-1
 128 256 l 1,5,-1
 192 256 l 1,6,-1
 192 192 l 1,7,-1
 128 192 l 1,4,-1
192 256 m 1,8,-1
 192 320 l 1,9,-1
 256 320 l 1,10,-1
 256 256 l 1,11,-1
 192 256 l 1,8,-1
256 320 m 1,12,-1
 256 384 l 1,13,-1
 0 384 l 1,14,-1
 0 448 l 1,15,-1
 320 448 l 1,16,-1
 320 320 l 1,17,-1
 256 320 l 1,12,-1
EndSplineSet
Validated: 5
EndChar

StartChar: eight
Encoding: 56 56 27
Width: 384
Flags: W
LayerCount: 5
Fore
SplineSet
64 0 m 1,0,-1
 64 64 l 1,1,-1
 256 64 l 1,2,-1
 256 0 l 1,3,-1
 64 0 l 1,0,-1
0 64 m 1,4,-1
 0 192 l 1,5,-1
 64 192 l 1,6,-1
 64 64 l 1,7,-1
 0 64 l 1,4,-1
256 64 m 1,8,-1
 256 192 l 1,9,-1
 320 192 l 1,10,-1
 320 64 l 1,11,-1
 256 64 l 1,8,-1
64 192 m 1,12,-1
 64 256 l 1,13,-1
 256 256 l 1,14,-1
 256 192 l 1,15,-1
 64 192 l 1,12,-1
0 256 m 1,16,-1
 0 384 l 1,17,-1
 64 384 l 1,18,-1
 64 256 l 1,19,-1
 0 256 l 1,16,-1
256 256 m 1,20,-1
 256 384 l 1,21,-1
 320 384 l 1,22,-1
 320 256 l 1,23,-1
 256 256 l 1,20,-1
64 384 m 1,24,-1
 64 448 l 1,25,-1
 256 448 l 1,26,-1
 256 384 l 1,27,-1
 64 384 l 1,24,-1
EndSplineSet
Validated: 5
EndChar

StartChar: nine
Encoding: 57 57 28
Width: 384
Flags: W
LayerCount: 5
Fore
SplineSet
0 64 m 1,0,-1
 0 128 l 1,1,-1
 64 128 l 1,2,-1
 64 64 l 1,3,-1
 0 64 l 1,0,-1
64 0 m 1,4,-1
 64 64 l 1,5,-1
 256 64 l 1,6,-1
 256 0 l 1,7,-1
 64 0 l 1,4,-1
0 256 m 1,8,-1
 0 384 l 1,9,-1
 64 384 l 1,10,-1
 64 256 l 1,11,-1
 0 256 l 1,8,-1
256 64 m 1,12,-1
 256 192 l 1,13,-1
 64 192 l 1,14,-1
 64 256 l 1,15,-1
 256 256 l 1,16,-1
 256 384 l 1,17,-1
 320 384 l 1,18,-1
 320 64 l 1,19,-1
 256 64 l 1,12,-1
64 384 m 1,20,-1
 64 448 l 1,21,-1
 256 448 l 1,22,-1
 256 384 l 1,23,-1
 64 384 l 1,20,-1
EndSplineSet
Validated: 5
EndChar

StartChar: colon
Encoding: 58 58 29
Width: 256
Flags: W
LayerCount: 5
Fore
SplineSet
128 0 m 1,0,-1
 128 64 l 1,1,-1
 192 64 l 1,2,-1
 192 0 l 1,3,-1
 128 0 l 1,0,-1
128 256 m 1,4,-1
 128 320 l 1,5,-1
 192 320 l 1,6,-1
 192 256 l 1,7,-1
 128 256 l 1,4,-1
EndSplineSet
Validated: 1
EndChar

StartChar: semicolon
Encoding: 59 59 30
Width: 256
Flags: W
LayerCount: 5
Fore
SplineSet
64 -128 m 5,0,-1
 64 -64 l 5,1,-1
 128 -64 l 5,2,-1
 128 -128 l 5,3,-1
 64 -128 l 5,0,-1
128 -64 m 5,4,-1
 128 64 l 5,5,-1
 192 64 l 5,6,-1
 192 -64 l 5,7,-1
 128 -64 l 5,4,-1
128 256 m 1,8,-1
 128 320 l 1,9,-1
 192 320 l 1,10,-1
 192 256 l 1,11,-1
 128 256 l 1,8,-1
EndSplineSet
Validated: 5
EndChar

StartChar: less
Encoding: 60 60 31
Width: 384
Flags: W
LayerCount: 5
Fore
SplineSet
192 0 m 1,0,-1
 192 64 l 1,1,-1
 320 64 l 1,2,-1
 320 0 l 1,3,-1
 192 0 l 1,0,-1
64 64 m 1,4,-1
 64 128 l 1,5,-1
 192 128 l 1,6,-1
 192 64 l 1,7,-1
 64 64 l 1,4,-1
0 128 m 1,8,-1
 0 192 l 1,9,-1
 64 192 l 1,10,-1
 64 128 l 1,11,-1
 0 128 l 1,8,-1
64 192 m 1,12,-1
 64 256 l 1,13,-1
 192 256 l 1,14,-1
 192 192 l 1,15,-1
 64 192 l 1,12,-1
192 256 m 1,16,-1
 192 320 l 1,17,-1
 320 320 l 1,18,-1
 320 256 l 1,19,-1
 192 256 l 1,16,-1
EndSplineSet
Validated: 5
EndChar

StartChar: equal
Encoding: 61 61 32
Width: 384
Flags: W
LayerCount: 5
Fore
SplineSet
0 0 m 1,0,-1
 0 64 l 1,1,-1
 320 64 l 1,2,-1
 320 0 l 1,3,-1
 0 0 l 1,0,-1
0 256 m 1,4,-1
 0 320 l 1,5,-1
 320 320 l 1,6,-1
 320 256 l 1,7,-1
 0 256 l 1,4,-1
EndSplineSet
Validated: 1
EndChar

StartChar: greater
Encoding: 62 62 33
Width: 384
Flags: W
LayerCount: 5
Fore
SplineSet
0 0 m 1,0,-1
 0 64 l 1,1,-1
 128 64 l 1,2,-1
 128 0 l 1,3,-1
 0 0 l 1,0,-1
128 64 m 1,4,-1
 128 128 l 1,5,-1
 256 128 l 1,6,-1
 256 64 l 1,7,-1
 128 64 l 1,4,-1
256 128 m 1,8,-1
 256 192 l 1,9,-1
 320 192 l 1,10,-1
 320 128 l 1,11,-1
 256 128 l 1,8,-1
128 192 m 1,12,-1
 128 256 l 1,13,-1
 256 256 l 1,14,-1
 256 192 l 1,15,-1
 128 192 l 1,12,-1
0 256 m 1,16,-1
 0 320 l 1,17,-1
 128 320 l 1,18,-1
 128 256 l 1,19,-1
 0 256 l 1,16,-1
EndSplineSet
Validated: 5
EndChar

StartChar: question
Encoding: 63 63 34
Width: 384
Flags: W
LayerCount: 5
Fore
SplineSet
128 0 m 1,0,-1
 128 64 l 1,1,-1
 192 64 l 1,2,-1
 192 0 l 1,3,-1
 128 0 l 1,0,-1
128 128 m 1,4,-1
 128 192 l 1,5,-1
 192 192 l 1,6,-1
 192 128 l 1,7,-1
 128 128 l 1,4,-1
192 192 m 1,8,-1
 192 256 l 1,9,-1
 256 256 l 1,10,-1
 256 192 l 1,11,-1
 192 192 l 1,8,-1
0 320 m 1,12,-1
 0 384 l 1,13,-1
 64 384 l 1,14,-1
 64 320 l 1,15,-1
 0 320 l 1,12,-1
256 256 m 1,16,-1
 256 384 l 1,17,-1
 320 384 l 1,18,-1
 320 256 l 1,19,-1
 256 256 l 1,16,-1
64 384 m 1,20,-1
 64 448 l 1,21,-1
 256 448 l 1,22,-1
 256 384 l 1,23,-1
 64 384 l 1,20,-1
EndSplineSet
Validated: 5
EndChar

StartChar: at
Encoding: 64 64 35
Width: 384
Flags: W
LayerCount: 5
Fore
SplineSet
64 0 m 1,0,-1
 64 64 l 1,1,-1
 320 64 l 1,2,-1
 320 0 l 1,3,-1
 64 0 l 1,0,-1
0 64 m 1,4,-1
 0 384 l 1,5,-1
 64 384 l 1,6,-1
 64 256 l 1,7,-1
 128 256 l 1,8,-1
 128 320 l 1,9,-1
 192 320 l 1,10,-1
 192 256 l 1,11,-1
 256 256 l 1,12,-1
 256 384 l 1,13,-1
 320 384 l 1,14,-1
 320 128 l 1,15,-1
 128 128 l 1,16,-1
 128 192 l 1,17,-1
 64 192 l 1,18,-1
 64 64 l 1,19,-1
 0 64 l 1,4,-1
64 384 m 1,20,-1
 64 448 l 1,21,-1
 256 448 l 1,22,-1
 256 384 l 1,23,-1
 64 384 l 1,20,-1
EndSplineSet
Validated: 5
EndChar

StartChar: A
Encoding: 65 65 36
Width: 384
Flags: W
LayerCount: 5
Fore
SplineSet
0 0 m 1,0,-1
 0 320 l 1,1,-1
 64 320 l 1,2,-1
 64 256 l 1,3,-1
 256 256 l 1,4,-1
 256 320 l 1,5,-1
 320 320 l 1,6,-1
 320 0 l 1,7,-1
 256 0 l 1,8,-1
 256 192 l 1,9,-1
 64 192 l 1,10,-1
 64 0 l 1,11,-1
 0 0 l 1,0,-1
64 320 m 1,12,-1
 64 384 l 1,13,-1
 128 384 l 1,14,-1
 128 320 l 1,15,-1
 64 320 l 1,12,-1
192 320 m 1,16,-1
 192 384 l 1,17,-1
 256 384 l 1,18,-1
 256 320 l 1,19,-1
 192 320 l 1,16,-1
128 384 m 1,20,-1
 128 448 l 1,21,-1
 192 448 l 1,22,-1
 192 384 l 1,23,-1
 128 384 l 1,20,-1
EndSplineSet
Validated: 5
EndChar

StartChar: B
Encoding: 66 66 37
Width: 384
Flags: W
LayerCount: 5
Fore
SplineSet
256 64 m 1,0,-1
 256 192 l 1,1,-1
 320 192 l 1,2,-1
 320 64 l 1,3,-1
 256 64 l 1,0,-1
256 256 m 1,4,-1
 256 384 l 1,5,-1
 320 384 l 1,6,-1
 320 256 l 1,7,-1
 256 256 l 1,4,-1
0 0 m 1,8,-1
 0 448 l 1,9,-1
 256 448 l 1,10,-1
 256 384 l 1,11,-1
 64 384 l 1,12,-1
 64 256 l 1,13,-1
 256 256 l 1,14,-1
 256 192 l 1,15,-1
 64 192 l 1,16,-1
 64 64 l 1,17,-1
 256 64 l 1,18,-1
 256 0 l 1,19,-1
 0 0 l 1,8,-1
EndSplineSet
Validated: 5
EndChar

StartChar: C
Encoding: 67 67 38
Width: 384
Flags: W
LayerCount: 5
Fore
SplineSet
64 0 m 1,0,-1
 64 64 l 1,1,-1
 256 64 l 1,2,-1
 256 0 l 1,3,-1
 64 0 l 1,0,-1
256 64 m 1,4,-1
 256 128 l 1,5,-1
 320 128 l 1,6,-1
 320 64 l 1,7,-1
 256 64 l 1,4,-1
0 64 m 1,8,-1
 0 384 l 1,9,-1
 64 384 l 1,10,-1
 64 64 l 1,11,-1
 0 64 l 1,8,-1
256 320 m 1,12,-1
 256 384 l 1,13,-1
 320 384 l 1,14,-1
 320 320 l 1,15,-1
 256 320 l 1,12,-1
64 384 m 1,16,-1
 64 448 l 1,17,-1
 256 448 l 1,18,-1
 256 384 l 1,19,-1
 64 384 l 1,16,-1
EndSplineSet
Validated: 5
EndChar

StartChar: D
Encoding: 68 68 39
Width: 384
Flags: W
LayerCount: 5
Fore
SplineSet
256 64 m 1,0,-1
 256 384 l 1,1,-1
 320 384 l 1,2,-1
 320 64 l 1,3,-1
 256 64 l 1,0,-1
0 0 m 1,4,-1
 0 448 l 1,5,-1
 256 448 l 1,6,-1
 256 384 l 1,7,-1
 64 384 l 1,8,-1
 64 64 l 1,9,-1
 256 64 l 1,10,-1
 256 0 l 1,11,-1
 0 0 l 1,4,-1
EndSplineSet
Validated: 5
EndChar

StartChar: E
Encoding: 69 69 40
Width: 384
Flags: W
LayerCount: 5
Fore
SplineSet
0 0 m 1,0,-1
 0 448 l 1,1,-1
 320 448 l 1,2,-1
 320 384 l 1,3,-1
 64 384 l 1,4,-1
 64 256 l 1,5,-1
 256 256 l 1,6,-1
 256 192 l 1,7,-1
 64 192 l 1,8,-1
 64 64 l 1,9,-1
 320 64 l 1,10,-1
 320 0 l 1,11,-1
 0 0 l 1,0,-1
EndSplineSet
Validated: 1
EndChar

StartChar: F
Encoding: 70 70 41
Width: 384
Flags: W
LayerCount: 5
Fore
SplineSet
0 0 m 1,0,-1
 0 448 l 1,1,-1
 320 448 l 1,2,-1
 320 384 l 1,3,-1
 64 384 l 1,4,-1
 64 256 l 1,5,-1
 256 256 l 1,6,-1
 256 192 l 1,7,-1
 64 192 l 1,8,-1
 64 0 l 1,9,-1
 0 0 l 1,0,-1
EndSplineSet
Validated: 1
EndChar

StartChar: G
Encoding: 71 71 42
Width: 384
Flags: W
LayerCount: 5
Fore
SplineSet
64 0 m 1,0,-1
 64 64 l 1,1,-1
 256 64 l 1,2,-1
 256 0 l 1,3,-1
 64 0 l 1,0,-1
256 64 m 1,4,-1
 256 192 l 1,5,-1
 128 192 l 1,6,-1
 128 256 l 1,7,-1
 320 256 l 1,8,-1
 320 64 l 1,9,-1
 256 64 l 1,4,-1
0 64 m 1,10,-1
 0 384 l 1,11,-1
 64 384 l 1,12,-1
 64 64 l 1,13,-1
 0 64 l 1,10,-1
64 384 m 1,14,-1
 64 448 l 1,15,-1
 256 448 l 1,16,-1
 256 384 l 1,17,-1
 64 384 l 1,14,-1
EndSplineSet
Validated: 5
EndChar

StartChar: H
Encoding: 72 72 43
Width: 384
Flags: W
LayerCount: 5
Fore
SplineSet
0 0 m 1,0,-1
 0 448 l 1,1,-1
 64 448 l 1,2,-1
 64 256 l 1,3,-1
 256 256 l 1,4,-1
 256 448 l 1,5,-1
 320 448 l 1,6,-1
 320 0 l 1,7,-1
 256 0 l 1,8,-1
 256 192 l 1,9,-1
 64 192 l 1,10,-1
 64 0 l 1,11,-1
 0 0 l 1,0,-1
EndSplineSet
Validated: 1
EndChar

StartChar: I
Encoding: 73 73 44
Width: 256
Flags: W
LayerCount: 5
Fore
SplineSet
0 0 m 1,0,-1
 0 64 l 1,1,-1
 64 64 l 1,2,-1
 64 384 l 1,3,-1
 0 384 l 1,4,-1
 0 448 l 1,5,-1
 192 448 l 1,6,-1
 192 384 l 1,7,-1
 128 384 l 1,8,-1
 128 64 l 1,9,-1
 192 64 l 1,10,-1
 192 0 l 1,11,-1
 0 0 l 1,0,-1
EndSplineSet
Validated: 1
EndChar

StartChar: J
Encoding: 74 74 45
Width: 384
Flags: W
LayerCount: 5
Fore
SplineSet
64 0 m 1,0,-1
 64 64 l 1,1,-1
 256 64 l 1,2,-1
 256 0 l 1,3,-1
 64 0 l 1,0,-1
0 64 m 1,4,-1
 0 128 l 1,5,-1
 64 128 l 1,6,-1
 64 64 l 1,7,-1
 0 64 l 1,4,-1
256 64 m 1,8,-1
 256 448 l 1,9,-1
 320 448 l 1,10,-1
 320 64 l 1,11,-1
 256 64 l 1,8,-1
EndSplineSet
Validated: 5
EndChar

StartChar: K
Encoding: 75 75 46
Width: 384
Flags: W
LayerCount: 5
Fore
SplineSet
256 0 m 1,0,-1
 256 64 l 1,1,-1
 320 64 l 1,2,-1
 320 0 l 1,3,-1
 256 0 l 1,0,-1
192 64 m 1,4,-1
 192 128 l 1,5,-1
 256 128 l 1,6,-1
 256 64 l 1,7,-1
 192 64 l 1,4,-1
128 128 m 1,8,-1
 128 192 l 1,9,-1
 192 192 l 1,10,-1
 192 128 l 1,11,-1
 128 128 l 1,8,-1
128 256 m 1,12,-1
 128 320 l 1,13,-1
 192 320 l 1,14,-1
 192 256 l 1,15,-1
 128 256 l 1,12,-1
192 320 m 1,16,-1
 192 384 l 1,17,-1
 256 384 l 1,18,-1
 256 320 l 1,19,-1
 192 320 l 1,16,-1
0 0 m 1,20,-1
 0 448 l 1,21,-1
 64 448 l 1,22,-1
 64 256 l 1,23,-1
 128 256 l 1,24,-1
 128 192 l 1,25,-1
 64 192 l 1,26,-1
 64 0 l 1,27,-1
 0 0 l 1,20,-1
256 384 m 1,28,-1
 256 448 l 1,29,-1
 320 448 l 1,30,-1
 320 384 l 1,31,-1
 256 384 l 1,28,-1
EndSplineSet
Validated: 5
EndChar

StartChar: L
Encoding: 76 76 47
Width: 384
Flags: W
LayerCount: 5
Fore
SplineSet
0 0 m 1,0,-1
 0 448 l 1,1,-1
 64 448 l 1,2,-1
 64 64 l 1,3,-1
 320 64 l 1,4,-1
 320 0 l 1,5,-1
 0 0 l 1,0,-1
EndSplineSet
Validated: 1
EndChar

StartChar: M
Encoding: 77 77 48
Width: 384
Flags: W
LayerCount: 5
Fore
SplineSet
128 192 m 1,0,-1
 128 256 l 1,1,-1
 192 256 l 1,2,-1
 192 192 l 1,3,-1
 128 192 l 1,0,-1
0 0 m 1,4,-1
 0 448 l 1,5,-1
 64 448 l 1,6,-1
 64 320 l 1,7,-1
 128 320 l 1,8,-1
 128 256 l 1,9,-1
 64 256 l 1,10,-1
 64 0 l 1,11,-1
 0 0 l 1,4,-1
256 0 m 1,12,-1
 256 256 l 1,13,-1
 192 256 l 1,14,-1
 192 320 l 1,15,-1
 256 320 l 1,16,-1
 256 448 l 1,17,-1
 320 448 l 1,18,-1
 320 0 l 1,19,-1
 256 0 l 1,12,-1
EndSplineSet
Validated: 5
EndChar

StartChar: N
Encoding: 78 78 49
Width: 384
Flags: W
LayerCount: 5
Fore
SplineSet
128 192 m 1,0,-1
 128 256 l 1,1,-1
 192 256 l 1,2,-1
 192 192 l 1,3,-1
 128 192 l 1,0,-1
0 0 m 1,4,-1
 0 448 l 1,5,-1
 64 448 l 1,6,-1
 64 320 l 1,7,-1
 128 320 l 1,8,-1
 128 256 l 1,9,-1
 64 256 l 1,10,-1
 64 0 l 1,11,-1
 0 0 l 1,4,-1
256 0 m 1,12,-1
 256 128 l 1,13,-1
 192 128 l 1,14,-1
 192 192 l 1,15,-1
 256 192 l 1,16,-1
 256 448 l 1,17,-1
 320 448 l 1,18,-1
 320 0 l 1,19,-1
 256 0 l 1,12,-1
EndSplineSet
Validated: 5
EndChar

StartChar: O
Encoding: 79 79 50
Width: 384
Flags: W
LayerCount: 5
Fore
SplineSet
64 0 m 1,0,-1
 64 64 l 1,1,-1
 256 64 l 1,2,-1
 256 0 l 1,3,-1
 64 0 l 1,0,-1
0 64 m 1,4,-1
 0 384 l 1,5,-1
 64 384 l 1,6,-1
 64 64 l 1,7,-1
 0 64 l 1,4,-1
256 64 m 1,8,-1
 256 384 l 1,9,-1
 320 384 l 1,10,-1
 320 64 l 1,11,-1
 256 64 l 1,8,-1
64 384 m 1,12,-1
 64 448 l 1,13,-1
 256 448 l 1,14,-1
 256 384 l 1,15,-1
 64 384 l 1,12,-1
EndSplineSet
Validated: 5
EndChar

StartChar: P
Encoding: 80 80 51
Width: 384
Flags: W
LayerCount: 5
Fore
SplineSet
256 256 m 1,0,-1
 256 384 l 1,1,-1
 320 384 l 1,2,-1
 320 256 l 1,3,-1
 256 256 l 1,0,-1
0 0 m 1,4,-1
 0 448 l 1,5,-1
 256 448 l 1,6,-1
 256 384 l 1,7,-1
 64 384 l 1,8,-1
 64 256 l 1,9,-1
 256 256 l 1,10,-1
 256 192 l 1,11,-1
 64 192 l 1,12,-1
 64 0 l 1,13,-1
 0 0 l 1,4,-1
EndSplineSet
Validated: 5
EndChar

StartChar: Q
Encoding: 81 81 52
Width: 384
Flags: W
LayerCount: 5
Fore
SplineSet
0 64 m 1,0,-1
 0 384 l 1,1,-1
 64 384 l 1,2,-1
 64 64 l 1,3,-1
 0 64 l 1,0,-1
64 0 m 1,4,-1
 64 64 l 1,5,-1
 192 64 l 1,6,-1
 192 128 l 1,7,-1
 256 128 l 1,8,-1
 256 384 l 1,9,-1
 320 384 l 1,10,-1
 320 0 l 1,11,-1
 64 0 l 1,4,-1
64 384 m 1,12,-1
 64 448 l 1,13,-1
 256 448 l 1,14,-1
 256 384 l 1,15,-1
 64 384 l 1,12,-1
EndSplineSet
Validated: 5
EndChar

StartChar: R
Encoding: 82 82 53
Width: 384
Flags: W
LayerCount: 5
Fore
SplineSet
256 0 m 1,0,-1
 256 192 l 1,1,-1
 320 192 l 1,2,-1
 320 0 l 1,3,-1
 256 0 l 1,0,-1
256 256 m 1,4,-1
 256 384 l 1,5,-1
 320 384 l 1,6,-1
 320 256 l 1,7,-1
 256 256 l 1,4,-1
0 0 m 1,8,-1
 0 448 l 1,9,-1
 256 448 l 1,10,-1
 256 384 l 1,11,-1
 64 384 l 1,12,-1
 64 256 l 1,13,-1
 256 256 l 1,14,-1
 256 192 l 1,15,-1
 64 192 l 1,16,-1
 64 0 l 1,17,-1
 0 0 l 1,8,-1
EndSplineSet
Validated: 5
EndChar

StartChar: S
Encoding: 83 83 54
Width: 384
Flags: W
LayerCount: 5
Fore
SplineSet
64 0 m 1,0,-1
 64 64 l 1,1,-1
 256 64 l 1,2,-1
 256 0 l 1,3,-1
 64 0 l 1,0,-1
0 64 m 1,4,-1
 0 128 l 1,5,-1
 64 128 l 1,6,-1
 64 64 l 1,7,-1
 0 64 l 1,4,-1
256 64 m 1,8,-1
 256 192 l 1,9,-1
 320 192 l 1,10,-1
 320 64 l 1,11,-1
 256 64 l 1,8,-1
64 192 m 1,12,-1
 64 256 l 1,13,-1
 256 256 l 1,14,-1
 256 192 l 1,15,-1
 64 192 l 1,12,-1
0 256 m 1,16,-1
 0 384 l 1,17,-1
 64 384 l 1,18,-1
 64 256 l 1,19,-1
 0 256 l 1,16,-1
256 320 m 1,20,-1
 256 384 l 1,21,-1
 320 384 l 1,22,-1
 320 320 l 1,23,-1
 256 320 l 1,20,-1
64 384 m 1,24,-1
 64 448 l 1,25,-1
 256 448 l 1,26,-1
 256 384 l 1,27,-1
 64 384 l 1,24,-1
EndSplineSet
Validated: 5
EndChar

StartChar: T
Encoding: 84 84 55
Width: 384
Flags: W
LayerCount: 5
Fore
SplineSet
128 0 m 1,0,-1
 128 384 l 1,1,-1
 0 384 l 1,2,-1
 0 448 l 1,3,-1
 320 448 l 1,4,-1
 320 384 l 1,5,-1
 192 384 l 1,6,-1
 192 0 l 1,7,-1
 128 0 l 1,0,-1
EndSplineSet
Validated: 1
EndChar

StartChar: U
Encoding: 85 85 56
Width: 384
Flags: W
LayerCount: 5
Fore
SplineSet
64 0 m 1,0,-1
 64 64 l 1,1,-1
 256 64 l 1,2,-1
 256 0 l 1,3,-1
 64 0 l 1,0,-1
0 64 m 1,4,-1
 0 448 l 1,5,-1
 64 448 l 1,6,-1
 64 64 l 1,7,-1
 0 64 l 1,4,-1
256 64 m 1,8,-1
 256 448 l 1,9,-1
 320 448 l 1,10,-1
 320 64 l 1,11,-1
 256 64 l 1,8,-1
EndSplineSet
Validated: 5
EndChar

StartChar: V
Encoding: 86 86 57
Width: 384
Flags: W
LayerCount: 5
Fore
SplineSet
128 0 m 1,0,-1
 128 64 l 1,1,-1
 192 64 l 1,2,-1
 192 0 l 1,3,-1
 128 0 l 1,0,-1
64 64 m 1,4,-1
 64 128 l 1,5,-1
 128 128 l 1,6,-1
 128 64 l 1,7,-1
 64 64 l 1,4,-1
192 64 m 1,8,-1
 192 128 l 1,9,-1
 256 128 l 1,10,-1
 256 64 l 1,11,-1
 192 64 l 1,8,-1
0 128 m 1,12,-1
 0 448 l 1,13,-1
 64 448 l 1,14,-1
 64 128 l 1,15,-1
 0 128 l 1,12,-1
256 128 m 1,16,-1
 256 448 l 1,17,-1
 320 448 l 1,18,-1
 320 128 l 1,19,-1
 256 128 l 1,16,-1
EndSplineSet
Validated: 5
EndChar

StartChar: W
Encoding: 87 87 58
Width: 384
Flags: W
LayerCount: 5
Fore
SplineSet
64 0 m 1,0,-1
 64 64 l 1,1,-1
 128 64 l 1,2,-1
 128 0 l 1,3,-1
 64 0 l 1,0,-1
192 0 m 1,4,-1
 192 64 l 1,5,-1
 256 64 l 1,6,-1
 256 0 l 1,7,-1
 192 0 l 1,4,-1
128 64 m 1,8,-1
 128 384 l 1,9,-1
 192 384 l 1,10,-1
 192 64 l 1,11,-1
 128 64 l 1,8,-1
0 64 m 1,12,-1
 0 448 l 1,13,-1
 64 448 l 1,14,-1
 64 64 l 1,15,-1
 0 64 l 1,12,-1
256 64 m 1,16,-1
 256 448 l 1,17,-1
 320 448 l 1,18,-1
 320 64 l 1,19,-1
 256 64 l 1,16,-1
EndSplineSet
Validated: 5
EndChar

StartChar: X
Encoding: 88 88 59
Width: 384
Flags: W
LayerCount: 5
Fore
SplineSet
0 0 m 1,0,-1
 0 128 l 1,1,-1
 64 128 l 1,2,-1
 64 0 l 1,3,-1
 0 0 l 1,0,-1
256 0 m 1,4,-1
 256 128 l 1,5,-1
 320 128 l 1,6,-1
 320 0 l 1,7,-1
 256 0 l 1,4,-1
64 128 m 1,8,-1
 64 192 l 1,9,-1
 128 192 l 1,10,-1
 128 128 l 1,11,-1
 64 128 l 1,8,-1
192 128 m 1,12,-1
 192 192 l 1,13,-1
 256 192 l 1,14,-1
 256 128 l 1,15,-1
 192 128 l 1,12,-1
128 192 m 1,16,-1
 128 256 l 1,17,-1
 192 256 l 1,18,-1
 192 192 l 1,19,-1
 128 192 l 1,16,-1
64 256 m 1,20,-1
 64 320 l 1,21,-1
 128 320 l 1,22,-1
 128 256 l 1,23,-1
 64 256 l 1,20,-1
192 256 m 1,24,-1
 192 320 l 1,25,-1
 256 320 l 1,26,-1
 256 256 l 1,27,-1
 192 256 l 1,24,-1
0 320 m 1,28,-1
 0 448 l 1,29,-1
 64 448 l 1,30,-1
 64 320 l 1,31,-1
 0 320 l 1,28,-1
256 320 m 1,32,-1
 256 448 l 1,33,-1
 320 448 l 1,34,-1
 320 320 l 1,35,-1
 256 320 l 1,32,-1
EndSplineSet
Validated: 5
EndChar

StartChar: Y
Encoding: 89 89 60
Width: 384
Flags: W
LayerCount: 5
Fore
SplineSet
128 0 m 5,0,-1
 128 256 l 5,1,-1
 192 256 l 5,2,-1
 192 0 l 5,3,-1
 128 0 l 5,0,-1
64 256 m 5,4,-1
 64 320 l 5,5,-1
 128 320 l 5,6,-1
 128 256 l 5,7,-1
 64 256 l 5,4,-1
192 256 m 5,8,-1
 192 320 l 5,9,-1
 256 320 l 5,10,-1
 256 256 l 5,11,-1
 192 256 l 5,8,-1
0 320 m 5,12,-1
 0 448 l 5,13,-1
 64 448 l 5,14,-1
 64 320 l 5,15,-1
 0 320 l 5,12,-1
256 320 m 5,16,-1
 256 448 l 5,17,-1
 320 448 l 5,18,-1
 320 320 l 5,19,-1
 256 320 l 5,16,-1
EndSplineSet
Validated: 5
EndChar

StartChar: Z
Encoding: 90 90 61
Width: 384
Flags: W
LayerCount: 5
Fore
SplineSet
0 0 m 1,0,-1
 0 128 l 1,1,-1
 64 128 l 1,2,-1
 64 64 l 1,3,-1
 320 64 l 1,4,-1
 320 0 l 1,5,-1
 0 0 l 1,0,-1
64 128 m 1,6,-1
 64 192 l 1,7,-1
 128 192 l 1,8,-1
 128 128 l 1,9,-1
 64 128 l 1,6,-1
128 192 m 1,10,-1
 128 256 l 1,11,-1
 192 256 l 1,12,-1
 192 192 l 1,13,-1
 128 192 l 1,10,-1
192 256 m 1,14,-1
 192 320 l 1,15,-1
 256 320 l 1,16,-1
 256 256 l 1,17,-1
 192 256 l 1,14,-1
256 320 m 1,18,-1
 256 384 l 1,19,-1
 0 384 l 1,20,-1
 0 448 l 1,21,-1
 320 448 l 1,22,-1
 320 320 l 1,23,-1
 256 320 l 1,18,-1
EndSplineSet
Validated: 5
EndChar

StartChar: bracketleft
Encoding: 91 91 62
Width: 320
Flags: W
LayerCount: 5
Fore
SplineSet
64 0 m 1,0,-1
 64 448 l 1,1,-1
 256 448 l 1,2,-1
 256 384 l 1,3,-1
 128 384 l 1,4,-1
 128 64 l 1,5,-1
 256 64 l 1,6,-1
 256 0 l 1,7,-1
 64 0 l 1,0,-1
EndSplineSet
Validated: 1
EndChar

StartChar: backslash
Encoding: 92 92 63
Width: 384
Flags: W
LayerCount: 5
Fore
SplineSet
256 0 m 1,0,-1
 256 64 l 1,1,-1
 320 64 l 1,2,-1
 320 0 l 1,3,-1
 256 0 l 1,0,-1
192 64 m 1,4,-1
 192 192 l 1,5,-1
 256 192 l 1,6,-1
 256 64 l 1,7,-1
 192 64 l 1,4,-1
128 192 m 1,8,-1
 128 256 l 1,9,-1
 192 256 l 1,10,-1
 192 192 l 1,11,-1
 128 192 l 1,8,-1
64 256 m 1,12,-1
 64 384 l 1,13,-1
 128 384 l 1,14,-1
 128 256 l 1,15,-1
 64 256 l 1,12,-1
0 384 m 1,16,-1
 0 448 l 1,17,-1
 64 448 l 1,18,-1
 64 384 l 1,19,-1
 0 384 l 1,16,-1
EndSplineSet
Validated: 5
EndChar

StartChar: bracketright
Encoding: 93 93 64
Width: 320
Flags: W
LayerCount: 5
Fore
SplineSet
64 0 m 1,0,-1
 64 64 l 1,1,-1
 192 64 l 1,2,-1
 192 384 l 1,3,-1
 64 384 l 1,4,-1
 64 448 l 1,5,-1
 256 448 l 1,6,-1
 256 0 l 1,7,-1
 64 0 l 1,0,-1
EndSplineSet
Validated: 1
EndChar

StartChar: asciicircum
Encoding: 94 94 65
Width: 384
Flags: W
LayerCount: 5
Fore
SplineSet
0 256 m 1,0,-1
 0 320 l 1,1,-1
 64 320 l 1,2,-1
 64 256 l 1,3,-1
 0 256 l 1,0,-1
256 256 m 1,4,-1
 256 320 l 1,5,-1
 320 320 l 1,6,-1
 320 256 l 1,7,-1
 256 256 l 1,4,-1
64 320 m 1,8,-1
 64 384 l 1,9,-1
 128 384 l 1,10,-1
 128 320 l 1,11,-1
 64 320 l 1,8,-1
192 320 m 1,12,-1
 192 384 l 1,13,-1
 256 384 l 1,14,-1
 256 320 l 1,15,-1
 192 320 l 1,12,-1
128 384 m 1,16,-1
 128 448 l 1,17,-1
 192 448 l 1,18,-1
 192 384 l 1,19,-1
 128 384 l 1,16,-1
EndSplineSet
Validated: 5
EndChar

StartChar: underscore
Encoding: 95 95 66
Width: 384
Flags: W
LayerCount: 5
Fore
SplineSet
0 0 m 1,0,-1
 0 64 l 1,1,-1
 320 64 l 1,2,-1
 320 0 l 1,3,-1
 0 0 l 1,0,-1
EndSplineSet
Validated: 1
EndChar

StartChar: grave
Encoding: 96 96 67
Width: 320
Flags: W
LayerCount: 5
Fore
SplineSet
192 320 m 1,0,-1
 192 384 l 1,1,-1
 256 384 l 1,2,-1
 256 320 l 1,3,-1
 192 320 l 1,0,-1
128 384 m 1,4,-1
 128 448 l 1,5,-1
 192 448 l 1,6,-1
 192 384 l 1,7,-1
 128 384 l 1,4,-1
EndSplineSet
Validated: 5
EndChar

StartChar: a
Encoding: 97 97 68
Width: 384
Flags: W
LayerCount: 5
Fore
SplineSet
0 64 m 1,0,-1
 0 128 l 1,1,-1
 64 128 l 1,2,-1
 64 64 l 1,3,-1
 0 64 l 1,0,-1
64 0 m 1,4,-1
 64 64 l 1,5,-1
 256 64 l 1,6,-1
 256 128 l 1,7,-1
 64 128 l 1,8,-1
 64 192 l 1,9,-1
 256 192 l 1,10,-1
 256 256 l 1,11,-1
 320 256 l 1,12,-1
 320 0 l 1,13,-1
 64 0 l 1,4,-1
64 256 m 5,14,-1
 64 320 l 5,15,-1
 256 320 l 1,16,-1
 256 256 l 1,17,-1
 64 256 l 5,14,-1
EndSplineSet
Validated: 5
EndChar

StartChar: b
Encoding: 98 98 69
Width: 384
Flags: W
LayerCount: 5
Fore
SplineSet
256 64 m 1,0,-1
 256 256 l 1,1,-1
 320 256 l 1,2,-1
 320 64 l 1,3,-1
 256 64 l 1,0,-1
0 0 m 1,4,-1
 0 448 l 1,5,-1
 64 448 l 1,6,-1
 64 320 l 1,7,-1
 256 320 l 1,8,-1
 256 256 l 1,9,-1
 64 256 l 1,10,-1
 64 64 l 1,11,-1
 256 64 l 1,12,-1
 256 0 l 1,13,-1
 0 0 l 1,4,-1
EndSplineSet
Validated: 5
EndChar

StartChar: c
Encoding: 99 99 70
Width: 384
Flags: W
LayerCount: 5
Fore
SplineSet
64 0 m 1,0,-1
 64 64 l 1,1,-1
 256 64 l 1,2,-1
 256 0 l 1,3,-1
 64 0 l 1,0,-1
256 64 m 1,4,-1
 256 128 l 1,5,-1
 320 128 l 1,6,-1
 320 64 l 1,7,-1
 256 64 l 1,4,-1
0 64 m 1,8,-1
 0 256 l 1,9,-1
 64 256 l 1,10,-1
 64 64 l 1,11,-1
 0 64 l 1,8,-1
256 192 m 1,12,-1
 256 256 l 1,13,-1
 320 256 l 1,14,-1
 320 192 l 1,15,-1
 256 192 l 1,12,-1
64 256 m 1,16,-1
 64 320 l 1,17,-1
 256 320 l 1,18,-1
 256 256 l 1,19,-1
 64 256 l 1,16,-1
EndSplineSet
Validated: 5
EndChar

StartChar: d
Encoding: 100 100 71
Width: 384
Flags: W
LayerCount: 5
Fore
SplineSet
0 64 m 1,0,-1
 0 256 l 1,1,-1
 64 256 l 1,2,-1
 64 64 l 1,3,-1
 0 64 l 1,0,-1
64 0 m 1,4,-1
 64 64 l 1,5,-1
 256 64 l 1,6,-1
 256 256 l 1,7,-1
 64 256 l 1,8,-1
 64 320 l 1,9,-1
 256 320 l 1,10,-1
 256 448 l 1,11,-1
 320 448 l 1,12,-1
 320 0 l 1,13,-1
 64 0 l 1,4,-1
EndSplineSet
Validated: 5
EndChar

StartChar: e
Encoding: 101 101 72
Width: 384
Flags: W
LayerCount: 5
Fore
SplineSet
64 0 m 1,0,-1
 64 64 l 1,1,-1
 320 64 l 1,2,-1
 320 0 l 1,3,-1
 64 0 l 1,0,-1
0 64 m 1,4,-1
 0 256 l 1,5,-1
 64 256 l 1,6,-1
 64 192 l 1,7,-1
 256 192 l 1,8,-1
 256 256 l 1,9,-1
 320 256 l 1,10,-1
 320 128 l 1,11,-1
 64 128 l 1,12,-1
 64 64 l 1,13,-1
 0 64 l 1,4,-1
64 256 m 1,14,-1
 64 320 l 1,15,-1
 256 320 l 1,16,-1
 256 256 l 1,17,-1
 64 256 l 1,14,-1
EndSplineSet
Validated: 5
EndChar

StartChar: f
Encoding: 102 102 73
Width: 320
Flags: W
HStem: 0 21G<64 128> 192 64<0 64 128 192> 320 64<192 256> 384 64<128 192>
VStem: 64 64<0 192 256 384> 128 64<384 448> 192 64<320 384>
LayerCount: 5
Fore
SplineSet
64 0 m 1,0,-1
 64 192 l 1,1,-1
 0 192 l 1,2,-1
 0 256 l 1,3,-1
 64 256 l 1,4,-1
 64 384 l 1,5,-1
 128 384 l 1,6,-1
 128 256 l 1,7,-1
 192 256 l 1,8,-1
 192 192 l 1,9,-1
 128 192 l 1,10,-1
 128 0 l 1,11,-1
 64 0 l 1,0,-1
192 320 m 1,12,-1
 192 384 l 1,13,-1
 256 384 l 1,14,-1
 256 320 l 1,15,-1
 192 320 l 1,12,-1
128 384 m 1,16,-1
 128 448 l 1,17,-1
 192 448 l 1,18,-1
 192 384 l 1,19,-1
 128 384 l 1,16,-1
EndSplineSet
Validated: 5
EndChar

StartChar: g
Encoding: 103 103 74
Width: 384
Flags: W
LayerCount: 5
Fore
SplineSet
64 -192 m 1,0,-1
 64 -128 l 1,1,-1
 256 -128 l 1,2,-1
 256 -192 l 1,3,-1
 64 -192 l 1,0,-1
0 64 m 1,4,-1
 0 256 l 1,5,-1
 64 256 l 1,6,-1
 64 64 l 1,7,-1
 0 64 l 1,4,-1
256 -128 m 1,8,-1
 256 0 l 1,9,-1
 64 0 l 1,10,-1
 64 64 l 1,11,-1
 256 64 l 1,12,-1
 256 256 l 1,13,-1
 64 256 l 1,14,-1
 64 320 l 1,15,-1
 320 320 l 1,16,-1
 320 -128 l 1,17,-1
 256 -128 l 1,8,-1
EndSplineSet
Validated: 5
EndChar

StartChar: h
Encoding: 104 104 75
Width: 384
Flags: W
LayerCount: 5
Fore
SplineSet
256 0 m 1,0,-1
 256 256 l 1,1,-1
 320 256 l 1,2,-1
 320 0 l 1,3,-1
 256 0 l 1,0,-1
0 0 m 1,4,-1
 0 448 l 1,5,-1
 64 448 l 1,6,-1
 64 320 l 1,7,-1
 256 320 l 1,8,-1
 256 256 l 1,9,-1
 64 256 l 1,10,-1
 64 0 l 1,11,-1
 0 0 l 1,4,-1
EndSplineSet
Validated: 5
EndChar

StartChar: i
Encoding: 105 105 76
Width: 128
Flags: W
HStem: 0 21G<0 64> 320 64<0 64>
VStem: 0 64<0 256 320 384>
LayerCount: 5
Fore
SplineSet
0 0 m 1,0,-1
 0 256 l 1,1,-1
 64 256 l 1,2,-1
 64 0 l 1,3,-1
 0 0 l 1,0,-1
0 320 m 1,4,-1
 0 384 l 1,5,-1
 64 384 l 1,6,-1
 64 320 l 1,7,-1
 0 320 l 1,4,-1
EndSplineSet
Validated: 1
EndChar

StartChar: j
Encoding: 106 106 77
Width: 256
Flags: W
LayerCount: 5
Fore
SplineSet
64 -128 m 1,0,-1
 64 -64 l 1,1,-1
 128 -64 l 1,2,-1
 128 -128 l 1,3,-1
 64 -128 l 1,0,-1
0 -64 m 1,4,-1
 0 0 l 1,5,-1
 64 0 l 1,6,-1
 64 -64 l 1,7,-1
 0 -64 l 1,4,-1
128 -64 m 1,8,-1
 128 256 l 1,9,-1
 192 256 l 1,10,-1
 192 -64 l 1,11,-1
 128 -64 l 1,8,-1
128 320 m 1,12,-1
 128 384 l 1,13,-1
 192 384 l 1,14,-1
 192 320 l 1,15,-1
 128 320 l 1,12,-1
EndSplineSet
Validated: 5
EndChar

StartChar: k
Encoding: 107 107 78
Width: 320
Flags: W
HStem: 0 64<192 256> 64 64<128 192> 192 64<128 192> 256 64<192 256> 428 20G<0 64>
VStem: 0 128<128 192> 0 64<0 128 192 448> 128 64<64 128 192 256> 192 64<0 64 256 320>
LayerCount: 5
Fore
SplineSet
192 0 m 1,0,-1
 192 64 l 1,1,-1
 256 64 l 1,2,-1
 256 0 l 1,3,-1
 192 0 l 1,0,-1
128 64 m 1,4,-1
 128 128 l 1,5,-1
 192 128 l 1,6,-1
 192 64 l 1,7,-1
 128 64 l 1,4,-1
128 192 m 1,8,-1
 128 256 l 1,9,-1
 192 256 l 1,10,-1
 192 192 l 1,11,-1
 128 192 l 1,8,-1
192 256 m 1,12,-1
 192 320 l 1,13,-1
 256 320 l 1,14,-1
 256 256 l 1,15,-1
 192 256 l 1,12,-1
0 0 m 1,16,-1
 0 448 l 1,17,-1
 64 448 l 1,18,-1
 64 192 l 1,19,-1
 128 192 l 1,20,-1
 128 128 l 1,21,-1
 64 128 l 1,22,-1
 64 0 l 1,23,-1
 0 0 l 1,16,-1
EndSplineSet
Validated: 5
EndChar

StartChar: l
Encoding: 108 108 79
Width: 128
Flags: W
HStem: 0 21G<0 64> 428 20G<0 64>
VStem: 0 64<0 448>
LayerCount: 5
Fore
SplineSet
0 0 m 1,0,-1
 0 448 l 1,1,-1
 64 448 l 1,2,-1
 64 0 l 1,3,-1
 0 0 l 1,0,-1
EndSplineSet
Validated: 1
EndChar

StartChar: m
Encoding: 109 109 80
Width: 384
Flags: W
HStem: 0 21G<0 64 128 192 256 320> 256 64<64 128 192 256>
VStem: 0 128<256 320> 0 64<0 256> 128 64<0 256> 192 64<256 320> 256 64<0 256>
LayerCount: 5
Fore
SplineSet
128 0 m 1,0,-1
 128 256 l 1,1,-1
 192 256 l 1,2,-1
 192 0 l 1,3,-1
 128 0 l 1,0,-1
256 0 m 1,4,-1
 256 256 l 1,5,-1
 320 256 l 1,6,-1
 320 0 l 1,7,-1
 256 0 l 1,4,-1
0 0 m 1,8,-1
 0 320 l 1,9,-1
 128 320 l 1,10,-1
 128 256 l 1,11,-1
 64 256 l 1,12,-1
 64 0 l 1,13,-1
 0 0 l 1,8,-1
192 256 m 1,14,-1
 192 320 l 1,15,-1
 256 320 l 1,16,-1
 256 256 l 1,17,-1
 192 256 l 1,14,-1
EndSplineSet
Validated: 5
EndChar

StartChar: n
Encoding: 110 110 81
Width: 384
Flags: W
LayerCount: 5
Fore
SplineSet
256 0 m 1,0,-1
 256 256 l 1,1,-1
 320 256 l 1,2,-1
 320 0 l 1,3,-1
 256 0 l 1,0,-1
0 0 m 1,4,-1
 0 320 l 1,5,-1
 256 320 l 1,6,-1
 256 256 l 1,7,-1
 64 256 l 1,8,-1
 64 0 l 1,9,-1
 0 0 l 1,4,-1
EndSplineSet
Validated: 5
EndChar

StartChar: o
Encoding: 111 111 82
Width: 384
Flags: W
LayerCount: 5
Fore
SplineSet
64 0 m 1,0,-1
 64 64 l 1,1,-1
 256 64 l 1,2,-1
 256 0 l 1,3,-1
 64 0 l 1,0,-1
0 64 m 1,4,-1
 0 256 l 1,5,-1
 64 256 l 1,6,-1
 64 64 l 1,7,-1
 0 64 l 1,4,-1
256 64 m 1,8,-1
 256 256 l 1,9,-1
 320 256 l 1,10,-1
 320 64 l 1,11,-1
 256 64 l 1,8,-1
64 256 m 1,12,-1
 64 320 l 1,13,-1
 256 320 l 1,14,-1
 256 256 l 1,15,-1
 64 256 l 1,12,-1
EndSplineSet
Validated: 5
EndChar

StartChar: p
Encoding: 112 112 83
Width: 384
Flags: W
LayerCount: 5
Fore
SplineSet
256 64 m 1,0,-1
 256 256 l 1,1,-1
 320 256 l 1,2,-1
 320 64 l 1,3,-1
 256 64 l 1,0,-1
0 -192 m 1,4,-1
 0 320 l 1,5,-1
 256 320 l 1,6,-1
 256 256 l 1,7,-1
 64 256 l 1,8,-1
 64 64 l 1,9,-1
 256 64 l 1,10,-1
 256 0 l 1,11,-1
 64 0 l 1,12,-1
 64 -192 l 1,13,-1
 0 -192 l 1,4,-1
EndSplineSet
Validated: 5
EndChar

StartChar: q
Encoding: 113 113 84
Width: 384
Flags: W
LayerCount: 5
Fore
SplineSet
0 64 m 1,0,-1
 0 256 l 1,1,-1
 64 256 l 1,2,-1
 64 64 l 1,3,-1
 0 64 l 1,0,-1
256 -192 m 1,4,-1
 256 0 l 1,5,-1
 64 0 l 1,6,-1
 64 64 l 1,7,-1
 256 64 l 1,8,-1
 256 256 l 1,9,-1
 64 256 l 1,10,-1
 64 320 l 1,11,-1
 320 320 l 1,12,-1
 320 -192 l 1,13,-1
 256 -192 l 1,4,-1
EndSplineSet
Validated: 5
EndChar

StartChar: r
Encoding: 114 114 85
Width: 384
Flags: W
LayerCount: 5
Fore
SplineSet
256 192 m 1,0,-1
 256 256 l 1,1,-1
 320 256 l 1,2,-1
 320 192 l 1,3,-1
 256 192 l 1,0,-1
0 0 m 1,4,-1
 0 320 l 1,5,-1
 256 320 l 1,6,-1
 256 256 l 1,7,-1
 64 256 l 1,8,-1
 64 0 l 1,9,-1
 0 0 l 1,4,-1
EndSplineSet
Validated: 5
EndChar

StartChar: s
Encoding: 115 115 86
Width: 384
Flags: W
LayerCount: 5
Fore
SplineSet
0 0 m 1,0,-1
 0 64 l 1,1,-1
 256 64 l 1,2,-1
 256 0 l 1,3,-1
 0 0 l 1,0,-1
256 64 m 1,4,-1
 256 128 l 1,5,-1
 320 128 l 1,6,-1
 320 64 l 1,7,-1
 256 64 l 1,4,-1
64 128 m 1,8,-1
 64 192 l 1,9,-1
 256 192 l 1,10,-1
 256 128 l 1,11,-1
 64 128 l 1,8,-1
0 192 m 1,12,-1
 0 256 l 1,13,-1
 64 256 l 1,14,-1
 64 192 l 1,15,-1
 0 192 l 1,12,-1
64 256 m 1,16,-1
 64 320 l 1,17,-1
 320 320 l 1,18,-1
 320 256 l 1,19,-1
 64 256 l 1,16,-1
EndSplineSet
Validated: 5
EndChar

StartChar: t
Encoding: 116 116 87
Width: 256
Flags: W
LayerCount: 5
Fore
SplineSet
64 0 m 1,0,-1
 64 256 l 1,1,-1
 0 256 l 1,2,-1
 0 320 l 1,3,-1
 64 320 l 1,4,-1
 64 448 l 1,5,-1
 128 448 l 1,6,-1
 128 320 l 1,7,-1
 192 320 l 1,8,-1
 192 256 l 1,9,-1
 128 256 l 1,10,-1
 128 0 l 1,11,-1
 64 0 l 1,0,-1
EndSplineSet
Validated: 1
EndChar

StartChar: u
Encoding: 117 117 88
Width: 384
Flags: W
LayerCount: 5
Fore
SplineSet
0 64 m 1,0,-1
 0 320 l 1,1,-1
 64 320 l 1,2,-1
 64 64 l 1,3,-1
 0 64 l 1,0,-1
64 0 m 1,4,-1
 64 64 l 1,5,-1
 256 64 l 1,6,-1
 256 320 l 1,7,-1
 320 320 l 1,8,-1
 320 0 l 1,9,-1
 64 0 l 1,4,-1
EndSplineSet
Validated: 5
EndChar

StartChar: v
Encoding: 118 118 89
Width: 384
Flags: W
LayerCount: 5
Fore
SplineSet
128 0 m 1,0,-1
 128 64 l 1,1,-1
 192 64 l 1,2,-1
 192 0 l 1,3,-1
 128 0 l 1,0,-1
64 64 m 1,4,-1
 64 128 l 1,5,-1
 128 128 l 1,6,-1
 128 64 l 1,7,-1
 64 64 l 1,4,-1
192 64 m 1,8,-1
 192 128 l 1,9,-1
 256 128 l 1,10,-1
 256 64 l 1,11,-1
 192 64 l 1,8,-1
0 128 m 1,12,-1
 0 320 l 1,13,-1
 64 320 l 1,14,-1
 64 128 l 1,15,-1
 0 128 l 1,12,-1
256 128 m 1,16,-1
 256 320 l 1,17,-1
 320 320 l 1,18,-1
 320 128 l 1,19,-1
 256 128 l 1,16,-1
EndSplineSet
Validated: 5
EndChar

StartChar: w
Encoding: 119 119 90
Width: 384
Flags: W
LayerCount: 5
Fore
SplineSet
64 0 m 1,0,-1
 64 64 l 1,1,-1
 128 64 l 1,2,-1
 128 0 l 1,3,-1
 64 0 l 1,0,-1
192 0 m 1,4,-1
 192 64 l 1,5,-1
 256 64 l 1,6,-1
 256 0 l 1,7,-1
 192 0 l 1,4,-1
128 64 m 1,8,-1
 128 256 l 1,9,-1
 192 256 l 1,10,-1
 192 64 l 1,11,-1
 128 64 l 1,8,-1
0 64 m 1,12,-1
 0 320 l 1,13,-1
 64 320 l 1,14,-1
 64 64 l 1,15,-1
 0 64 l 1,12,-1
256 64 m 1,16,-1
 256 320 l 1,17,-1
 320 320 l 1,18,-1
 320 64 l 1,19,-1
 256 64 l 1,16,-1
EndSplineSet
Validated: 5
EndChar

StartChar: x
Encoding: 120 120 91
Width: 384
Flags: W
LayerCount: 5
Fore
SplineSet
0 0 m 1,0,-1
 0 64 l 1,1,-1
 64 64 l 1,2,-1
 64 0 l 1,3,-1
 0 0 l 1,0,-1
256 0 m 1,4,-1
 256 64 l 1,5,-1
 320 64 l 1,6,-1
 320 0 l 1,7,-1
 256 0 l 1,4,-1
64 64 m 1,8,-1
 64 128 l 1,9,-1
 128 128 l 1,10,-1
 128 64 l 1,11,-1
 64 64 l 1,8,-1
192 64 m 1,12,-1
 192 128 l 1,13,-1
 256 128 l 1,14,-1
 256 64 l 1,15,-1
 192 64 l 1,12,-1
128 128 m 1,16,-1
 128 192 l 1,17,-1
 192 192 l 1,18,-1
 192 128 l 1,19,-1
 128 128 l 1,16,-1
64 192 m 1,20,-1
 64 256 l 1,21,-1
 128 256 l 1,22,-1
 128 192 l 1,23,-1
 64 192 l 1,20,-1
192 192 m 1,24,-1
 192 256 l 1,25,-1
 256 256 l 1,26,-1
 256 192 l 1,27,-1
 192 192 l 1,24,-1
0 256 m 1,28,-1
 0 320 l 1,29,-1
 64 320 l 1,30,-1
 64 256 l 1,31,-1
 0 256 l 1,28,-1
256 256 m 1,32,-1
 256 320 l 1,33,-1
 320 320 l 1,34,-1
 320 256 l 1,35,-1
 256 256 l 1,32,-1
EndSplineSet
Validated: 5
EndChar

StartChar: y
Encoding: 121 121 92
Width: 384
Flags: W
LayerCount: 5
Fore
SplineSet
64 -192 m 5,0,-1
 64 -128 l 5,1,-1
 256 -128 l 1,2,-1
 256 -192 l 1,3,-1
 64 -192 l 5,0,-1
0 64 m 1,4,-1
 0 320 l 1,5,-1
 64 320 l 1,6,-1
 64 64 l 1,7,-1
 0 64 l 1,4,-1
256 -128 m 1,8,-1
 256 0 l 1,9,-1
 64 0 l 1,10,-1
 64 64 l 1,11,-1
 256 64 l 1,12,-1
 256 320 l 1,13,-1
 320 320 l 1,14,-1
 320 -128 l 1,15,-1
 256 -128 l 1,8,-1
EndSplineSet
Validated: 5
EndChar

StartChar: z
Encoding: 122 122 93
Width: 384
Flags: W
LayerCount: 5
Fore
SplineSet
0 0 m 1,0,-1
 0 64 l 1,1,-1
 64 64 l 1,2,-1
 64 128 l 1,3,-1
 128 128 l 1,4,-1
 128 64 l 1,5,-1
 320 64 l 1,6,-1
 320 0 l 1,7,-1
 0 0 l 1,0,-1
128 128 m 1,8,-1
 128 192 l 1,9,-1
 192 192 l 1,10,-1
 192 128 l 1,11,-1
 128 128 l 1,8,-1
192 192 m 1,12,-1
 192 256 l 1,13,-1
 0 256 l 1,14,-1
 0 320 l 1,15,-1
 320 320 l 1,16,-1
 320 256 l 1,17,-1
 256 256 l 1,18,-1
 256 192 l 1,19,-1
 192 192 l 1,12,-1
EndSplineSet
Validated: 5
EndChar

StartChar: braceleft
Encoding: 123 123 94
Width: 320
Flags: W
LayerCount: 5
Fore
SplineSet
192 0 m 1,0,-1
 192 64 l 1,1,-1
 256 64 l 1,2,-1
 256 0 l 1,3,-1
 192 0 l 1,0,-1
128 64 m 1,4,-1
 128 192 l 1,5,-1
 192 192 l 1,6,-1
 192 64 l 1,7,-1
 128 64 l 1,4,-1
64 192 m 1,8,-1
 64 256 l 1,9,-1
 128 256 l 1,10,-1
 128 192 l 1,11,-1
 64 192 l 1,8,-1
128 256 m 1,12,-1
 128 384 l 1,13,-1
 192 384 l 1,14,-1
 192 256 l 1,15,-1
 128 256 l 1,12,-1
192 384 m 1,16,-1
 192 448 l 1,17,-1
 256 448 l 1,18,-1
 256 384 l 1,19,-1
 192 384 l 1,16,-1
EndSplineSet
Validated: 5
EndChar

StartChar: bar
Encoding: 124 124 95
Width: 256
Flags: W
LayerCount: 5
Fore
SplineSet
128 0 m 1,0,-1
 128 448 l 1,1,-1
 192 448 l 1,2,-1
 192 0 l 1,3,-1
 128 0 l 1,0,-1
EndSplineSet
Validated: 1
EndChar

StartChar: braceright
Encoding: 125 125 96
Width: 320
Flags: W
LayerCount: 5
Fore
SplineSet
64 0 m 1,0,-1
 64 64 l 1,1,-1
 128 64 l 1,2,-1
 128 0 l 1,3,-1
 64 0 l 1,0,-1
128 64 m 1,4,-1
 128 192 l 1,5,-1
 192 192 l 1,6,-1
 192 64 l 1,7,-1
 128 64 l 1,4,-1
192 192 m 1,8,-1
 192 256 l 1,9,-1
 256 256 l 1,10,-1
 256 192 l 1,11,-1
 192 192 l 1,8,-1
128 256 m 1,12,-1
 128 384 l 1,13,-1
 192 384 l 1,14,-1
 192 256 l 1,15,-1
 128 256 l 1,12,-1
64 384 m 1,16,-1
 64 448 l 1,17,-1
 128 448 l 1,18,-1
 128 384 l 1,19,-1
 64 384 l 1,16,-1
EndSplineSet
Validated: 5
EndChar

StartChar: asciitilde
Encoding: 126 126 97
Width: 384
Flags: W
LayerCount: 5
Fore
SplineSet
192 128 m 1,0,-1
 192 192 l 1,1,-1
 256 192 l 1,2,-1
 256 128 l 1,3,-1
 192 128 l 1,0,-1
0 192 m 1,4,-1
 0 256 l 1,5,-1
 64 256 l 1,6,-1
 64 192 l 1,7,-1
 0 192 l 1,4,-1
128 192 m 1,8,-1
 128 256 l 1,9,-1
 192 256 l 1,10,-1
 192 192 l 1,11,-1
 128 192 l 1,8,-1
256 192 m 1,12,-1
 256 256 l 1,13,-1
 320 256 l 1,14,-1
 320 192 l 1,15,-1
 256 192 l 1,12,-1
64 256 m 1,16,-1
 64 320 l 1,17,-1
 128 320 l 1,18,-1
 128 256 l 1,19,-1
 64 256 l 1,16,-1
EndSplineSet
Validated: 5
EndChar

StartChar: quoteleft
Encoding: 8216 8216 98
Width: 128
Flags: W
LayerCount: 5
Fore
SplineSet
0 320 m 1,0,-1
 0 448 l 1,1,-1
 64 448 l 1,2,-1
 64 320 l 1,3,-1
 0 320 l 1,0,-1
EndSplineSet
Validated: 1
EndChar

StartChar: quoteright
Encoding: 8217 8217 99
Width: 128
Flags: W
LayerCount: 5
Fore
SplineSet
0 320 m 1,0,-1
 0 448 l 1,1,-1
 64 448 l 1,2,-1
 64 320 l 1,3,-1
 0 320 l 1,0,-1
EndSplineSet
Validated: 1
EndChar

StartChar: quotedblleft
Encoding: 8220 8220 100
Width: 256
Flags: W
LayerCount: 5
Fore
SplineSet
0 320 m 1,0,-1
 0 448 l 1,1,-1
 64 448 l 1,2,-1
 64 320 l 1,3,-1
 0 320 l 1,0,-1
128 320 m 1,4,-1
 128 448 l 1,5,-1
 192 448 l 1,6,-1
 192 320 l 1,7,-1
 128 320 l 1,4,-1
EndSplineSet
Validated: 1
EndChar

StartChar: quotedblright
Encoding: 8221 8221 101
Width: 256
Flags: W
LayerCount: 5
Fore
SplineSet
0 320 m 1,0,-1
 0 448 l 1,1,-1
 64 448 l 1,2,-1
 64 320 l 1,3,-1
 0 320 l 1,0,-1
128 320 m 1,4,-1
 128 448 l 1,5,-1
 192 448 l 1,6,-1
 192 320 l 1,7,-1
 128 320 l 1,4,-1
EndSplineSet
Validated: 1
EndChar

StartChar: uni0410
Encoding: 1040 1040 102
Width: 384
Flags: W
LayerCount: 5
Fore
SplineSet
0 0 m 1,0,-1
 0 320 l 1,1,-1
 64 320 l 1,2,-1
 64 256 l 1,3,-1
 256 256 l 1,4,-1
 256 320 l 1,5,-1
 320 320 l 1,6,-1
 320 0 l 1,7,-1
 256 0 l 1,8,-1
 256 192 l 1,9,-1
 64 192 l 1,10,-1
 64 0 l 1,11,-1
 0 0 l 1,0,-1
64 320 m 1,12,-1
 64 384 l 1,13,-1
 128 384 l 1,14,-1
 128 320 l 1,15,-1
 64 320 l 1,12,-1
192 320 m 1,16,-1
 192 384 l 1,17,-1
 256 384 l 1,18,-1
 256 320 l 1,19,-1
 192 320 l 1,16,-1
128 384 m 1,20,-1
 128 448 l 1,21,-1
 192 448 l 1,22,-1
 192 384 l 1,23,-1
 128 384 l 1,20,-1
EndSplineSet
Validated: 5
EndChar

StartChar: uni0411
Encoding: 1041 1041 103
Width: 384
Flags: W
LayerCount: 5
Fore
SplineSet
256 64 m 1,0,-1
 256 192 l 1,1,-1
 320 192 l 1,2,-1
 320 64 l 1,3,-1
 256 64 l 1,0,-1
0 0 m 1,4,-1
 0 448 l 1,5,-1
 256 448 l 1,6,-1
 256 384 l 5,7,-1
 64 384 l 1,8,-1
 64 256 l 1,9,-1
 256 256 l 1,10,-1
 256 192 l 1,11,-1
 64 192 l 1,12,-1
 64 64 l 1,13,-1
 256 64 l 1,14,-1
 256 0 l 1,15,-1
 0 0 l 1,4,-1
EndSplineSet
Validated: 5
EndChar

StartChar: uni0412
Encoding: 1042 1042 104
Width: 384
Flags: W
LayerCount: 5
Fore
SplineSet
256 64 m 1,0,-1
 256 192 l 1,1,-1
 320 192 l 1,2,-1
 320 64 l 1,3,-1
 256 64 l 1,0,-1
256 256 m 1,4,-1
 256 384 l 1,5,-1
 320 384 l 1,6,-1
 320 256 l 1,7,-1
 256 256 l 1,4,-1
0 0 m 1,8,-1
 0 448 l 1,9,-1
 256 448 l 1,10,-1
 256 384 l 1,11,-1
 64 384 l 1,12,-1
 64 256 l 1,13,-1
 256 256 l 1,14,-1
 256 192 l 1,15,-1
 64 192 l 1,16,-1
 64 64 l 1,17,-1
 256 64 l 1,18,-1
 256 0 l 1,19,-1
 0 0 l 1,8,-1
EndSplineSet
Validated: 5
EndChar

StartChar: uni0413
Encoding: 1043 1043 105
Width: 384
Flags: W
LayerCount: 5
Fore
SplineSet
0 0 m 1,0,-1
 0 448 l 1,1,-1
 320 448 l 1,2,-1
 320 384 l 1,3,-1
 64 384 l 5,4,-1
 64 0 l 5,5,-1
 0 0 l 1,0,-1
EndSplineSet
Validated: 1
EndChar

StartChar: uni0415
Encoding: 1045 1045 106
Width: 384
Flags: W
HStem: 0 64<64 320> 192 64<64 256> 384 64<64 320>
VStem: 0 64<64 192 256 384>
CounterMasks: 1 e0
LayerCount: 5
Fore
SplineSet
0 0 m 1,0,-1
 0 448 l 1,1,-1
 320 448 l 1,2,-1
 320 384 l 1,3,-1
 64 384 l 1,4,-1
 64 256 l 1,5,-1
 256 256 l 1,6,-1
 256 192 l 1,7,-1
 64 192 l 1,8,-1
 64 64 l 1,9,-1
 320 64 l 1,10,-1
 320 0 l 1,11,-1
 0 0 l 1,0,-1
EndSplineSet
Validated: 1
EndChar

StartChar: uni0401
Encoding: 1025 1025 107
Width: 384
Flags: W
LayerCount: 5
Fore
SplineSet
192 575 m 29,0,-1
 256 575 l 29,1,-1
 256 511 l 29,2,-1
 192 511 l 29,3,-1
 192 575 l 29,0,-1
64 575 m 29,4,-1
 128 575 l 29,5,-1
 128 511 l 29,6,-1
 64 511 l 29,7,-1
 64 575 l 29,4,-1
0 0 m 1,8,-1
 0 448 l 1,9,-1
 320 448 l 1,10,-1
 320 384 l 1,11,-1
 64 384 l 1,12,-1
 64 256 l 1,13,-1
 256 256 l 1,14,-1
 256 192 l 1,15,-1
 64 192 l 1,16,-1
 64 64 l 1,17,-1
 320 64 l 1,18,-1
 320 0 l 1,19,-1
 0 0 l 1,8,-1
EndSplineSet
Validated: 1
EndChar

StartChar: uni0417
Encoding: 1047 1047 108
Width: 384
Flags: W
LayerCount: 5
Fore
SplineSet
64 0 m 1,0,-1
 64 64 l 1,1,-1
 256 64 l 1,2,-1
 256 0 l 1,3,-1
 64 0 l 1,0,-1
0 64 m 1,4,-1
 0 128 l 1,5,-1
 64 128 l 1,6,-1
 64 64 l 1,7,-1
 0 64 l 1,4,-1
256 64 m 1,8,-1
 256 192 l 1,9,-1
 320 192 l 1,10,-1
 320 64 l 1,11,-1
 256 64 l 1,8,-1
64 192 m 1,12,-1
 64 256 l 1,13,-1
 256 256 l 1,14,-1
 256 192 l 1,15,-1
 64 192 l 1,12,-1
0 320 m 1,16,-1
 0 384 l 1,17,-1
 64 384 l 1,18,-1
 64 320 l 1,19,-1
 0 320 l 1,16,-1
256 256 m 1,20,-1
 256 384 l 1,21,-1
 320 384 l 1,22,-1
 320 256 l 1,23,-1
 256 256 l 1,20,-1
64 384 m 1,24,-1
 64 448 l 1,25,-1
 256 448 l 1,26,-1
 256 384 l 1,27,-1
 64 384 l 1,24,-1
EndSplineSet
Validated: 5
EndChar

StartChar: uni0418
Encoding: 1048 1048 109
Width: 384
Flags: W
LayerCount: 5
Fore
SplineSet
192 192 m 1,0,-1
 192 256 l 1,1,-1
 128 256 l 1,2,-1
 128 192 l 1,3,-1
 192 192 l 1,0,-1
320 0 m 1,4,-1
 320 448 l 1,5,-1
 256 448 l 1,6,-1
 256 320 l 1,7,-1
 192 320 l 1,8,-1
 192 256 l 1,9,-1
 256 256 l 1,10,-1
 256 0 l 1,11,-1
 320 0 l 1,4,-1
64 0 m 1,12,-1
 64 128 l 1,13,-1
 128 128 l 1,14,-1
 128 192 l 1,15,-1
 64 192 l 1,16,-1
 64 448 l 1,17,-1
 0 448 l 1,18,-1
 0 0 l 1,19,-1
 64 0 l 1,12,-1
EndSplineSet
Validated: 5
EndChar

StartChar: uni0419
Encoding: 1049 1049 110
Width: 384
Flags: W
LayerCount: 5
Fore
SplineSet
128 512 m 29,0,-1
 192 512 l 29,1,-1
 192 448 l 29,2,-1
 128 448 l 29,3,-1
 128 512 l 29,0,-1
192 192 m 1,4,-1
 192 256 l 1,5,-1
 128 256 l 1,6,-1
 128 192 l 1,7,-1
 192 192 l 1,4,-1
320 0 m 1,8,-1
 320 448 l 1,9,-1
 256 448 l 1,10,-1
 256 320 l 1,11,-1
 192 320 l 1,12,-1
 192 256 l 1,13,-1
 256 256 l 1,14,-1
 256 0 l 1,15,-1
 320 0 l 1,8,-1
64 0 m 1,16,-1
 64 128 l 1,17,-1
 128 128 l 1,18,-1
 128 192 l 1,19,-1
 64 192 l 1,20,-1
 64 448 l 1,21,-1
 0 448 l 1,22,-1
 0 0 l 1,23,-1
 64 0 l 1,16,-1
EndSplineSet
Validated: 5
EndChar

StartChar: uni041A
Encoding: 1050 1050 111
Width: 384
Flags: W
LayerCount: 5
Fore
SplineSet
256 0 m 1,0,-1
 256 64 l 1,1,-1
 320 64 l 1,2,-1
 320 0 l 1,3,-1
 256 0 l 1,0,-1
192 64 m 1,4,-1
 192 128 l 1,5,-1
 256 128 l 1,6,-1
 256 64 l 1,7,-1
 192 64 l 1,4,-1
128 128 m 1,8,-1
 128 192 l 1,9,-1
 192 192 l 1,10,-1
 192 128 l 1,11,-1
 128 128 l 1,8,-1
128 256 m 1,12,-1
 128 320 l 1,13,-1
 192 320 l 1,14,-1
 192 256 l 1,15,-1
 128 256 l 1,12,-1
192 320 m 1,16,-1
 192 384 l 1,17,-1
 256 384 l 1,18,-1
 256 320 l 1,19,-1
 192 320 l 1,16,-1
0 0 m 1,20,-1
 0 448 l 1,21,-1
 64 448 l 1,22,-1
 64 256 l 1,23,-1
 128 256 l 1,24,-1
 128 192 l 1,25,-1
 64 192 l 1,26,-1
 64 0 l 1,27,-1
 0 0 l 1,20,-1
256 384 m 1,28,-1
 256 448 l 1,29,-1
 320 448 l 1,30,-1
 320 384 l 1,31,-1
 256 384 l 1,28,-1
EndSplineSet
Validated: 5
EndChar

StartChar: uni041C
Encoding: 1052 1052 112
Width: 384
Flags: W
LayerCount: 5
Fore
SplineSet
128 192 m 1,0,-1
 128 256 l 1,1,-1
 192 256 l 1,2,-1
 192 192 l 1,3,-1
 128 192 l 1,0,-1
0 0 m 1,4,-1
 0 448 l 1,5,-1
 64 448 l 1,6,-1
 64 320 l 1,7,-1
 128 320 l 1,8,-1
 128 256 l 1,9,-1
 64 256 l 1,10,-1
 64 0 l 1,11,-1
 0 0 l 1,4,-1
256 0 m 1,12,-1
 256 256 l 1,13,-1
 192 256 l 1,14,-1
 192 320 l 1,15,-1
 256 320 l 1,16,-1
 256 448 l 1,17,-1
 320 448 l 1,18,-1
 320 0 l 1,19,-1
 256 0 l 1,12,-1
EndSplineSet
Validated: 5
EndChar

StartChar: uni041D
Encoding: 1053 1053 113
Width: 384
Flags: W
LayerCount: 5
Fore
SplineSet
0 0 m 1,0,-1
 0 448 l 1,1,-1
 64 448 l 1,2,-1
 64 256 l 1,3,-1
 256 256 l 1,4,-1
 256 448 l 1,5,-1
 320 448 l 1,6,-1
 320 0 l 1,7,-1
 256 0 l 1,8,-1
 256 192 l 1,9,-1
 64 192 l 1,10,-1
 64 0 l 1,11,-1
 0 0 l 1,0,-1
EndSplineSet
Validated: 1
EndChar

StartChar: uni041E
Encoding: 1054 1054 114
Width: 384
Flags: W
LayerCount: 5
Fore
SplineSet
64 0 m 1,0,-1
 64 64 l 1,1,-1
 256 64 l 1,2,-1
 256 0 l 1,3,-1
 64 0 l 1,0,-1
0 64 m 1,4,-1
 0 384 l 1,5,-1
 64 384 l 1,6,-1
 64 64 l 1,7,-1
 0 64 l 1,4,-1
256 64 m 1,8,-1
 256 384 l 1,9,-1
 320 384 l 1,10,-1
 320 64 l 1,11,-1
 256 64 l 1,8,-1
64 384 m 1,12,-1
 64 448 l 1,13,-1
 256 448 l 1,14,-1
 256 384 l 1,15,-1
 64 384 l 1,12,-1
EndSplineSet
Validated: 5
EndChar

StartChar: uni041F
Encoding: 1055 1055 115
Width: 384
Flags: W
LayerCount: 5
Fore
SplineSet
0 0 m 1,0,-1
 0 448 l 1,1,-1
 320 448 l 1,2,-1
 320 0 l 1,3,-1
 256 0 l 1,4,-1
 256 384 l 1,5,-1
 66 384 l 1,6,-1
 64 0 l 1,7,-1
 0 0 l 1,0,-1
EndSplineSet
Validated: 1
EndChar

StartChar: uni0420
Encoding: 1056 1056 116
Width: 384
Flags: W
LayerCount: 5
Fore
SplineSet
256 256 m 1,0,-1
 256 384 l 1,1,-1
 320 384 l 1,2,-1
 320 256 l 1,3,-1
 256 256 l 1,0,-1
0 0 m 1,4,-1
 0 448 l 1,5,-1
 256 448 l 1,6,-1
 256 384 l 1,7,-1
 64 384 l 1,8,-1
 64 256 l 1,9,-1
 256 256 l 1,10,-1
 256 192 l 1,11,-1
 64 192 l 1,12,-1
 64 0 l 1,13,-1
 0 0 l 1,4,-1
EndSplineSet
Validated: 5
EndChar

StartChar: uni0421
Encoding: 1057 1057 117
Width: 384
Flags: W
LayerCount: 5
Fore
SplineSet
64 0 m 1,0,-1
 64 64 l 1,1,-1
 256 64 l 1,2,-1
 256 0 l 1,3,-1
 64 0 l 1,0,-1
256 64 m 1,4,-1
 256 128 l 1,5,-1
 320 128 l 1,6,-1
 320 64 l 1,7,-1
 256 64 l 1,4,-1
0 64 m 1,8,-1
 0 384 l 1,9,-1
 64 384 l 1,10,-1
 64 64 l 1,11,-1
 0 64 l 1,8,-1
256 320 m 1,12,-1
 256 384 l 1,13,-1
 320 384 l 1,14,-1
 320 320 l 1,15,-1
 256 320 l 1,12,-1
64 384 m 1,16,-1
 64 448 l 1,17,-1
 256 448 l 1,18,-1
 256 384 l 1,19,-1
 64 384 l 1,16,-1
EndSplineSet
Validated: 5
EndChar

StartChar: uni0422
Encoding: 1058 1058 118
Width: 384
Flags: W
LayerCount: 5
Fore
SplineSet
128 0 m 1,0,-1
 128 384 l 1,1,-1
 0 384 l 1,2,-1
 0 448 l 1,3,-1
 320 448 l 1,4,-1
 320 384 l 1,5,-1
 192 384 l 1,6,-1
 192 0 l 1,7,-1
 128 0 l 1,0,-1
EndSplineSet
Validated: 1
EndChar

StartChar: uni0423
Encoding: 1059 1059 119
Width: 384
Flags: W
LayerCount: 5
Fore
SplineSet
64 0 m 1,0,-1
 64 64 l 1,1,-1
 256 64 l 1,2,-1
 256 0 l 1,3,-1
 64 0 l 1,0,-1
64 196 m 1,4,-1
 64 256 l 1,5,-1
 256 256 l 1,6,-1
 256 196 l 1,7,-1
 64 196 l 1,4,-1
0 256 m 1,8,-1
 0 448 l 1,9,-1
 64 448 l 1,10,-1
 64 256 l 1,11,-1
 0 256 l 1,8,-1
256 64 m 1,12,-1
 256 448 l 1,13,-1
 320 448 l 1,14,-1
 320 64 l 1,15,-1
 256 64 l 1,12,-1
EndSplineSet
Validated: 5
EndChar

StartChar: uni0425
Encoding: 1061 1061 120
Width: 384
Flags: W
LayerCount: 5
Fore
SplineSet
0 0 m 1,0,-1
 0 128 l 1,1,-1
 64 128 l 1,2,-1
 64 0 l 1,3,-1
 0 0 l 1,0,-1
256 0 m 1,4,-1
 256 128 l 1,5,-1
 320 128 l 1,6,-1
 320 0 l 1,7,-1
 256 0 l 1,4,-1
64 128 m 1,8,-1
 64 192 l 1,9,-1
 128 192 l 1,10,-1
 128 128 l 1,11,-1
 64 128 l 1,8,-1
192 128 m 1,12,-1
 192 192 l 1,13,-1
 256 192 l 1,14,-1
 256 128 l 1,15,-1
 192 128 l 1,12,-1
128 192 m 1,16,-1
 128 256 l 1,17,-1
 192 256 l 1,18,-1
 192 192 l 1,19,-1
 128 192 l 1,16,-1
64 256 m 1,20,-1
 64 320 l 1,21,-1
 128 320 l 1,22,-1
 128 256 l 1,23,-1
 64 256 l 1,20,-1
192 256 m 1,24,-1
 192 320 l 1,25,-1
 256 320 l 1,26,-1
 256 256 l 1,27,-1
 192 256 l 1,24,-1
0 320 m 1,28,-1
 0 448 l 1,29,-1
 64 448 l 1,30,-1
 64 320 l 1,31,-1
 0 320 l 1,28,-1
256 320 m 1,32,-1
 256 448 l 1,33,-1
 320 448 l 1,34,-1
 320 320 l 1,35,-1
 256 320 l 1,32,-1
EndSplineSet
Validated: 5
EndChar

StartChar: uni0427
Encoding: 1063 1063 121
Width: 320
Flags: W
LayerCount: 5
Fore
SplineSet
192 0 m 1,0,-1
 192 192 l 1,1,-1
 0 192 l 1,2,-1
 0 448 l 1,3,-1
 64 448 l 1,4,-1
 64 256 l 1,5,-1
 192 256 l 1,6,-1
 192 448 l 1,7,-1
 256 448 l 1,8,-1
 256 0 l 1,9,-1
 192 0 l 1,0,-1
EndSplineSet
Validated: 1
EndChar

StartChar: uni0428
Encoding: 1064 1064 122
Width: 384
Flags: W
LayerCount: 5
Fore
SplineSet
64 0 m 1,0,-1
 64 64 l 1,1,-1
 128 64 l 1,2,-1
 128 0 l 1,3,-1
 64 0 l 1,0,-1
192 0 m 1,4,-1
 192 64 l 1,5,-1
 256 64 l 1,6,-1
 256 0 l 1,7,-1
 192 0 l 1,4,-1
128 0 m 1,8,-1
 128 384 l 1,9,-1
 192 384 l 1,10,-1
 192 0 l 1,11,-1
 128 0 l 1,8,-1
0 0 m 1,12,-1
 0 448 l 1,13,-1
 64 448 l 5,14,-1
 64 0 l 1,15,-1
 0 0 l 1,12,-1
256 0 m 1,16,-1
 256 448 l 1,17,-1
 320 448 l 1,18,-1
 320 0 l 1,19,-1
 256 0 l 1,16,-1
EndSplineSet
Validated: 5
EndChar

StartChar: uni0429
Encoding: 1065 1065 123
Width: 448
Flags: W
LayerCount: 5
Fore
SplineSet
384 64 m 1,0,-1
 384 -64 l 1,1,-1
 320 -64 l 1,2,-1
 320 64 l 1,3,-1
 384 64 l 1,0,-1
64 0 m 1,4,-1
 64 64 l 1,5,-1
 128 64 l 1,6,-1
 128 0 l 1,7,-1
 64 0 l 1,4,-1
192 0 m 1,8,-1
 192 64 l 1,9,-1
 256 64 l 1,10,-1
 256 0 l 1,11,-1
 192 0 l 1,8,-1
128 0 m 1,12,-1
 128 384 l 1,13,-1
 192 384 l 1,14,-1
 192 0 l 1,15,-1
 128 0 l 1,12,-1
0 0 m 1,16,-1
 0 448 l 1,17,-1
 64 448 l 1,18,-1
 64 0 l 1,19,-1
 0 0 l 1,16,-1
256 0 m 1,20,-1
 256 448 l 1,21,-1
 320 448 l 1,22,-1
 320 62 l 1,23,-1
 320 0 l 1,24,-1
 256 0 l 1,20,-1
EndSplineSet
Validated: 5
EndChar

StartChar: uni042F
Encoding: 1071 1071 124
Width: 384
Flags: W
LayerCount: 5
Fore
SplineSet
64 0 m 1,0,-1
 64 192 l 1,1,-1
 0 192 l 1,2,-1
 0 0 l 1,3,-1
 64 0 l 1,0,-1
64 256 m 1,4,-1
 64 384 l 1,5,-1
 0 384 l 1,6,-1
 0 256 l 1,7,-1
 64 256 l 1,4,-1
320 0 m 1,8,-1
 320 448 l 1,9,-1
 64 448 l 1,10,-1
 64 384 l 1,11,-1
 256 384 l 1,12,-1
 256 256 l 1,13,-1
 64 256 l 1,14,-1
 64 192 l 1,15,-1
 256 192 l 1,16,-1
 256 0 l 1,17,-1
 320 0 l 1,8,-1
EndSplineSet
Validated: 5
EndChar

StartChar: uni042C
Encoding: 1068 1068 125
Width: 320
Flags: W
LayerCount: 5
Fore
SplineSet
196 64 m 1,0,-1
 196 192 l 1,1,-1
 260 192 l 1,2,-1
 260 64 l 1,3,-1
 196 64 l 1,0,-1
0 0 m 1,4,-1
 0 448 l 1,5,-1
 64 448 l 1,6,-1
 64 256 l 1,7,-1
 196 256 l 1,8,-1
 196 192 l 1,9,-1
 64 192 l 1,10,-1
 64 64 l 1,11,-1
 196 64 l 1,12,-1
 196 0 l 1,13,-1
 0 0 l 1,4,-1
EndSplineSet
Validated: 5
EndChar

StartChar: uni042B
Encoding: 1067 1067 126
Width: 448
Flags: W
LayerCount: 5
Fore
SplineSet
320 448 m 1,0,-1
 384 448 l 1,1,-1
 384 0 l 1,2,-1
 320 0 l 1,3,-1
 320 448 l 1,0,-1
196 64 m 1,4,-1
 196 192 l 1,5,-1
 260 192 l 1,6,-1
 260 64 l 1,7,-1
 196 64 l 1,4,-1
0 0 m 1,8,-1
 0 448 l 1,9,-1
 64 448 l 1,10,-1
 64 256 l 1,11,-1
 196 256 l 1,12,-1
 196 192 l 1,13,-1
 64 192 l 1,14,-1
 64 64 l 1,15,-1
 196 64 l 1,16,-1
 196 0 l 1,17,-1
 0 0 l 1,8,-1
EndSplineSet
Validated: 5
EndChar

StartChar: uni042A
Encoding: 1066 1066 127
Width: 384
Flags: W
LayerCount: 5
Fore
SplineSet
0 448 m 1,0,-1
 64 448 l 1,1,-1
 64 384 l 1,2,-1
 0 384 l 1,3,-1
 0 448 l 1,0,-1
260 64 m 1,4,-1
 260 192 l 1,5,-1
 324 192 l 1,6,-1
 324 64 l 1,7,-1
 260 64 l 1,4,-1
64 0 m 1,8,-1
 64 448 l 1,9,-1
 128 448 l 1,10,-1
 128 256 l 1,11,-1
 260 256 l 1,12,-1
 260 192 l 1,13,-1
 128 192 l 1,14,-1
 128 64 l 1,15,-1
 260 64 l 1,16,-1
 260 0 l 1,17,-1
 64 0 l 1,8,-1
EndSplineSet
Validated: 5
EndChar

StartChar: uni042D
Encoding: 1069 1069 128
Width: 384
Flags: W
LayerCount: 5
Fore
SplineSet
256 384 m 1025,0,-1
64 384 m 1025,1,-1
256 192 m 1,2,-1
 256 256 l 1,3,-1
 64 256 l 5,4,-1
 64 192 l 1,5,-1
 256 192 l 1,2,-1
256 0 m 1,6,-1
 256 64 l 1,7,-1
 64 64 l 1,8,-1
 64 0 l 1,9,-1
 256 0 l 1,6,-1
64 64 m 1,10,-1
 64 128 l 1,11,-1
 0 128 l 1,12,-1
 0 64 l 1,13,-1
 64 64 l 1,10,-1
320 64 m 1,14,-1
 320 384 l 1,15,-1
 256 384 l 1,16,-1
 256 64 l 1,17,-1
 320 64 l 1,14,-1
64 320 m 1,18,-1
 64 384 l 1,19,-1
 0 384 l 1,20,-1
 0 320 l 1,21,-1
 64 320 l 1,18,-1
256 384 m 1,22,-1
 256 448 l 1,23,-1
 64 448 l 1,24,-1
 64 384 l 1,25,-1
 256 384 l 1,22,-1
EndSplineSet
Validated: 5
EndChar

StartChar: uni042E
Encoding: 1070 1070 129
Width: 448
Flags: W
LayerCount: 5
Fore
SplineSet
64 256 m 1,0,-1
 128 256 l 1,1,-1
 128 192 l 1,2,-1
 64 192 l 1,3,-1
 64 256 l 1,0,-1
0 448 m 1,4,-1
 64 448 l 1,5,-1
 64 0 l 1,6,-1
 0 0 l 1,7,-1
 0 448 l 1,4,-1
192 0 m 1,8,-1
 192 64 l 1,9,-1
 320 64 l 1,10,-1
 320 0 l 1,11,-1
 192 0 l 1,8,-1
128 64 m 1,12,-1
 128 384 l 1,13,-1
 192 384 l 1,14,-1
 192 64 l 1,15,-1
 128 64 l 1,12,-1
320 64 m 1,16,-1
 320 384 l 1,17,-1
 384 384 l 1,18,-1
 384 64 l 1,19,-1
 320 64 l 1,16,-1
192 384 m 1,20,-1
 192 448 l 1,21,-1
 320 448 l 1,22,-1
 320 384 l 1,23,-1
 192 384 l 1,20,-1
EndSplineSet
Validated: 5
EndChar

StartChar: uni0426
Encoding: 1062 1062 130
Width: 448
Flags: W
LayerCount: 5
Fore
SplineSet
320 64 m 1,0,-1
 384 64 l 1,1,-1
 384 -64 l 1,2,-1
 320 -64 l 1,3,-1
 320 64 l 1,0,-1
0 448 m 1,4,-1
 0 0 l 1,5,-1
 320 0 l 1,6,-1
 320 448 l 1,7,-1
 256 448 l 1,8,-1
 256 64 l 1,9,-1
 66 64 l 1,10,-1
 64 448 l 1,11,-1
 0 448 l 1,4,-1
EndSplineSet
Validated: 5
EndChar

StartChar: uni0414
Encoding: 1044 1044 131
Width: 448
Flags: W
LayerCount: 5
Fore
SplineSet
0 64 m 1,0,-1
 0 0 l 1,1,-1
 384 0 l 1,2,-1
 384 64 l 1,3,-1
 0 64 l 1,0,-1
320 -64 m 1,4,-1
 320 0 l 1,5,-1
 384 0 l 1,6,-1
 384 -64 l 1,7,-1
 320 -64 l 1,4,-1
0 -64 m 1,8,-1
 0 0 l 1,9,-1
 64 0 l 1,10,-1
 64 -64 l 1,11,-1
 0 -64 l 1,8,-1
64 64 m 1,12,-1
 64 448 l 1,13,-1
 320 448 l 1,14,-1
 320 64 l 1,15,-1
 256 64 l 1,16,-1
 256 384 l 1,17,-1
 128 384 l 1,18,-1
 126 64 l 1,19,-1
 64 64 l 1,12,-1
EndSplineSet
Validated: 5
EndChar

StartChar: uni0416
Encoding: 1046 1046 132
Width: 512
Flags: W
LayerCount: 5
Fore
SplineSet
192 192 m 1,0,-1
 256 192 l 1,1,-1
 256 0 l 1,2,-1
 192 0 l 1,3,-1
 192 192 l 1,0,-1
192 448 m 1,4,-1
 256 448 l 1,5,-1
 256 256 l 1,6,-1
 192 256 l 1,7,-1
 192 448 l 1,4,-1
0 0 m 1,8,-1
 0 128 l 1,9,-1
 64 128 l 1,10,-1
 64 0 l 1,11,-1
 0 0 l 1,8,-1
384 0 m 1,12,-1
 384 128 l 1,13,-1
 448 128 l 1,14,-1
 448 0 l 1,15,-1
 384 0 l 1,12,-1
64 128 m 1,16,-1
 64 192 l 1,17,-1
 128 192 l 1,18,-1
 128 128 l 1,19,-1
 64 128 l 1,16,-1
320 128 m 1,20,-1
 320 192 l 1,21,-1
 384 192 l 1,22,-1
 384 128 l 1,23,-1
 320 128 l 1,20,-1
128 192 m 1,24,-1
 128 256 l 1,25,-1
 320 256 l 1,26,-1
 320 192 l 1,27,-1
 128 192 l 1,24,-1
64 256 m 1,28,-1
 64 320 l 1,29,-1
 128 320 l 1,30,-1
 128 256 l 1,31,-1
 64 256 l 1,28,-1
320 256 m 1,32,-1
 320 320 l 1,33,-1
 384 320 l 1,34,-1
 384 256 l 1,35,-1
 320 256 l 1,32,-1
0 320 m 1,36,-1
 0 448 l 1,37,-1
 64 448 l 1,38,-1
 64 320 l 1,39,-1
 0 320 l 1,36,-1
384 320 m 1,40,-1
 384 448 l 1,41,-1
 448 448 l 1,42,-1
 448 320 l 1,43,-1
 384 320 l 1,40,-1
EndSplineSet
Validated: 5
EndChar

StartChar: uni041B
Encoding: 1051 1051 133
Width: 384
Flags: W
LayerCount: 5
Fore
SplineSet
320 448 m 1,0,-1
 256 448 l 1,1,-1
 256 0 l 1,2,-1
 320 0 l 1,3,-1
 320 448 l 1,0,-1
128 384 m 1,4,-1
 64 384 l 1,5,-1
 64 128 l 1,6,-1
 128 128 l 1,7,-1
 128 384 l 1,4,-1
64 128 m 1,8,-1
 0 128 l 1,9,-1
 0 0 l 1,10,-1
 64 0 l 1,11,-1
 64 128 l 1,8,-1
128 384 m 1,12,-1
 128 448 l 1,13,-1
 256 448 l 1,14,-1
 256 384 l 1,15,-1
 128 384 l 1,12,-1
EndSplineSet
Validated: 5
EndChar

StartChar: uni0424
Encoding: 1060 1060 134
Width: 512
Flags: W
LayerCount: 5
Fore
SplineSet
256 191 m 1025,0,-1
256 191 m 1025,1,-1
192 191 m 25,2,-1
 256 191 l 25,3,-1
 256 0 l 25,4,-1
 192 0 l 25,5,-1
 192 191 l 25,2,-1
192 191 m 1025,6,-1
192 384 m 25,7,-1
 256 384 l 25,8,-1
 256 255 l 25,9,-1
 192 255 l 25,10,-1
 192 384 l 25,7,-1
64 191 m 1,11,-1
 64 255 l 1,12,-1
 384 255 l 1,13,-1
 384 191 l 1,14,-1
 64 191 l 1,11,-1
0 255 m 1,15,-1
 0 384 l 1,16,-1
 64 384 l 1,17,-1
 64 255 l 1,18,-1
 0 255 l 1,15,-1
384 255 m 1,19,-1
 384 384 l 1,20,-1
 448 384 l 1,21,-1
 448 255 l 1,22,-1
 384 255 l 1,19,-1
64 384 m 1,23,-1
 64 448 l 1,24,-1
 384 448 l 1,25,-1
 384 384 l 1,26,-1
 64 384 l 1,23,-1
EndSplineSet
Validated: 5
EndChar

StartChar: uni0430
Encoding: 1072 1072 135
Width: 384
Flags: W
LayerCount: 5
Fore
SplineSet
0 64 m 1,0,-1
 0 128 l 1,1,-1
 64 128 l 1,2,-1
 64 64 l 1,3,-1
 0 64 l 1,0,-1
64 0 m 1,4,-1
 64 64 l 1,5,-1
 256 64 l 1,6,-1
 256 128 l 1,7,-1
 64 128 l 1,8,-1
 64 192 l 1,9,-1
 256 192 l 1,10,-1
 256 256 l 1,11,-1
 320 256 l 1,12,-1
 320 0 l 1,13,-1
 64 0 l 1,4,-1
64 256 m 1,14,-1
 64 320 l 1,15,-1
 256 320 l 1,16,-1
 256 256 l 1,17,-1
 64 256 l 1,14,-1
EndSplineSet
Validated: 5
EndChar

StartChar: uni0431
Encoding: 1073 1073 136
Width: 384
Flags: W
LayerCount: 5
Fore
SplineSet
64 320 m 25,0,-1
 256 320 l 25,1,-1
 256 256 l 25,2,-1
 64 256 l 25,3,-1
 64 320 l 25,0,-1
256 64 m 1,4,-1
 256 128 l 1,5,-1
 320 128 l 1,6,-1
 320 64 l 1,7,-1
 256 64 l 1,4,-1
0 0 m 1,8,-1
 0 256 l 1,9,-1
 64 256 l 1,10,-1
 64 192 l 1,11,-1
 256 192 l 1,12,-1
 256 128 l 1,13,-1
 64 128 l 1,14,-1
 64 64 l 1,15,-1
 256 64 l 1,16,-1
 256 0 l 1,17,-1
 0 0 l 1,8,-1
EndSplineSet
Validated: 5
EndChar

StartChar: uni0432
Encoding: 1074 1074 137
Width: 384
Flags: W
LayerCount: 5
Fore
SplineSet
192 256 m 25,0,-1
 256 256 l 25,1,-1
 256 192 l 25,2,-1
 192 192 l 25,3,-1
 192 256 l 25,0,-1
0 320 m 1,4,-1
 192 320 l 25,5,-1
 192 256 l 1,6,-1
 0 256 l 25,7,-1
 0 320 l 1,4,-1
256 64 m 1,8,-1
 256 128 l 1,9,-1
 320 128 l 1,10,-1
 320 64 l 1,11,-1
 256 64 l 1,8,-1
0 0 m 1,12,-1
 0 256 l 1,13,-1
 64 256 l 1,14,-1
 64 192 l 1,15,-1
 256 192 l 1,16,-1
 256 128 l 1,17,-1
 64 128 l 1,18,-1
 64 64 l 1,19,-1
 256 64 l 1,20,-1
 256 0 l 1,21,-1
 0 0 l 1,12,-1
EndSplineSet
Validated: 5
EndChar

StartChar: uni0433
Encoding: 1075 1075 138
Width: 320
Flags: W
HStem: 0 21G<0 64> 256 64<64 256>
VStem: 0 64<0 256>
LayerCount: 5
Fore
SplineSet
0 0 m 1,0,-1
 0 320 l 1,1,-1
 256 320 l 1,2,-1
 256 256 l 1,3,-1
 64 256 l 1,4,-1
 64 0 l 1,5,-1
 0 0 l 1,0,-1
EndSplineSet
Validated: 1
EndChar

StartChar: uni0435
Encoding: 1077 1077 139
Width: 384
Flags: W
LayerCount: 5
Fore
SplineSet
64 0 m 1,0,-1
 64 64 l 1,1,-1
 320 64 l 1,2,-1
 320 0 l 1,3,-1
 64 0 l 1,0,-1
0 64 m 1,4,-1
 0 256 l 1,5,-1
 64 256 l 1,6,-1
 64 192 l 1,7,-1
 256 192 l 1,8,-1
 256 256 l 1,9,-1
 320 256 l 1,10,-1
 320 128 l 1,11,-1
 64 128 l 1,12,-1
 64 64 l 1,13,-1
 0 64 l 1,4,-1
64 256 m 1,14,-1
 64 320 l 1,15,-1
 256 320 l 1,16,-1
 256 256 l 1,17,-1
 64 256 l 1,14,-1
EndSplineSet
Validated: 5
EndChar

StartChar: uni0451
Encoding: 1105 1105 140
Width: 384
Flags: W
LayerCount: 5
Fore
SplineSet
192 448 m 29,0,-1
 256 448 l 29,1,-1
 256 384 l 29,2,-1
 192 384 l 29,3,-1
 192 448 l 29,0,-1
64 448 m 25,4,-1
 128 448 l 25,5,-1
 128 384 l 25,6,-1
 64 384 l 25,7,-1
 64 448 l 25,4,-1
64 0 m 1,8,-1
 64 64 l 1,9,-1
 320 64 l 1,10,-1
 320 0 l 1,11,-1
 64 0 l 1,8,-1
0 64 m 1,12,-1
 0 256 l 1,13,-1
 64 256 l 1,14,-1
 64 192 l 1,15,-1
 256 192 l 1,16,-1
 256 256 l 1,17,-1
 320 256 l 1,18,-1
 320 128 l 1,19,-1
 64 128 l 1,20,-1
 64 64 l 1,21,-1
 0 64 l 1,12,-1
64 256 m 1,22,-1
 64 320 l 1,23,-1
 256 320 l 1,24,-1
 256 256 l 1,25,-1
 64 256 l 1,22,-1
EndSplineSet
Validated: 5
EndChar

StartChar: uni0441
Encoding: 1089 1089 141
Width: 384
Flags: W
LayerCount: 5
Fore
SplineSet
64 0 m 1,0,-1
 64 64 l 1,1,-1
 256 64 l 1,2,-1
 256 0 l 1,3,-1
 64 0 l 1,0,-1
256 64 m 1,4,-1
 256 128 l 1,5,-1
 320 128 l 1,6,-1
 320 64 l 1,7,-1
 256 64 l 1,4,-1
0 64 m 1,8,-1
 0 256 l 1,9,-1
 64 256 l 1,10,-1
 64 64 l 1,11,-1
 0 64 l 1,8,-1
256 192 m 1,12,-1
 256 256 l 1,13,-1
 320 256 l 1,14,-1
 320 192 l 1,15,-1
 256 192 l 1,12,-1
64 256 m 1,16,-1
 64 320 l 1,17,-1
 256 320 l 1,18,-1
 256 256 l 1,19,-1
 64 256 l 1,16,-1
EndSplineSet
Validated: 5
EndChar

StartChar: uni0440
Encoding: 1088 1088 142
Width: 384
Flags: W
LayerCount: 5
Fore
SplineSet
256 64 m 1,0,-1
 256 256 l 1,1,-1
 320 256 l 1,2,-1
 320 64 l 1,3,-1
 256 64 l 1,0,-1
0 -192 m 1,4,-1
 0 320 l 1,5,-1
 256 320 l 1,6,-1
 256 256 l 1,7,-1
 64 256 l 1,8,-1
 64 64 l 1,9,-1
 256 64 l 1,10,-1
 256 0 l 1,11,-1
 64 0 l 1,12,-1
 64 -192 l 1,13,-1
 0 -192 l 1,4,-1
EndSplineSet
Validated: 5
EndChar

StartChar: uni043A
Encoding: 1082 1082 143
Width: 320
Flags: W
HStem: 0 64<192 256> 64 64<128 192> 192 64<128 192> 256 64<192 256>
VStem: 0 128<128 192> 0 64<0 128 192 320> 128 64<64 128 192 256> 192 64<0 64 256 320>
LayerCount: 5
Fore
SplineSet
192 0 m 1,0,-1
 192 64 l 1,1,-1
 256 64 l 1,2,-1
 256 0 l 1,3,-1
 192 0 l 1,0,-1
128 64 m 1,4,-1
 128 128 l 1,5,-1
 192 128 l 1,6,-1
 192 64 l 1,7,-1
 128 64 l 1,4,-1
128 192 m 1,8,-1
 128 256 l 1,9,-1
 192 256 l 1,10,-1
 192 192 l 1,11,-1
 128 192 l 1,8,-1
192 256 m 1,12,-1
 192 320 l 1,13,-1
 256 320 l 1,14,-1
 256 256 l 1,15,-1
 192 256 l 1,12,-1
0 0 m 1,16,-1
 0 320 l 1,17,-1
 64 320 l 1,18,-1
 64 192 l 1,19,-1
 128 192 l 1,20,-1
 128 128 l 1,21,-1
 64 128 l 1,22,-1
 64 0 l 1,23,-1
 0 0 l 1,16,-1
EndSplineSet
Validated: 5
EndChar

StartChar: uni043F
Encoding: 1087 1087 144
Width: 384
Flags: W
HStem: 0 21G<0 64 256 320> 256 64<64 320>
VStem: 0 64<0 256> 256 64<0 256>
LayerCount: 5
Fore
SplineSet
256 0 m 1,0,-1
 256 256 l 1,1,-1
 320 256 l 1,2,-1
 320 0 l 1,3,-1
 256 0 l 1,0,-1
0 0 m 1,4,-1
 0 320 l 1,5,-1
 320 320 l 1,6,-1
 320 256 l 1,7,-1
 64 256 l 1,8,-1
 64 0 l 1,9,-1
 0 0 l 1,4,-1
EndSplineSet
Validated: 5
EndChar

StartChar: uni043E
Encoding: 1086 1086 145
Width: 384
Flags: W
LayerCount: 5
Fore
SplineSet
64 0 m 1,0,-1
 64 64 l 1,1,-1
 256 64 l 1,2,-1
 256 0 l 1,3,-1
 64 0 l 1,0,-1
0 64 m 1,4,-1
 0 256 l 1,5,-1
 64 256 l 1,6,-1
 64 64 l 1,7,-1
 0 64 l 1,4,-1
256 64 m 1,8,-1
 256 256 l 1,9,-1
 320 256 l 1,10,-1
 320 64 l 1,11,-1
 256 64 l 1,8,-1
64 256 m 1,12,-1
 64 320 l 1,13,-1
 256 320 l 1,14,-1
 256 256 l 1,15,-1
 64 256 l 1,12,-1
EndSplineSet
Validated: 5
EndChar

StartChar: uni0445
Encoding: 1093 1093 146
Width: 384
Flags: W
LayerCount: 5
Fore
SplineSet
0 0 m 1,0,-1
 0 64 l 1,1,-1
 64 64 l 1,2,-1
 64 0 l 1,3,-1
 0 0 l 1,0,-1
256 0 m 1,4,-1
 256 64 l 1,5,-1
 320 64 l 1,6,-1
 320 0 l 1,7,-1
 256 0 l 1,4,-1
64 64 m 1,8,-1
 64 128 l 1,9,-1
 128 128 l 1,10,-1
 128 64 l 1,11,-1
 64 64 l 1,8,-1
192 64 m 1,12,-1
 192 128 l 1,13,-1
 256 128 l 1,14,-1
 256 64 l 1,15,-1
 192 64 l 1,12,-1
128 128 m 1,16,-1
 128 192 l 1,17,-1
 192 192 l 1,18,-1
 192 128 l 1,19,-1
 128 128 l 1,16,-1
64 192 m 1,20,-1
 64 256 l 1,21,-1
 128 256 l 1,22,-1
 128 192 l 1,23,-1
 64 192 l 1,20,-1
192 192 m 1,24,-1
 192 256 l 1,25,-1
 256 256 l 1,26,-1
 256 192 l 1,27,-1
 192 192 l 1,24,-1
0 256 m 1,28,-1
 0 320 l 1,29,-1
 64 320 l 1,30,-1
 64 256 l 1,31,-1
 0 256 l 1,28,-1
256 256 m 1,32,-1
 256 320 l 1,33,-1
 320 320 l 1,34,-1
 320 256 l 1,35,-1
 256 256 l 1,32,-1
EndSplineSet
Validated: 5
EndChar

StartChar: uni0443
Encoding: 1091 1091 147
Width: 384
Flags: W
LayerCount: 5
Fore
SplineSet
64 -192 m 1,0,-1
 64 -128 l 1,1,-1
 256 -128 l 1,2,-1
 256 -192 l 1,3,-1
 64 -192 l 1,0,-1
0 64 m 1,4,-1
 0 320 l 1,5,-1
 64 320 l 1,6,-1
 64 64 l 1,7,-1
 0 64 l 1,4,-1
256 -128 m 1,8,-1
 256 0 l 1,9,-1
 64 0 l 1,10,-1
 64 64 l 1,11,-1
 256 64 l 1,12,-1
 256 320 l 1,13,-1
 320 320 l 1,14,-1
 320 -128 l 1,15,-1
 256 -128 l 1,8,-1
EndSplineSet
Validated: 5
EndChar

StartChar: uni0448
Encoding: 1096 1096 148
Width: 384
Flags: W
LayerCount: 5
Fore
SplineSet
0 0 m 1,0,-1
 0 64 l 1,1,-1
 320 64 l 1,2,-1
 320 0 l 1,3,-1
 0 0 l 1,0,-1
128 64 m 1,4,-1
 128 256 l 1,5,-1
 192 256 l 1,6,-1
 192 64 l 1,7,-1
 128 64 l 1,4,-1
0 64 m 1,8,-1
 0 320 l 1,9,-1
 64 320 l 1,10,-1
 64 64 l 1,11,-1
 0 64 l 1,8,-1
256 64 m 1,12,-1
 256 320 l 1,13,-1
 320 320 l 1,14,-1
 320 64 l 1,15,-1
 256 64 l 1,12,-1
EndSplineSet
Validated: 5
EndChar

StartChar: uni0449
Encoding: 1097 1097 149
Width: 448
Flags: W
LayerCount: 5
Fore
SplineSet
384 0 m 25,0,-1
 320 0 l 25,1,-1
 320 -64 l 25,2,-1
 384 -64 l 25,3,-1
 384 0 l 25,0,-1
0 0 m 1,4,-1
 0 64 l 1,5,-1
 384 64 l 1,6,-1
 384 0 l 1,7,-1
 0 0 l 1,4,-1
128 64 m 1,8,-1
 128 256 l 1,9,-1
 192 256 l 1,10,-1
 192 64 l 1,11,-1
 128 64 l 1,8,-1
0 64 m 1,12,-1
 0 320 l 1,13,-1
 64 320 l 1,14,-1
 64 64 l 1,15,-1
 0 64 l 1,12,-1
256 64 m 1,16,-1
 256 320 l 1,17,-1
 320 320 l 1,18,-1
 320 64 l 1,19,-1
 256 64 l 1,16,-1
EndSplineSet
Validated: 5
EndChar

StartChar: uni0442
Encoding: 1090 1090 150
Width: 320
Flags: W
HStem: 0 21G<96 160> 256 64<0 96 160 256>
VStem: 96 64<0 256>
LayerCount: 5
Fore
SplineSet
96 0 m 1,0,-1
 96 256 l 1,1,-1
 0 256 l 1,2,-1
 0 320 l 1,3,-1
 256 320 l 1,4,-1
 256 256 l 1,5,-1
 160 256 l 1,6,-1
 160 0 l 1,7,-1
 96 0 l 1,0,-1
EndSplineSet
Validated: 1
EndChar

StartChar: uni044D
Encoding: 1101 1101 151
Width: 384
Flags: W
LayerCount: 5
Fore
SplineSet
256 0 m 1,0,-1
 256 64 l 1,1,-1
 64 64 l 1,2,-1
 64 0 l 1,3,-1
 256 0 l 1,0,-1
320 64 m 1,4,-1
 320 256 l 1,5,-1
 256 256 l 1,6,-1
 256 64 l 1,7,-1
 320 64 l 1,4,-1
256 128 m 1,8,-1
 256 192 l 1,9,-1
 128 192 l 1,10,-1
 128 128 l 1,11,-1
 256 128 l 1,8,-1
256 256 m 1,12,-1
 256 320 l 1,13,-1
 64 320 l 1,14,-1
 64 256 l 1,15,-1
 256 256 l 1,12,-1
EndSplineSet
Validated: 5
EndChar

StartChar: uni0434
Encoding: 1076 1076 152
Width: 384
Flags: W
LayerCount: 5
Fore
SplineSet
0 64 m 1,0,-1
 0 0 l 1,1,-1
 320 0 l 1,2,-1
 320 64 l 1,3,-1
 0 64 l 1,0,-1
256 -64 m 1,4,-1
 256 0 l 1,5,-1
 320 0 l 1,6,-1
 320 -64 l 1,7,-1
 256 -64 l 1,4,-1
0 -64 m 1,8,-1
 0 0 l 1,9,-1
 64 0 l 1,10,-1
 64 -64 l 1,11,-1
 0 -64 l 1,8,-1
64 64 m 1,12,-1
 64 320 l 1,13,-1
 256 320 l 1,14,-1
 256 64 l 1,15,-1
 192 64 l 1,16,-1
 192 256 l 1,17,-1
 128 256 l 1,18,-1
 128 64 l 1,19,-1
 64 64 l 1,12,-1
EndSplineSet
Validated: 5
EndChar

StartChar: uni0436
Encoding: 1078 1078 153
Width: 512
Flags: W
LayerCount: 5
Fore
SplineSet
128 128 m 1,0,-1
 128 192 l 1,1,-1
 192 192 l 1,2,-1
 192 128 l 1,3,-1
 128 128 l 1,0,-1
256 128 m 1,4,-1
 256 192 l 1,5,-1
 320 192 l 1,6,-1
 320 128 l 1,7,-1
 256 128 l 1,4,-1
320 192 m 1,8,-1
 320 256 l 1,9,-1
 384 256 l 1,10,-1
 384 192 l 1,11,-1
 320 192 l 1,8,-1
0 0 m 1,12,-1
 0 64 l 1,13,-1
 64 64 l 1,14,-1
 64 0 l 1,15,-1
 0 0 l 1,12,-1
384 0 m 1,16,-1
 384 64 l 1,17,-1
 448 64 l 1,18,-1
 448 0 l 1,19,-1
 384 0 l 1,16,-1
64 64 m 1,20,-1
 64 128 l 1,21,-1
 128 128 l 1,22,-1
 128 64 l 1,23,-1
 64 64 l 1,20,-1
320 64 m 1,24,-1
 320 128 l 1,25,-1
 384 128 l 1,26,-1
 384 64 l 1,27,-1
 320 64 l 1,24,-1
192 0 m 1,28,-1
 192 320 l 1,29,-1
 256 320 l 1,30,-1
 256 0 l 1,31,-1
 192 0 l 1,28,-1
64 192 m 1,32,-1
 64 256 l 1,33,-1
 128 256 l 1,34,-1
 128 192 l 1,35,-1
 64 192 l 1,32,-1
0 256 m 1,36,-1
 0 320 l 1,37,-1
 64 320 l 1,38,-1
 64 256 l 1,39,-1
 0 256 l 1,36,-1
384 256 m 1,40,-1
 384 320 l 1,41,-1
 448 320 l 1,42,-1
 448 256 l 1,43,-1
 384 256 l 1,40,-1
EndSplineSet
Validated: 5
EndChar

StartChar: uni0437
Encoding: 1079 1079 154
Width: 320
Flags: W
LayerCount: 5
Fore
SplineSet
0 64 m 1,0,-1
 192 64 l 25,1,-1
 192 0 l 1,2,-1
 0 0 l 25,3,-1
 0 64 l 1,0,-1
64 192 m 1,4,-1
 192 192 l 25,5,-1
 192 128 l 1,6,-1
 64 128 l 25,7,-1
 64 192 l 1,4,-1
192 256 m 25,8,-1
 256 256 l 25,9,-1
 256 192 l 25,10,-1
 192 192 l 25,11,-1
 192 256 l 25,8,-1
0 320 m 1,12,-1
 192 320 l 25,13,-1
 192 256 l 1,14,-1
 0 256 l 25,15,-1
 0 320 l 1,12,-1
192 64 m 1,16,-1
 192 128 l 1,17,-1
 256 128 l 1,18,-1
 256 64 l 1,19,-1
 192 64 l 1,16,-1
EndSplineSet
Validated: 5
EndChar

StartChar: uni043C
Encoding: 1084 1084 155
Width: 384
Flags: W
LayerCount: 5
Fore
SplineSet
128 128 m 1,0,-1
 128 192 l 1,1,-1
 192 192 l 1,2,-1
 192 128 l 1,3,-1
 128 128 l 1,0,-1
0 0 m 1,4,-1
 0 320 l 1,5,-1
 64 320 l 1,6,-1
 64 256 l 1,7,-1
 128 256 l 1,8,-1
 128 192 l 1,9,-1
 64 192 l 1,10,-1
 64 0 l 1,11,-1
 0 0 l 1,4,-1
256 0 m 1,12,-1
 256 192 l 1,13,-1
 192 192 l 1,14,-1
 192 256 l 1,15,-1
 256 256 l 1,16,-1
 256 320 l 1,17,-1
 320 320 l 1,18,-1
 320 0 l 1,19,-1
 256 0 l 1,12,-1
EndSplineSet
Validated: 5
EndChar

StartChar: uni043D
Encoding: 1085 1085 156
Width: 320
Flags: W
LayerCount: 5
Fore
SplineSet
0 0 m 1,0,-1
 0 320 l 1,1,-1
 64 320 l 1,2,-1
 64 192 l 1,3,-1
 192 192 l 1,4,-1
 192 320 l 1,5,-1
 256 320 l 1,6,-1
 256 0 l 1,7,-1
 192 0 l 1,8,-1
 192 128 l 1,9,-1
 64 128 l 1,10,-1
 64 0 l 1,11,-1
 0 0 l 1,0,-1
EndSplineSet
Validated: 1
EndChar

StartChar: uni044F
Encoding: 1103 1103 157
Width: 320
Flags: W
LayerCount: 5
Fore
SplineSet
64 0 m 1,0,-1
 64 128 l 1,1,-1
 0 128 l 1,2,-1
 0 0 l 1,3,-1
 64 0 l 1,0,-1
64 192 m 1,4,-1
 64 256 l 1,5,-1
 0 256 l 1,6,-1
 0 192 l 1,7,-1
 64 192 l 1,4,-1
256 0 m 1,8,-1
 256 320 l 1,9,-1
 64 320 l 1,10,-1
 64 256 l 1,11,-1
 192 256 l 1,12,-1
 192 192 l 1,13,-1
 64 192 l 1,14,-1
 64 128 l 1,15,-1
 192 128 l 1,16,-1
 192 0 l 1,17,-1
 256 0 l 1,8,-1
EndSplineSet
Validated: 5
EndChar

StartChar: uni044C
Encoding: 1100 1100 158
Width: 320
Flags: W
LayerCount: 5
Fore
SplineSet
64 0 m 1,0,-1
 64 64 l 1,1,-1
 192 64 l 1,2,-1
 192 0 l 1,3,-1
 64 0 l 1,0,-1
0 0 m 1,4,-1
 0 320 l 1,5,-1
 64 320 l 1,6,-1
 64 0 l 1,7,-1
 0 0 l 1,4,-1
192 64 m 1,8,-1
 192 128 l 1,9,-1
 256 128 l 1,10,-1
 256 64 l 1,11,-1
 192 64 l 1,8,-1
64 128 m 1,12,-1
 64 192 l 1,13,-1
 192 192 l 1,14,-1
 192 128 l 1,15,-1
 64 128 l 1,12,-1
EndSplineSet
Validated: 5
EndChar

StartChar: uni044B
Encoding: 1099 1099 159
Width: 448
Flags: W
LayerCount: 5
Fore
SplineSet
320 0 m 1,0,-1
 320 320 l 1,1,-1
 384 320 l 1,2,-1
 384 0 l 1,3,-1
 320 0 l 1,0,-1
64 0 m 1,4,-1
 64 64 l 1,5,-1
 192 64 l 1,6,-1
 192 0 l 1,7,-1
 64 0 l 1,4,-1
0 0 m 1,8,-1
 0 320 l 1,9,-1
 64 320 l 1,10,-1
 64 0 l 1,11,-1
 0 0 l 1,8,-1
192 64 m 1,12,-1
 192 128 l 1,13,-1
 256 128 l 1,14,-1
 256 64 l 1,15,-1
 192 64 l 1,12,-1
64 128 m 1,16,-1
 64 192 l 1,17,-1
 192 192 l 1,18,-1
 192 128 l 1,19,-1
 64 128 l 1,16,-1
EndSplineSet
Validated: 5
EndChar

StartChar: uni044A
Encoding: 1098 1098 160
Width: 384
Flags: W
LayerCount: 5
Fore
SplineSet
0 256 m 1,0,-1
 0 320 l 1,1,-1
 64 320 l 1,2,-1
 64 256 l 1,3,-1
 0 256 l 1,0,-1
128 0 m 1,4,-1
 128 64 l 1,5,-1
 256 64 l 1,6,-1
 256 0 l 1,7,-1
 128 0 l 1,4,-1
64 0 m 1,8,-1
 64 320 l 1,9,-1
 128 320 l 1,10,-1
 128 0 l 1,11,-1
 64 0 l 1,8,-1
256 64 m 1,12,-1
 256 128 l 1,13,-1
 320 128 l 1,14,-1
 320 64 l 1,15,-1
 256 64 l 1,12,-1
128 128 m 1,16,-1
 128 192 l 1,17,-1
 256 192 l 1,18,-1
 256 128 l 1,19,-1
 128 128 l 1,16,-1
EndSplineSet
Validated: 5
EndChar

StartChar: uni044E
Encoding: 1102 1102 161
Width: 448
Flags: W
LayerCount: 5
Fore
SplineSet
0 0 m 1,0,-1
 0 320 l 1,1,-1
 64 320 l 1,2,-1
 64 0 l 1,3,-1
 0 0 l 1,0,-1
64 128 m 1,4,-1
 64 192 l 1,5,-1
 128 192 l 1,6,-1
 128 128 l 1,7,-1
 64 128 l 1,4,-1
192 0 m 1,8,-1
 192 64 l 1,9,-1
 320 64 l 1,10,-1
 320 0 l 1,11,-1
 192 0 l 1,8,-1
128 64 m 1,12,-1
 128 256 l 1,13,-1
 192 256 l 1,14,-1
 192 64 l 1,15,-1
 128 64 l 1,12,-1
320 64 m 1,16,-1
 320 256 l 1,17,-1
 384 256 l 1,18,-1
 384 64 l 1,19,-1
 320 64 l 1,16,-1
192 256 m 1,20,-1
 192 320 l 1,21,-1
 320 320 l 1,22,-1
 320 256 l 1,23,-1
 192 256 l 1,20,-1
EndSplineSet
Validated: 5
EndChar

StartChar: uni0438
Encoding: 1080 1080 162
Width: 320
Flags: W
LayerCount: 5
Fore
SplineSet
192 192 m 1,0,-1
 192 320 l 1,1,-1
 256 320 l 1,2,-1
 256 0 l 1,3,-1
 192 0 l 1,4,-1
 192 128 l 1,5,-1
 128 128 l 1,6,-1
 128 192 l 1,7,-1
 192 192 l 1,0,-1
128 128 m 17,8,-1
 64 128 l 1,9,-1
 64 320 l 1,10,-1
 0 320 l 1,11,-1
 0 0 l 1,12,-1
 64 0 l 1,13,-1
 64 64 l 1,14,-1
 128 64 l 1,15,-1
 128 128 l 17,8,-1
EndSplineSet
Validated: 5
EndChar

StartChar: uni0439
Encoding: 1081 1081 163
Width: 320
Flags: W
LayerCount: 5
Fore
SplineSet
64 448 m 29,0,-1
 192 448 l 25,1,-1
 192 384 l 25,2,-1
 64 384 l 29,3,-1
 64 448 l 29,0,-1
192 192 m 1,4,-1
 192 320 l 1,5,-1
 256 320 l 1,6,-1
 256 0 l 1,7,-1
 192 0 l 1,8,-1
 192 128 l 1,9,-1
 128 128 l 1,10,-1
 128 192 l 1,11,-1
 192 192 l 1,4,-1
128 128 m 17,12,-1
 64 128 l 1,13,-1
 64 320 l 1,14,-1
 0 320 l 1,15,-1
 0 0 l 1,16,-1
 64 0 l 1,17,-1
 64 64 l 1,18,-1
 128 64 l 1,19,-1
 128 128 l 17,12,-1
EndSplineSet
Validated: 5
EndChar

StartChar: uni043B
Encoding: 1083 1083 164
Width: 384
Flags: W
LayerCount: 5
Fore
SplineSet
256 320 m 5,0,-1
 320 320 l 5,1,-1
 320 0 l 1,2,-1
 256 0 l 1,3,-1
 256 320 l 5,0,-1
128 320 m 1,4,-1
 256 320 l 1,5,-1
 256 256 l 1,6,-1
 128 256 l 1,7,-1
 128 320 l 1,4,-1
64 256 m 1,8,-1
 128 256 l 1,9,-1
 128 64 l 1,10,-1
 64 64 l 1,11,-1
 64 256 l 1,8,-1
0 64 m 1,12,-1
 64 64 l 1,13,-1
 64 0 l 1,14,-1
 0 0 l 1,15,-1
 0 64 l 1,12,-1
EndSplineSet
Validated: 5
EndChar

StartChar: uni0446
Encoding: 1094 1094 165
Width: 384
Flags: W
LayerCount: 5
Fore
SplineSet
320 0 m 25,0,-1
 256 0 l 25,1,-1
 256 -64 l 25,2,-1
 320 -64 l 25,3,-1
 320 0 l 25,0,-1
0 0 m 1,4,-1
 0 64 l 1,5,-1
 320 64 l 1,6,-1
 320 0 l 1,7,-1
 0 0 l 1,4,-1
0 64 m 1,8,-1
 0 320 l 1,9,-1
 64 320 l 1,10,-1
 64 64 l 1,11,-1
 0 64 l 1,8,-1
192 64 m 1,12,-1
 192 320 l 1,13,-1
 256 320 l 1,14,-1
 256 64 l 1,15,-1
 192 64 l 1,12,-1
EndSplineSet
Validated: 5
EndChar

StartChar: uni0447
Encoding: 1095 1095 166
Width: 320
Flags: W
LayerCount: 5
Fore
SplineSet
0 192 m 1,0,-1
 0 320 l 1,1,-1
 64 320 l 1,2,-1
 64 192 l 1,3,-1
 0 192 l 1,0,-1
192 0 m 1,4,-1
 192 128 l 1,5,-1
 64 128 l 1,6,-1
 64 192 l 1,7,-1
 192 192 l 1,8,-1
 192 320 l 1,9,-1
 256 320 l 1,10,-1
 256 0 l 1,11,-1
 192 0 l 1,4,-1
EndSplineSet
Validated: 5
EndChar

StartChar: uni0444
Encoding: 1092 1092 167
Width: 384
Flags: W
LayerCount: 5
Fore
SplineSet
128 -192 m 1,0,-1
 128 0 l 1,1,-1
 192 0 l 1,2,-1
 192 -192 l 1,3,-1
 128 -192 l 1,0,-1
128 64 m 1,4,-1
 128 256 l 1,5,-1
 192 256 l 1,6,-1
 192 64 l 1,7,-1
 128 64 l 1,4,-1
64 0 m 1,8,-1
 64 64 l 1,9,-1
 256 64 l 1,10,-1
 256 0 l 1,11,-1
 64 0 l 1,8,-1
0 64 m 1,12,-1
 0 256 l 1,13,-1
 64 256 l 1,14,-1
 64 64 l 1,15,-1
 0 64 l 1,12,-1
256 64 m 1,16,-1
 256 256 l 1,17,-1
 320 256 l 1,18,-1
 320 64 l 1,19,-1
 256 64 l 1,16,-1
64 256 m 1,20,-1
 64 320 l 1,21,-1
 256 320 l 1,22,-1
 256 256 l 1,23,-1
 64 256 l 1,20,-1
EndSplineSet
Validated: 5
EndChar

StartChar: Ccedilla
Encoding: 199 199 168
Width: 384
Flags: W
LayerCount: 5
Fore
SplineSet
64 -128 m 5,0,-1
 64 -64 l 5,1,-1
 192 -64 l 5,2,-1
 192 -128 l 5,3,-1
 64 -128 l 5,0,-1
192 -64 m 5,4,-1
 192 0 l 5,5,-1
 256 0 l 5,6,-1
 256 -64 l 5,7,-1
 192 -64 l 5,4,-1
64 0 m 1,8,-1
 64 64 l 1,9,-1
 256 64 l 1,10,-1
 256 0 l 1,11,-1
 64 0 l 1,8,-1
256 64 m 1,12,-1
 256 128 l 1,13,-1
 320 128 l 1,14,-1
 320 64 l 1,15,-1
 256 64 l 1,12,-1
0 64 m 1,16,-1
 0 384 l 1,17,-1
 64 384 l 1,18,-1
 64 64 l 1,19,-1
 0 64 l 1,16,-1
256 320 m 1,20,-1
 256 384 l 1,21,-1
 320 384 l 1,22,-1
 320 320 l 1,23,-1
 256 320 l 1,20,-1
64 384 m 1,24,-1
 64 448 l 1,25,-1
 256 448 l 1,26,-1
 256 384 l 1,27,-1
 64 384 l 1,24,-1
EndSplineSet
Validated: 5
EndChar

StartChar: ccedilla
Encoding: 231 231 169
Width: 384
Flags: W
LayerCount: 5
Fore
SplineSet
64 -128 m 1,0,-1
 64 -64 l 1,1,-1
 192 -64 l 1,2,-1
 192 -128 l 1,3,-1
 64 -128 l 1,0,-1
192 -64 m 1,4,-1
 192 0 l 1,5,-1
 256 0 l 1,6,-1
 256 -64 l 1,7,-1
 192 -64 l 1,4,-1
64 0 m 1,8,-1
 64 64 l 1,9,-1
 256 64 l 1,10,-1
 256 0 l 1,11,-1
 64 0 l 1,8,-1
256 64 m 1,12,-1
 256 128 l 1,13,-1
 320 128 l 1,14,-1
 320 64 l 1,15,-1
 256 64 l 1,12,-1
0 64 m 1,16,-1
 0 256 l 1,17,-1
 64 256 l 1,18,-1
 64 64 l 1,19,-1
 0 64 l 1,16,-1
256 192 m 1,20,-1
 256 256 l 1,21,-1
 320 256 l 1,22,-1
 320 192 l 1,23,-1
 256 192 l 1,20,-1
64 256 m 1,24,-1
 64 320 l 1,25,-1
 256 320 l 1,26,-1
 256 256 l 1,27,-1
 64 256 l 1,24,-1
EndSplineSet
Validated: 5
EndChar

StartChar: Agrave
Encoding: 192 192 170
Width: 384
Flags: W
LayerCount: 5
Fore
SplineSet
64 576 m 1,0,-1
 64 640 l 1,1,-1
 128 640 l 1,2,-1
 128 576 l 1,3,-1
 64 576 l 1,0,-1
128 511 m 1,4,-1
 128 575 l 1,5,-1
 192 575 l 1,6,-1
 192 511 l 1,7,-1
 128 511 l 1,4,-1
0 0 m 1,8,-1
 0 320 l 1,9,-1
 64 320 l 1,10,-1
 64 256 l 1,11,-1
 256 256 l 1,12,-1
 256 320 l 1,13,-1
 320 320 l 1,14,-1
 320 0 l 1,15,-1
 256 0 l 1,16,-1
 256 192 l 1,17,-1
 64 192 l 1,18,-1
 64 0 l 1,19,-1
 0 0 l 1,8,-1
64 320 m 1,20,-1
 64 384 l 1,21,-1
 128 384 l 1,22,-1
 128 320 l 1,23,-1
 64 320 l 1,20,-1
192 320 m 1,24,-1
 192 384 l 1,25,-1
 256 384 l 1,26,-1
 256 320 l 1,27,-1
 192 320 l 1,24,-1
128 384 m 1,28,-1
 128 448 l 1,29,-1
 192 448 l 1,30,-1
 192 384 l 1,31,-1
 128 384 l 1,28,-1
EndSplineSet
Validated: 5
EndChar

StartChar: Aacute
Encoding: 193 193 171
Width: 384
Flags: W
LayerCount: 5
Fore
SplineSet
192 576 m 5,0,-1
 192 640 l 5,1,-1
 256 640 l 5,2,-1
 256 576 l 5,3,-1
 192 576 l 5,0,-1
128 512 m 5,4,-1
 128 576 l 5,5,-1
 192 576 l 5,6,-1
 192 512 l 5,7,-1
 128 512 l 5,4,-1
0 0 m 1,8,-1
 0 320 l 1,9,-1
 64 320 l 1,10,-1
 64 256 l 1,11,-1
 256 256 l 1,12,-1
 256 320 l 1,13,-1
 320 320 l 1,14,-1
 320 0 l 1,15,-1
 256 0 l 1,16,-1
 256 192 l 1,17,-1
 64 192 l 1,18,-1
 64 0 l 1,19,-1
 0 0 l 1,8,-1
64 320 m 1,20,-1
 64 384 l 1,21,-1
 128 384 l 1,22,-1
 128 320 l 1,23,-1
 64 320 l 1,20,-1
192 320 m 1,24,-1
 192 384 l 1,25,-1
 256 384 l 1,26,-1
 256 320 l 1,27,-1
 192 320 l 1,24,-1
128 384 m 1,28,-1
 128 448 l 1,29,-1
 192 448 l 1,30,-1
 192 384 l 1,31,-1
 128 384 l 1,28,-1
EndSplineSet
Validated: 5
EndChar

StartChar: Acircumflex
Encoding: 194 194 172
Width: 384
Flags: W
LayerCount: 5
Fore
SplineSet
192 512 m 5,0,-1
 192 576 l 5,1,-1
 256 576 l 5,2,-1
 256 512 l 5,3,-1
 192 512 l 5,0,-1
64 512 m 5,4,-1
 64 576 l 5,5,-1
 128 576 l 5,6,-1
 128 512 l 5,7,-1
 64 512 l 5,4,-1
128 576 m 5,8,-1
 128 640 l 5,9,-1
 192 640 l 5,10,-1
 192 576 l 5,11,-1
 128 576 l 5,8,-1
0 0 m 1,12,-1
 0 320 l 1,13,-1
 64 320 l 1,14,-1
 64 256 l 1,15,-1
 256 256 l 1,16,-1
 256 320 l 1,17,-1
 320 320 l 1,18,-1
 320 0 l 1,19,-1
 256 0 l 1,20,-1
 256 192 l 1,21,-1
 64 192 l 1,22,-1
 64 0 l 1,23,-1
 0 0 l 1,12,-1
64 320 m 1,24,-1
 64 384 l 1,25,-1
 128 384 l 1,26,-1
 128 320 l 1,27,-1
 64 320 l 1,24,-1
192 320 m 1,28,-1
 192 384 l 1,29,-1
 256 384 l 1,30,-1
 256 320 l 1,31,-1
 192 320 l 1,28,-1
128 384 m 1,32,-1
 128 448 l 1,33,-1
 192 448 l 1,34,-1
 192 384 l 1,35,-1
 128 384 l 1,32,-1
EndSplineSet
Validated: 5
EndChar

StartChar: Atilde
Encoding: 195 195 173
Width: 384
Flags: W
LayerCount: 5
Fore
SplineSet
256 576 m 5,0,-1
 256 640 l 5,1,-1
 320 640 l 5,2,-1
 320 576 l 5,3,-1
 256 576 l 5,0,-1
192 512 m 5,4,-1
 192 576 l 5,5,-1
 256 576 l 5,6,-1
 256 512 l 5,7,-1
 192 512 l 5,4,-1
128 576 m 5,8,-1
 128 640 l 5,9,-1
 192 640 l 5,10,-1
 192 576 l 5,11,-1
 128 576 l 5,8,-1
64 512 m 5,12,-1
 64 576 l 5,13,-1
 128 576 l 5,14,-1
 128 512 l 5,15,-1
 64 512 l 5,12,-1
0 0 m 1,16,-1
 0 320 l 1,17,-1
 64 320 l 1,18,-1
 64 256 l 1,19,-1
 256 256 l 1,20,-1
 256 320 l 1,21,-1
 320 320 l 1,22,-1
 320 0 l 1,23,-1
 256 0 l 1,24,-1
 256 192 l 1,25,-1
 64 192 l 1,26,-1
 64 0 l 1,27,-1
 0 0 l 1,16,-1
64 320 m 1,28,-1
 64 384 l 1,29,-1
 128 384 l 1,30,-1
 128 320 l 1,31,-1
 64 320 l 1,28,-1
192 320 m 1,32,-1
 192 384 l 1,33,-1
 256 384 l 1,34,-1
 256 320 l 1,35,-1
 192 320 l 1,32,-1
128 384 m 1,36,-1
 128 448 l 1,37,-1
 192 448 l 1,38,-1
 192 384 l 1,39,-1
 128 384 l 1,36,-1
EndSplineSet
Validated: 5
EndChar

StartChar: Adieresis
Encoding: 196 196 174
Width: 384
Flags: W
LayerCount: 5
Fore
SplineSet
192 512 m 5,0,-1
 192 576 l 5,1,-1
 256 576 l 5,2,-1
 256 512 l 5,3,-1
 192 512 l 5,0,-1
64 512 m 5,4,-1
 64 576 l 5,5,-1
 128 576 l 5,6,-1
 128 512 l 5,7,-1
 64 512 l 5,4,-1
0 0 m 1,8,-1
 0 320 l 1,9,-1
 64 320 l 1,10,-1
 64 256 l 1,11,-1
 256 256 l 1,12,-1
 256 320 l 1,13,-1
 320 320 l 1,14,-1
 320 0 l 1,15,-1
 256 0 l 1,16,-1
 256 192 l 1,17,-1
 64 192 l 1,18,-1
 64 0 l 1,19,-1
 0 0 l 1,8,-1
64 320 m 1,20,-1
 64 384 l 1,21,-1
 128 384 l 1,22,-1
 128 320 l 1,23,-1
 64 320 l 1,20,-1
192 320 m 1,24,-1
 192 384 l 1,25,-1
 256 384 l 1,26,-1
 256 320 l 1,27,-1
 192 320 l 1,24,-1
128 384 m 1,28,-1
 128 448 l 1,29,-1
 192 448 l 1,30,-1
 192 384 l 1,31,-1
 128 384 l 1,28,-1
EndSplineSet
Validated: 5
EndChar

StartChar: Aring
Encoding: 197 197 175
Width: 384
Flags: W
LayerCount: 5
Fore
SplineSet
128 512 m 5,0,-1
 128 576 l 5,1,-1
 192 576 l 5,2,-1
 192 512 l 5,3,-1
 128 512 l 5,0,-1
64 448 m 5,4,-1
 64 512 l 5,5,-1
 128 512 l 5,6,-1
 128 448 l 5,7,-1
 64 448 l 5,4,-1
192 448 m 5,8,-1
 192 512 l 5,9,-1
 256 512 l 5,10,-1
 256 448 l 5,11,-1
 192 448 l 5,8,-1
0 0 m 1,12,-1
 0 320 l 1,13,-1
 64 320 l 1,14,-1
 64 256 l 1,15,-1
 256 256 l 1,16,-1
 256 320 l 1,17,-1
 320 320 l 1,18,-1
 320 0 l 1,19,-1
 256 0 l 1,20,-1
 256 192 l 1,21,-1
 64 192 l 1,22,-1
 64 0 l 1,23,-1
 0 0 l 1,12,-1
64 320 m 1,24,-1
 64 384 l 1,25,-1
 128 384 l 1,26,-1
 128 320 l 1,27,-1
 64 320 l 1,24,-1
192 320 m 1,28,-1
 192 384 l 1,29,-1
 256 384 l 1,30,-1
 256 320 l 1,31,-1
 192 320 l 1,28,-1
128 384 m 5,32,-1
 128 448 l 5,33,-1
 192 448 l 5,34,-1
 192 384 l 5,35,-1
 128 384 l 5,32,-1
EndSplineSet
Validated: 5
EndChar

StartChar: AE
Encoding: 198 198 176
Width: 512
Flags: W
LayerCount: 5
Fore
SplineSet
64 192 m 29,0,-1
 192 192 l 25,1,-1
 192 256 l 25,2,-1
 64 256 l 29,3,-1
 64 192 l 29,0,-1
128 384 m 25,4,-1
 192 384 l 25,5,-1
 192 448 l 25,6,-1
 128 448 l 25,7,-1
 128 384 l 25,4,-1
64 320 m 25,8,-1
 128 320 l 25,9,-1
 128 384 l 25,10,-1
 64 384 l 25,11,-1
 64 320 l 25,8,-1
0 0 m 25,12,-1
 64 0 l 25,13,-1
 64 320 l 25,14,-1
 0 320 l 25,15,-1
 0 0 l 25,12,-1
192 0 m 1,16,-1
 192 448 l 1,17,-1
 448 448 l 1,18,-1
 448 384 l 1,19,-1
 256 384 l 1,20,-1
 256 256 l 1,21,-1
 384 256 l 1,22,-1
 384 192 l 1,23,-1
 256 192 l 1,24,-1
 256 64 l 1,25,-1
 448 64 l 1,26,-1
 448 0 l 1,27,-1
 192 0 l 1,16,-1
EndSplineSet
Validated: 5
EndChar

StartChar: Egrave
Encoding: 200 200 177
Width: 384
Flags: W
LayerCount: 5
Fore
SplineSet
64 576 m 5,0,-1
 64 640 l 5,1,-1
 128 640 l 5,2,-1
 128 576 l 5,3,-1
 64 576 l 5,0,-1
128 512 m 5,4,-1
 128 576 l 5,5,-1
 192 576 l 5,6,-1
 192 512 l 5,7,-1
 128 512 l 5,4,-1
0 0 m 1,8,-1
 0 448 l 1,9,-1
 320 448 l 1,10,-1
 320 384 l 1,11,-1
 64 384 l 1,12,-1
 64 256 l 1,13,-1
 256 256 l 1,14,-1
 256 192 l 1,15,-1
 64 192 l 1,16,-1
 64 64 l 1,17,-1
 320 64 l 1,18,-1
 320 0 l 1,19,-1
 0 0 l 1,8,-1
EndSplineSet
Validated: 5
EndChar

StartChar: Eacute
Encoding: 201 201 178
Width: 384
Flags: W
LayerCount: 5
Fore
SplineSet
192 576 m 5,0,-1
 192 640 l 5,1,-1
 256 640 l 5,2,-1
 256 576 l 5,3,-1
 192 576 l 5,0,-1
128 512 m 5,4,-1
 128 576 l 5,5,-1
 192 576 l 5,6,-1
 192 512 l 5,7,-1
 128 512 l 5,4,-1
0 0 m 1,8,-1
 0 448 l 1,9,-1
 320 448 l 1,10,-1
 320 384 l 1,11,-1
 64 384 l 1,12,-1
 64 256 l 1,13,-1
 256 256 l 1,14,-1
 256 192 l 1,15,-1
 64 192 l 1,16,-1
 64 64 l 1,17,-1
 320 64 l 1,18,-1
 320 0 l 1,19,-1
 0 0 l 1,8,-1
EndSplineSet
Validated: 5
EndChar

StartChar: Ecircumflex
Encoding: 202 202 179
Width: 384
Flags: W
LayerCount: 5
Fore
SplineSet
192 512 m 5,0,-1
 192 576 l 5,1,-1
 256 576 l 5,2,-1
 256 512 l 5,3,-1
 192 512 l 5,0,-1
64 512 m 5,4,-1
 64 576 l 5,5,-1
 128 576 l 5,6,-1
 128 512 l 5,7,-1
 64 512 l 5,4,-1
128 576 m 5,8,-1
 128 640 l 5,9,-1
 192 640 l 5,10,-1
 192 576 l 5,11,-1
 128 576 l 5,8,-1
0 0 m 1,12,-1
 0 448 l 1,13,-1
 320 448 l 1,14,-1
 320 384 l 1,15,-1
 64 384 l 1,16,-1
 64 256 l 1,17,-1
 256 256 l 1,18,-1
 256 192 l 1,19,-1
 64 192 l 1,20,-1
 64 64 l 1,21,-1
 320 64 l 1,22,-1
 320 0 l 1,23,-1
 0 0 l 1,12,-1
EndSplineSet
Validated: 5
EndChar

StartChar: Edieresis
Encoding: 203 203 180
Width: 384
Flags: W
LayerCount: 5
Fore
SplineSet
192 512 m 5,0,-1
 192 576 l 5,1,-1
 256 576 l 5,2,-1
 256 512 l 5,3,-1
 192 512 l 5,0,-1
64 512 m 5,4,-1
 64 576 l 5,5,-1
 128 576 l 5,6,-1
 128 512 l 5,7,-1
 64 512 l 5,4,-1
0 0 m 1,8,-1
 0 448 l 1,9,-1
 320 448 l 1,10,-1
 320 384 l 1,11,-1
 64 384 l 1,12,-1
 64 256 l 1,13,-1
 256 256 l 1,14,-1
 256 192 l 1,15,-1
 64 192 l 1,16,-1
 64 64 l 1,17,-1
 320 64 l 1,18,-1
 320 0 l 1,19,-1
 0 0 l 1,8,-1
EndSplineSet
Validated: 1
EndChar

StartChar: Igrave
Encoding: 204 204 181
Width: 256
Flags: W
LayerCount: 5
Fore
SplineSet
0 576 m 5,0,-1
 0 640 l 5,1,-1
 64 640 l 5,2,-1
 64 576 l 5,3,-1
 0 576 l 5,0,-1
64 512 m 5,4,-1
 64 576 l 5,5,-1
 128 576 l 5,6,-1
 128 512 l 5,7,-1
 64 512 l 5,4,-1
0 0 m 1,8,-1
 0 64 l 1,9,-1
 64 64 l 1,10,-1
 64 384 l 1,11,-1
 0 384 l 1,12,-1
 0 448 l 1,13,-1
 192 448 l 1,14,-1
 192 384 l 1,15,-1
 128 384 l 1,16,-1
 128 64 l 1,17,-1
 192 64 l 1,18,-1
 192 0 l 1,19,-1
 0 0 l 1,8,-1
EndSplineSet
Validated: 5
EndChar

StartChar: Iacute
Encoding: 205 205 182
Width: 256
Flags: W
LayerCount: 5
Fore
SplineSet
128 576 m 5,0,-1
 128 640 l 5,1,-1
 192 640 l 5,2,-1
 192 576 l 5,3,-1
 128 576 l 5,0,-1
64 512 m 5,4,-1
 64 576 l 5,5,-1
 128 576 l 5,6,-1
 128 512 l 5,7,-1
 64 512 l 5,4,-1
0 0 m 1,8,-1
 0 64 l 1,9,-1
 64 64 l 1,10,-1
 64 384 l 1,11,-1
 0 384 l 1,12,-1
 0 448 l 1,13,-1
 192 448 l 1,14,-1
 192 384 l 1,15,-1
 128 384 l 1,16,-1
 128 64 l 1,17,-1
 192 64 l 1,18,-1
 192 0 l 1,19,-1
 0 0 l 1,8,-1
EndSplineSet
Validated: 5
EndChar

StartChar: Icircumflex
Encoding: 206 206 183
Width: 256
Flags: W
LayerCount: 5
Fore
SplineSet
128 512 m 5,0,-1
 128 576 l 5,1,-1
 192 576 l 5,2,-1
 192 512 l 5,3,-1
 128 512 l 5,0,-1
0 512 m 5,4,-1
 0 576 l 5,5,-1
 64 576 l 5,6,-1
 64 512 l 5,7,-1
 0 512 l 5,4,-1
64 576 m 5,8,-1
 64 640 l 5,9,-1
 128 640 l 5,10,-1
 128 576 l 5,11,-1
 64 576 l 5,8,-1
0 0 m 1,12,-1
 0 64 l 1,13,-1
 64 64 l 1,14,-1
 64 384 l 1,15,-1
 0 384 l 1,16,-1
 0 448 l 1,17,-1
 192 448 l 1,18,-1
 192 384 l 1,19,-1
 128 384 l 1,20,-1
 128 64 l 1,21,-1
 192 64 l 1,22,-1
 192 0 l 1,23,-1
 0 0 l 1,12,-1
EndSplineSet
Validated: 5
EndChar

StartChar: Idieresis
Encoding: 207 207 184
Width: 256
Flags: W
LayerCount: 5
Fore
SplineSet
128 512 m 1,0,-1
 128 576 l 1,1,-1
 192 576 l 1,2,-1
 192 512 l 1,3,-1
 128 512 l 1,0,-1
0 512 m 1,4,-1
 0 576 l 1,5,-1
 64 576 l 1,6,-1
 64 512 l 1,7,-1
 0 512 l 1,4,-1
0 0 m 1,8,-1
 0 64 l 1,9,-1
 64 64 l 1,10,-1
 64 384 l 1,11,-1
 0 384 l 1,12,-1
 0 448 l 1,13,-1
 192 448 l 1,14,-1
 192 384 l 1,15,-1
 128 384 l 1,16,-1
 128 64 l 1,17,-1
 192 64 l 1,18,-1
 192 0 l 1,19,-1
 0 0 l 1,8,-1
EndSplineSet
Validated: 1
EndChar

StartChar: Ograve
Encoding: 210 210 185
Width: 384
Flags: W
LayerCount: 5
Fore
SplineSet
64 576 m 5,0,-1
 64 640 l 5,1,-1
 128 640 l 5,2,-1
 128 576 l 5,3,-1
 64 576 l 5,0,-1
128 512 m 5,4,-1
 128 576 l 5,5,-1
 192 576 l 5,6,-1
 192 512 l 5,7,-1
 128 512 l 5,4,-1
64 0 m 1,8,-1
 64 64 l 1,9,-1
 256 64 l 1,10,-1
 256 0 l 1,11,-1
 64 0 l 1,8,-1
0 64 m 1,12,-1
 0 384 l 1,13,-1
 64 384 l 1,14,-1
 64 64 l 1,15,-1
 0 64 l 1,12,-1
256 64 m 1,16,-1
 256 384 l 1,17,-1
 320 384 l 1,18,-1
 320 64 l 1,19,-1
 256 64 l 1,16,-1
64 384 m 1,20,-1
 64 448 l 1,21,-1
 256 448 l 1,22,-1
 256 384 l 1,23,-1
 64 384 l 1,20,-1
EndSplineSet
Validated: 5
EndChar

StartChar: Oacute
Encoding: 211 211 186
Width: 384
Flags: W
LayerCount: 5
Fore
SplineSet
192 576 m 1,0,-1
 192 640 l 1,1,-1
 256 640 l 1,2,-1
 256 576 l 1,3,-1
 192 576 l 1,0,-1
128 512 m 5,4,-1
 128 576 l 5,5,-1
 192 576 l 5,6,-1
 192 512 l 5,7,-1
 128 512 l 5,4,-1
64 0 m 1,8,-1
 64 64 l 1,9,-1
 256 64 l 1,10,-1
 256 0 l 1,11,-1
 64 0 l 1,8,-1
0 64 m 1,12,-1
 0 384 l 1,13,-1
 64 384 l 1,14,-1
 64 64 l 1,15,-1
 0 64 l 1,12,-1
256 64 m 1,16,-1
 256 384 l 1,17,-1
 320 384 l 1,18,-1
 320 64 l 1,19,-1
 256 64 l 1,16,-1
64 384 m 1,20,-1
 64 448 l 1,21,-1
 256 448 l 1,22,-1
 256 384 l 1,23,-1
 64 384 l 1,20,-1
EndSplineSet
Validated: 5
EndChar

StartChar: Ocircumflex
Encoding: 212 212 187
Width: 384
Flags: W
LayerCount: 5
Fore
SplineSet
192 512 m 5,0,-1
 192 576 l 5,1,-1
 256 576 l 5,2,-1
 256 512 l 5,3,-1
 192 512 l 5,0,-1
64 512 m 5,4,-1
 64 576 l 5,5,-1
 128 576 l 5,6,-1
 128 512 l 5,7,-1
 64 512 l 5,4,-1
128 576 m 5,8,-1
 128 640 l 5,9,-1
 192 640 l 5,10,-1
 192 576 l 5,11,-1
 128 576 l 5,8,-1
64 0 m 1,12,-1
 64 64 l 1,13,-1
 256 64 l 1,14,-1
 256 0 l 1,15,-1
 64 0 l 1,12,-1
0 64 m 1,16,-1
 0 384 l 1,17,-1
 64 384 l 1,18,-1
 64 64 l 1,19,-1
 0 64 l 1,16,-1
256 64 m 1,20,-1
 256 384 l 1,21,-1
 320 384 l 1,22,-1
 320 64 l 1,23,-1
 256 64 l 1,20,-1
64 384 m 1,24,-1
 64 448 l 1,25,-1
 256 448 l 1,26,-1
 256 384 l 1,27,-1
 64 384 l 1,24,-1
EndSplineSet
Validated: 5
EndChar

StartChar: Otilde
Encoding: 213 213 188
Width: 384
Flags: W
LayerCount: 5
Fore
SplineSet
256 576 m 5,0,-1
 256 640 l 5,1,-1
 320 640 l 5,2,-1
 320 576 l 5,3,-1
 256 576 l 5,0,-1
192 512 m 5,4,-1
 192 576 l 5,5,-1
 256 576 l 5,6,-1
 256 512 l 5,7,-1
 192 512 l 5,4,-1
128 576 m 5,8,-1
 128 640 l 5,9,-1
 192 640 l 5,10,-1
 192 576 l 5,11,-1
 128 576 l 5,8,-1
64 512 m 5,12,-1
 64 576 l 5,13,-1
 128 576 l 5,14,-1
 128 512 l 5,15,-1
 64 512 l 5,12,-1
64 0 m 1,16,-1
 64 64 l 1,17,-1
 256 64 l 1,18,-1
 256 0 l 1,19,-1
 64 0 l 1,16,-1
0 64 m 1,20,-1
 0 384 l 1,21,-1
 64 384 l 1,22,-1
 64 64 l 1,23,-1
 0 64 l 1,20,-1
256 64 m 1,24,-1
 256 384 l 1,25,-1
 320 384 l 1,26,-1
 320 64 l 1,27,-1
 256 64 l 1,24,-1
64 384 m 1,28,-1
 64 448 l 1,29,-1
 256 448 l 1,30,-1
 256 384 l 1,31,-1
 64 384 l 1,28,-1
EndSplineSet
Validated: 5
EndChar

StartChar: Odieresis
Encoding: 214 214 189
Width: 384
Flags: W
LayerCount: 5
Fore
SplineSet
192 512 m 5,0,-1
 192 576 l 5,1,-1
 256 576 l 5,2,-1
 256 512 l 5,3,-1
 192 512 l 5,0,-1
64 512 m 5,4,-1
 64 576 l 5,5,-1
 128 576 l 5,6,-1
 128 512 l 5,7,-1
 64 512 l 5,4,-1
64 0 m 1,8,-1
 64 64 l 1,9,-1
 256 64 l 1,10,-1
 256 0 l 1,11,-1
 64 0 l 1,8,-1
0 64 m 1,12,-1
 0 384 l 1,13,-1
 64 384 l 1,14,-1
 64 64 l 1,15,-1
 0 64 l 1,12,-1
256 64 m 1,16,-1
 256 384 l 1,17,-1
 320 384 l 1,18,-1
 320 64 l 1,19,-1
 256 64 l 1,16,-1
64 384 m 1,20,-1
 64 448 l 1,21,-1
 256 448 l 1,22,-1
 256 384 l 1,23,-1
 64 384 l 1,20,-1
EndSplineSet
Validated: 5
EndChar

StartChar: Ugrave
Encoding: 217 217 190
Width: 384
Flags: W
LayerCount: 5
Fore
SplineSet
64 576 m 5,0,-1
 64 640 l 5,1,-1
 128 640 l 5,2,-1
 128 576 l 5,3,-1
 64 576 l 5,0,-1
128 512 m 5,4,-1
 128 576 l 5,5,-1
 192 576 l 5,6,-1
 192 512 l 5,7,-1
 128 512 l 5,4,-1
64 0 m 1,8,-1
 64 64 l 1,9,-1
 256 64 l 1,10,-1
 256 0 l 1,11,-1
 64 0 l 1,8,-1
0 64 m 1,12,-1
 0 448 l 1,13,-1
 64 448 l 1,14,-1
 64 64 l 1,15,-1
 0 64 l 1,12,-1
256 64 m 1,16,-1
 256 448 l 1,17,-1
 320 448 l 1,18,-1
 320 64 l 1,19,-1
 256 64 l 1,16,-1
EndSplineSet
Validated: 5
EndChar

StartChar: Uacute
Encoding: 218 218 191
Width: 384
Flags: W
LayerCount: 5
Fore
SplineSet
192 576 m 5,0,-1
 192 640 l 5,1,-1
 256 640 l 5,2,-1
 256 576 l 5,3,-1
 192 576 l 5,0,-1
128 512 m 5,4,-1
 128 576 l 5,5,-1
 192 576 l 5,6,-1
 192 512 l 5,7,-1
 128 512 l 5,4,-1
64 0 m 1,8,-1
 64 64 l 1,9,-1
 256 64 l 1,10,-1
 256 0 l 1,11,-1
 64 0 l 1,8,-1
0 64 m 1,12,-1
 0 448 l 1,13,-1
 64 448 l 1,14,-1
 64 64 l 1,15,-1
 0 64 l 1,12,-1
256 64 m 1,16,-1
 256 448 l 1,17,-1
 320 448 l 1,18,-1
 320 64 l 1,19,-1
 256 64 l 1,16,-1
EndSplineSet
Validated: 5
EndChar

StartChar: Ucircumflex
Encoding: 219 219 192
Width: 384
Flags: W
LayerCount: 5
Fore
SplineSet
192 512 m 5,0,-1
 192 576 l 5,1,-1
 256 576 l 5,2,-1
 256 512 l 5,3,-1
 192 512 l 5,0,-1
64 512 m 5,4,-1
 64 576 l 5,5,-1
 128 576 l 5,6,-1
 128 512 l 5,7,-1
 64 512 l 5,4,-1
128 576 m 5,8,-1
 128 640 l 5,9,-1
 192 640 l 5,10,-1
 192 576 l 5,11,-1
 128 576 l 5,8,-1
64 0 m 1,12,-1
 64 64 l 1,13,-1
 256 64 l 1,14,-1
 256 0 l 1,15,-1
 64 0 l 1,12,-1
0 64 m 1,16,-1
 0 448 l 1,17,-1
 64 448 l 1,18,-1
 64 64 l 1,19,-1
 0 64 l 1,16,-1
256 64 m 1,20,-1
 256 448 l 1,21,-1
 320 448 l 1,22,-1
 320 64 l 1,23,-1
 256 64 l 1,20,-1
EndSplineSet
Validated: 5
EndChar

StartChar: Udieresis
Encoding: 220 220 193
Width: 384
Flags: W
LayerCount: 5
Fore
SplineSet
192 512 m 5,0,-1
 192 576 l 5,1,-1
 256 576 l 5,2,-1
 256 512 l 5,3,-1
 192 512 l 5,0,-1
64 512 m 5,4,-1
 64 576 l 5,5,-1
 128 576 l 5,6,-1
 128 512 l 5,7,-1
 64 512 l 5,4,-1
64 0 m 1,8,-1
 64 64 l 1,9,-1
 256 64 l 1,10,-1
 256 0 l 1,11,-1
 64 0 l 1,8,-1
0 64 m 1,12,-1
 0 448 l 1,13,-1
 64 448 l 1,14,-1
 64 64 l 1,15,-1
 0 64 l 1,12,-1
256 64 m 1,16,-1
 256 448 l 1,17,-1
 320 448 l 1,18,-1
 320 64 l 1,19,-1
 256 64 l 1,16,-1
EndSplineSet
Validated: 5
EndChar

StartChar: Ntilde
Encoding: 209 209 194
Width: 384
Flags: W
LayerCount: 5
Fore
SplineSet
256 576 m 5,0,-1
 256 640 l 5,1,-1
 320 640 l 5,2,-1
 320 576 l 5,3,-1
 256 576 l 5,0,-1
192 512 m 5,4,-1
 192 576 l 5,5,-1
 256 576 l 5,6,-1
 256 512 l 5,7,-1
 192 512 l 5,4,-1
128 576 m 5,8,-1
 128 640 l 5,9,-1
 192 640 l 5,10,-1
 192 576 l 5,11,-1
 128 576 l 5,8,-1
64 512 m 5,12,-1
 64 576 l 5,13,-1
 128 576 l 5,14,-1
 128 512 l 5,15,-1
 64 512 l 5,12,-1
128 192 m 1,16,-1
 128 256 l 1,17,-1
 192 256 l 1,18,-1
 192 192 l 1,19,-1
 128 192 l 1,16,-1
0 0 m 1,20,-1
 0 448 l 1,21,-1
 64 448 l 1,22,-1
 64 320 l 1,23,-1
 128 320 l 1,24,-1
 128 256 l 1,25,-1
 64 256 l 1,26,-1
 64 0 l 1,27,-1
 0 0 l 1,20,-1
256 0 m 1,28,-1
 256 128 l 1,29,-1
 192 128 l 1,30,-1
 192 192 l 1,31,-1
 256 192 l 1,32,-1
 256 448 l 1,33,-1
 320 448 l 1,34,-1
 320 0 l 1,35,-1
 256 0 l 1,28,-1
EndSplineSet
Validated: 5
EndChar

StartChar: Eth
Encoding: 208 208 195
Width: 448
Flags: W
LayerCount: 5
Fore
SplineSet
0 192 m 1,0,-1
 0 256 l 1,1,-1
 64 256 l 1,2,-1
 64 192 l 1,3,-1
 0 192 l 1,0,-1
128 192 m 1,4,-1
 128 256 l 1,5,-1
 192 256 l 1,6,-1
 192 192 l 1,7,-1
 128 192 l 1,4,-1
319 64 m 1,8,-1
 319 384 l 1,9,-1
 383 384 l 1,10,-1
 383 64 l 1,11,-1
 319 64 l 1,8,-1
63 0 m 1,12,-1
 63 448 l 1,13,-1
 319 448 l 1,14,-1
 319 384 l 1,15,-1
 127 384 l 1,16,-1
 127 64 l 1,17,-1
 319 64 l 1,18,-1
 319 0 l 1,19,-1
 63 0 l 1,12,-1
EndSplineSet
Validated: 5
EndChar

StartChar: multiply
Encoding: 215 215 196
Width: 384
Flags: W
LayerCount: 5
Fore
SplineSet
0 64 m 5,0,-1
 0 128 l 5,1,-1
 64 128 l 5,2,-1
 64 64 l 5,3,-1
 0 64 l 5,0,-1
256 64 m 5,4,-1
 256 128 l 5,5,-1
 320 128 l 5,6,-1
 320 64 l 5,7,-1
 256 64 l 5,4,-1
64 128 m 5,8,-1
 64 192 l 5,9,-1
 128 192 l 5,10,-1
 128 128 l 5,11,-1
 64 128 l 5,8,-1
192 128 m 5,12,-1
 192 192 l 5,13,-1
 256 192 l 5,14,-1
 256 128 l 5,15,-1
 192 128 l 5,12,-1
128 192 m 5,16,-1
 128 256 l 5,17,-1
 192 256 l 5,18,-1
 192 192 l 5,19,-1
 128 192 l 5,16,-1
64 256 m 5,20,-1
 64 320 l 5,21,-1
 128 320 l 5,22,-1
 128 256 l 5,23,-1
 64 256 l 5,20,-1
192 256 m 5,24,-1
 192 320 l 5,25,-1
 256 320 l 5,26,-1
 256 256 l 5,27,-1
 192 256 l 5,24,-1
0 320 m 5,28,-1
 0 384 l 5,29,-1
 64 384 l 5,30,-1
 64 320 l 5,31,-1
 0 320 l 5,28,-1
256 320 m 5,32,-1
 256 384 l 5,33,-1
 320 384 l 5,34,-1
 320 320 l 5,35,-1
 256 320 l 5,32,-1
EndSplineSet
Validated: 5
EndChar

StartChar: exclamdown
Encoding: 161 161 197
Width: 128
Flags: W
LayerCount: 5
Fore
SplineSet
0 448 m 1,0,-1
 0 384 l 1,1,-1
 64 384 l 1,2,-1
 64 448 l 1,3,-1
 0 448 l 1,0,-1
0 320 m 1,4,-1
 0 0 l 1,5,-1
 64 0 l 1,6,-1
 64 320 l 1,7,-1
 0 320 l 1,4,-1
EndSplineSet
Validated: 9
EndChar

StartChar: questiondown
Encoding: 191 191 198
Width: 384
Flags: W
LayerCount: 5
Fore
SplineSet
192 448 m 1,0,-1
 192 384 l 1,1,-1
 128 384 l 1,2,-1
 128 448 l 1,3,-1
 192 448 l 1,0,-1
192 320 m 1,4,-1
 192 256 l 1,5,-1
 128 256 l 1,6,-1
 128 320 l 1,7,-1
 192 320 l 1,4,-1
128 256 m 1,8,-1
 128 192 l 1,9,-1
 64 192 l 1,10,-1
 64 256 l 1,11,-1
 128 256 l 1,8,-1
320 128 m 1,12,-1
 320 64 l 1,13,-1
 256 64 l 1,14,-1
 256 128 l 1,15,-1
 320 128 l 1,12,-1
64 192 m 1,16,-1
 64 64 l 1,17,-1
 0 64 l 1,18,-1
 0 192 l 1,19,-1
 64 192 l 1,16,-1
256 64 m 1,20,-1
 256 0 l 1,21,-1
 64 0 l 1,22,-1
 64 64 l 1,23,-1
 256 64 l 1,20,-1
EndSplineSet
Validated: 5
EndChar

StartChar: guillemotleft
Encoding: 171 171 199
Width: 448
Flags: W
LayerCount: 5
Fore
SplineSet
320 64 m 5,0,-1
 320 128 l 5,1,-1
 384 128 l 5,2,-1
 384 64 l 5,3,-1
 320 64 l 5,0,-1
256 128 m 5,4,-1
 256 192 l 5,5,-1
 320 192 l 5,6,-1
 320 128 l 5,7,-1
 256 128 l 5,4,-1
192 192 m 5,8,-1
 192 256 l 5,9,-1
 256 256 l 5,10,-1
 256 192 l 5,11,-1
 192 192 l 5,8,-1
256 256 m 5,12,-1
 256 320 l 5,13,-1
 320 320 l 5,14,-1
 320 256 l 5,15,-1
 256 256 l 5,12,-1
320 320 m 5,16,-1
 320 384 l 5,17,-1
 384 384 l 5,18,-1
 384 320 l 5,19,-1
 320 320 l 5,16,-1
128 64 m 5,20,-1
 128 128 l 5,21,-1
 192 128 l 5,22,-1
 192 64 l 5,23,-1
 128 64 l 5,20,-1
64 128 m 5,24,-1
 64 192 l 5,25,-1
 128 192 l 5,26,-1
 128 128 l 5,27,-1
 64 128 l 5,24,-1
0 192 m 5,28,-1
 0 256 l 5,29,-1
 64 256 l 5,30,-1
 64 192 l 5,31,-1
 0 192 l 5,28,-1
64 256 m 5,32,-1
 64 320 l 5,33,-1
 128 320 l 5,34,-1
 128 256 l 5,35,-1
 64 256 l 5,32,-1
128 320 m 5,36,-1
 128 384 l 5,37,-1
 192 384 l 5,38,-1
 192 320 l 5,39,-1
 128 320 l 5,36,-1
EndSplineSet
Validated: 5
EndChar

StartChar: guillemotright
Encoding: 187 187 200
Width: 448
Flags: W
LayerCount: 5
Fore
SplineSet
64 64 m 5,0,-1
 64 128 l 5,1,-1
 0 128 l 5,2,-1
 0 64 l 5,3,-1
 64 64 l 5,0,-1
128 128 m 5,4,-1
 128 192 l 5,5,-1
 64 192 l 5,6,-1
 64 128 l 5,7,-1
 128 128 l 5,4,-1
192 192 m 5,8,-1
 192 256 l 5,9,-1
 128 256 l 5,10,-1
 128 192 l 5,11,-1
 192 192 l 5,8,-1
128 256 m 5,12,-1
 128 320 l 5,13,-1
 64 320 l 5,14,-1
 64 256 l 5,15,-1
 128 256 l 5,12,-1
64 320 m 5,16,-1
 64 384 l 5,17,-1
 0 384 l 5,18,-1
 0 320 l 5,19,-1
 64 320 l 5,16,-1
256 64 m 5,20,-1
 256 128 l 5,21,-1
 192 128 l 5,22,-1
 192 64 l 5,23,-1
 256 64 l 5,20,-1
320 128 m 5,24,-1
 320 192 l 5,25,-1
 256 192 l 5,26,-1
 256 128 l 5,27,-1
 320 128 l 5,24,-1
384 192 m 5,28,-1
 384 256 l 5,29,-1
 320 256 l 5,30,-1
 320 192 l 5,31,-1
 384 192 l 5,28,-1
320 256 m 5,32,-1
 320 320 l 5,33,-1
 256 320 l 5,34,-1
 256 256 l 5,35,-1
 320 256 l 5,32,-1
256 320 m 5,36,-1
 256 384 l 5,37,-1
 192 384 l 5,38,-1
 192 320 l 5,39,-1
 256 320 l 5,36,-1
EndSplineSet
Validated: 5
EndChar

StartChar: agrave
Encoding: 224 224 201
Width: 384
Flags: W
LayerCount: 5
Fore
SplineSet
64 448 m 5,0,-1
 64 512 l 5,1,-1
 128 512 l 5,2,-1
 128 448 l 5,3,-1
 64 448 l 5,0,-1
128 384 m 5,4,-1
 128 448 l 5,5,-1
 192 448 l 5,6,-1
 192 384 l 5,7,-1
 128 384 l 5,4,-1
0 64 m 1,8,-1
 0 128 l 1,9,-1
 64 128 l 1,10,-1
 64 64 l 1,11,-1
 0 64 l 1,8,-1
64 0 m 1,12,-1
 64 64 l 1,13,-1
 256 64 l 1,14,-1
 256 128 l 1,15,-1
 64 128 l 1,16,-1
 64 192 l 1,17,-1
 256 192 l 1,18,-1
 256 256 l 1,19,-1
 320 256 l 1,20,-1
 320 0 l 1,21,-1
 64 0 l 1,12,-1
64 256 m 1,22,-1
 64 320 l 1,23,-1
 256 320 l 1,24,-1
 256 256 l 1,25,-1
 64 256 l 1,22,-1
EndSplineSet
Validated: 5
EndChar

StartChar: aacute
Encoding: 225 225 202
Width: 384
Flags: W
LayerCount: 5
Fore
SplineSet
192 448 m 5,0,-1
 192 512 l 5,1,-1
 256 512 l 5,2,-1
 256 448 l 5,3,-1
 192 448 l 5,0,-1
128 384 m 5,4,-1
 128 448 l 5,5,-1
 192 448 l 5,6,-1
 192 384 l 5,7,-1
 128 384 l 5,4,-1
0 64 m 1,8,-1
 0 128 l 1,9,-1
 64 128 l 1,10,-1
 64 64 l 1,11,-1
 0 64 l 1,8,-1
64 0 m 1,12,-1
 64 64 l 1,13,-1
 256 64 l 1,14,-1
 256 128 l 1,15,-1
 64 128 l 1,16,-1
 64 192 l 1,17,-1
 256 192 l 1,18,-1
 256 256 l 1,19,-1
 320 256 l 1,20,-1
 320 0 l 1,21,-1
 64 0 l 1,12,-1
64 256 m 1,22,-1
 64 320 l 1,23,-1
 256 320 l 1,24,-1
 256 256 l 1,25,-1
 64 256 l 1,22,-1
EndSplineSet
Validated: 5
EndChar

StartChar: acircumflex
Encoding: 226 226 203
Width: 384
Flags: W
LayerCount: 5
Fore
SplineSet
192 384 m 5,0,-1
 192 448 l 5,1,-1
 256 448 l 5,2,-1
 256 384 l 5,3,-1
 192 384 l 5,0,-1
64 384 m 5,4,-1
 64 448 l 5,5,-1
 128 448 l 5,6,-1
 128 384 l 5,7,-1
 64 384 l 5,4,-1
128 448 m 5,8,-1
 128 512 l 5,9,-1
 192 512 l 5,10,-1
 192 448 l 5,11,-1
 128 448 l 5,8,-1
0 64 m 1,12,-1
 0 128 l 1,13,-1
 64 128 l 1,14,-1
 64 64 l 1,15,-1
 0 64 l 1,12,-1
64 0 m 1,16,-1
 64 64 l 1,17,-1
 256 64 l 1,18,-1
 256 128 l 1,19,-1
 64 128 l 1,20,-1
 64 192 l 1,21,-1
 256 192 l 1,22,-1
 256 256 l 1,23,-1
 320 256 l 1,24,-1
 320 0 l 1,25,-1
 64 0 l 1,16,-1
64 256 m 1,26,-1
 64 320 l 1,27,-1
 256 320 l 1,28,-1
 256 256 l 1,29,-1
 64 256 l 1,26,-1
EndSplineSet
Validated: 5
EndChar

StartChar: atilde
Encoding: 227 227 204
Width: 384
Flags: W
LayerCount: 5
Fore
SplineSet
256 448 m 5,0,-1
 256 512 l 5,1,-1
 320 512 l 5,2,-1
 320 448 l 5,3,-1
 256 448 l 5,0,-1
192 384 m 5,4,-1
 192 448 l 5,5,-1
 256 448 l 5,6,-1
 256 384 l 5,7,-1
 192 384 l 5,4,-1
128 448 m 5,8,-1
 128 512 l 5,9,-1
 192 512 l 5,10,-1
 192 448 l 5,11,-1
 128 448 l 5,8,-1
64 384 m 5,12,-1
 64 448 l 5,13,-1
 128 448 l 5,14,-1
 128 384 l 5,15,-1
 64 384 l 5,12,-1
0 64 m 1,16,-1
 0 128 l 1,17,-1
 64 128 l 1,18,-1
 64 64 l 1,19,-1
 0 64 l 1,16,-1
64 0 m 1,20,-1
 64 64 l 1,21,-1
 256 64 l 1,22,-1
 256 128 l 1,23,-1
 64 128 l 1,24,-1
 64 192 l 1,25,-1
 256 192 l 1,26,-1
 256 256 l 1,27,-1
 320 256 l 1,28,-1
 320 0 l 1,29,-1
 64 0 l 1,20,-1
64 256 m 1,30,-1
 64 320 l 1,31,-1
 256 320 l 1,32,-1
 256 256 l 1,33,-1
 64 256 l 1,30,-1
EndSplineSet
Validated: 5
EndChar

StartChar: adieresis
Encoding: 228 228 205
Width: 384
Flags: W
LayerCount: 5
Fore
SplineSet
192 384 m 1,0,-1
 192 448 l 1,1,-1
 256 448 l 1,2,-1
 256 384 l 1,3,-1
 192 384 l 1,0,-1
64 384 m 5,4,-1
 64 448 l 5,5,-1
 128 448 l 5,6,-1
 128 384 l 5,7,-1
 64 384 l 5,4,-1
0 64 m 1,8,-1
 0 128 l 1,9,-1
 64 128 l 1,10,-1
 64 64 l 1,11,-1
 0 64 l 1,8,-1
64 0 m 1,12,-1
 64 64 l 1,13,-1
 256 64 l 1,14,-1
 256 128 l 1,15,-1
 64 128 l 1,16,-1
 64 192 l 1,17,-1
 256 192 l 1,18,-1
 256 256 l 1,19,-1
 320 256 l 1,20,-1
 320 0 l 1,21,-1
 64 0 l 1,12,-1
64 256 m 1,22,-1
 64 320 l 1,23,-1
 256 320 l 1,24,-1
 256 256 l 1,25,-1
 64 256 l 1,22,-1
EndSplineSet
Validated: 5
EndChar

StartChar: aring
Encoding: 229 229 206
Width: 384
Flags: W
LayerCount: 5
Fore
SplineSet
128 512 m 5,0,-1
 128 576 l 5,1,-1
 192 576 l 5,2,-1
 192 512 l 5,3,-1
 128 512 l 5,0,-1
64 448 m 5,4,-1
 64 512 l 5,5,-1
 128 512 l 5,6,-1
 128 448 l 5,7,-1
 64 448 l 5,4,-1
192 448 m 5,8,-1
 192 512 l 5,9,-1
 256 512 l 5,10,-1
 256 448 l 5,11,-1
 192 448 l 5,8,-1
128 384 m 5,12,-1
 128 448 l 5,13,-1
 192 448 l 5,14,-1
 192 384 l 5,15,-1
 128 384 l 5,12,-1
0 64 m 1,16,-1
 0 128 l 1,17,-1
 64 128 l 1,18,-1
 64 64 l 1,19,-1
 0 64 l 1,16,-1
64 0 m 1,20,-1
 64 64 l 1,21,-1
 256 64 l 1,22,-1
 256 128 l 1,23,-1
 64 128 l 1,24,-1
 64 192 l 1,25,-1
 256 192 l 1,26,-1
 256 256 l 1,27,-1
 320 256 l 1,28,-1
 320 0 l 1,29,-1
 64 0 l 1,20,-1
64 256 m 1,30,-1
 64 320 l 1,31,-1
 256 320 l 1,32,-1
 256 256 l 1,33,-1
 64 256 l 1,30,-1
EndSplineSet
Validated: 5
EndChar

StartChar: ae
Encoding: 230 230 207
Width: 512
Flags: W
LayerCount: 5
Fore
SplineSet
256 0 m 1,0,-1
 256 64 l 1,1,-1
 448 64 l 1,2,-1
 448 0 l 1,3,-1
 256 0 l 1,0,-1
256 128 m 1,4,-1
 256 192 l 1,5,-1
 384 192 l 1,6,-1
 384 256 l 1,7,-1
 448 256 l 1,8,-1
 448 128 l 1,9,-1
 256 128 l 1,4,-1
256 256 m 1,10,-1
 256 320 l 1,11,-1
 384 320 l 1,12,-1
 384 256 l 1,13,-1
 256 256 l 1,10,-1
0 64 m 1,14,-1
 0 128 l 1,15,-1
 64 128 l 1,16,-1
 64 64 l 1,17,-1
 0 64 l 1,14,-1
64 0 m 1,18,-1
 64 64 l 1,19,-1
 192 64 l 1,20,-1
 192 128 l 1,21,-1
 64 128 l 1,22,-1
 64 192 l 1,23,-1
 192 192 l 1,24,-1
 192 256 l 1,25,-1
 256 256 l 1,26,-1
 256 0 l 1,27,-1
 64 0 l 1,18,-1
64 256 m 1,28,-1
 64 320 l 1,29,-1
 192 320 l 1,30,-1
 192 256 l 1,31,-1
 64 256 l 1,28,-1
EndSplineSet
Validated: 5
EndChar

StartChar: egrave
Encoding: 232 232 208
Width: 384
Flags: W
LayerCount: 5
Fore
SplineSet
64 448 m 5,0,-1
 64 512 l 5,1,-1
 128 512 l 5,2,-1
 128 448 l 5,3,-1
 64 448 l 5,0,-1
128 384 m 5,4,-1
 128 448 l 5,5,-1
 192 448 l 5,6,-1
 192 384 l 5,7,-1
 128 384 l 5,4,-1
64 0 m 1,8,-1
 64 64 l 1,9,-1
 320 64 l 1,10,-1
 320 0 l 1,11,-1
 64 0 l 1,8,-1
0 64 m 1,12,-1
 0 256 l 1,13,-1
 64 256 l 1,14,-1
 64 192 l 1,15,-1
 256 192 l 1,16,-1
 256 256 l 1,17,-1
 320 256 l 1,18,-1
 320 128 l 1,19,-1
 64 128 l 1,20,-1
 64 64 l 1,21,-1
 0 64 l 1,12,-1
64 256 m 1,22,-1
 64 320 l 1,23,-1
 256 320 l 1,24,-1
 256 256 l 1,25,-1
 64 256 l 1,22,-1
EndSplineSet
Validated: 5
EndChar

StartChar: eacute
Encoding: 233 233 209
Width: 384
Flags: W
LayerCount: 5
Fore
SplineSet
192 448 m 5,0,-1
 192 512 l 5,1,-1
 256 512 l 5,2,-1
 256 448 l 5,3,-1
 192 448 l 5,0,-1
128 384 m 5,4,-1
 128 448 l 5,5,-1
 192 448 l 5,6,-1
 192 384 l 5,7,-1
 128 384 l 5,4,-1
64 0 m 1,8,-1
 64 64 l 1,9,-1
 320 64 l 1,10,-1
 320 0 l 1,11,-1
 64 0 l 1,8,-1
0 64 m 1,12,-1
 0 256 l 1,13,-1
 64 256 l 1,14,-1
 64 192 l 1,15,-1
 256 192 l 1,16,-1
 256 256 l 1,17,-1
 320 256 l 1,18,-1
 320 128 l 1,19,-1
 64 128 l 1,20,-1
 64 64 l 1,21,-1
 0 64 l 1,12,-1
64 256 m 1,22,-1
 64 320 l 1,23,-1
 256 320 l 1,24,-1
 256 256 l 1,25,-1
 64 256 l 1,22,-1
EndSplineSet
Validated: 5
EndChar

StartChar: ecircumflex
Encoding: 234 234 210
Width: 384
Flags: W
LayerCount: 5
Fore
SplineSet
192 384 m 5,0,-1
 192 448 l 5,1,-1
 256 448 l 5,2,-1
 256 384 l 5,3,-1
 192 384 l 5,0,-1
64 384 m 5,4,-1
 64 448 l 5,5,-1
 128 448 l 5,6,-1
 128 384 l 5,7,-1
 64 384 l 5,4,-1
128 448 m 5,8,-1
 128 512 l 5,9,-1
 192 512 l 5,10,-1
 192 448 l 5,11,-1
 128 448 l 5,8,-1
64 0 m 1,12,-1
 64 64 l 1,13,-1
 320 64 l 1,14,-1
 320 0 l 1,15,-1
 64 0 l 1,12,-1
0 64 m 1,16,-1
 0 256 l 1,17,-1
 64 256 l 1,18,-1
 64 192 l 1,19,-1
 256 192 l 1,20,-1
 256 256 l 1,21,-1
 320 256 l 1,22,-1
 320 128 l 1,23,-1
 64 128 l 1,24,-1
 64 64 l 1,25,-1
 0 64 l 1,16,-1
64 256 m 1,26,-1
 64 320 l 1,27,-1
 256 320 l 1,28,-1
 256 256 l 1,29,-1
 64 256 l 1,26,-1
EndSplineSet
Validated: 5
EndChar

StartChar: edieresis
Encoding: 235 235 211
Width: 384
Flags: W
LayerCount: 5
Fore
SplineSet
192 384 m 1,0,-1
 192 448 l 1,1,-1
 256 448 l 1,2,-1
 256 384 l 1,3,-1
 192 384 l 1,0,-1
64 384 m 5,4,-1
 64 448 l 5,5,-1
 128 448 l 5,6,-1
 128 384 l 5,7,-1
 64 384 l 5,4,-1
64 0 m 1,8,-1
 64 64 l 1,9,-1
 320 64 l 1,10,-1
 320 0 l 1,11,-1
 64 0 l 1,8,-1
0 64 m 1,12,-1
 0 256 l 1,13,-1
 64 256 l 1,14,-1
 64 192 l 1,15,-1
 256 192 l 1,16,-1
 256 256 l 1,17,-1
 320 256 l 1,18,-1
 320 128 l 1,19,-1
 64 128 l 1,20,-1
 64 64 l 1,21,-1
 0 64 l 1,12,-1
64 256 m 1,22,-1
 64 320 l 1,23,-1
 256 320 l 1,24,-1
 256 256 l 1,25,-1
 64 256 l 1,22,-1
EndSplineSet
Validated: 5
EndChar

StartChar: igrave
Encoding: 236 236 212
Width: 256
Flags: W
LayerCount: 5
Fore
SplineSet
0 448 m 5,0,-1
 0 512 l 5,1,-1
 64 512 l 5,2,-1
 64 448 l 5,3,-1
 0 448 l 5,0,-1
64 384 m 5,4,-1
 64 448 l 5,5,-1
 128 448 l 5,6,-1
 128 384 l 5,7,-1
 64 384 l 5,4,-1
64 0 m 1,8,-1
 64 320 l 1,9,-1
 128 320 l 1,10,-1
 128 0 l 1,11,-1
 64 0 l 1,8,-1
EndSplineSet
Validated: 5
EndChar

StartChar: iacute
Encoding: 237 237 213
Width: 192
Flags: W
LayerCount: 5
Fore
SplineSet
64 448 m 1,0,-1
 64 512 l 1,1,-1
 128 512 l 1,2,-1
 128 448 l 1,3,-1
 64 448 l 1,0,-1
0 384 m 1,4,-1
 0 448 l 1,5,-1
 64 448 l 1,6,-1
 64 384 l 1,7,-1
 0 384 l 1,4,-1
0 0 m 1,8,-1
 0 320 l 1,9,-1
 64 320 l 1,10,-1
 64 0 l 1,11,-1
 0 0 l 1,8,-1
EndSplineSet
Validated: 5
EndChar

StartChar: icircumflex
Encoding: 238 238 214
Width: 256
Flags: W
LayerCount: 5
Fore
SplineSet
128 384 m 5,0,-1
 128 448 l 5,1,-1
 192 448 l 5,2,-1
 192 384 l 5,3,-1
 128 384 l 5,0,-1
0 384 m 5,4,-1
 0 448 l 5,5,-1
 64 448 l 5,6,-1
 64 384 l 5,7,-1
 0 384 l 5,4,-1
64 448 m 5,8,-1
 64 512 l 5,9,-1
 128 512 l 5,10,-1
 128 448 l 5,11,-1
 64 448 l 5,8,-1
64 0 m 1,12,-1
 64 320 l 1,13,-1
 128 320 l 1,14,-1
 128 0 l 1,15,-1
 64 0 l 1,12,-1
EndSplineSet
Validated: 5
EndChar

StartChar: idieresis
Encoding: 239 239 215
Width: 256
Flags: W
LayerCount: 5
Fore
SplineSet
128 384 m 1,0,-1
 128 448 l 1,1,-1
 192 448 l 1,2,-1
 192 384 l 1,3,-1
 128 384 l 1,0,-1
0 384 m 1,4,-1
 0 448 l 1,5,-1
 64 448 l 1,6,-1
 64 384 l 1,7,-1
 0 384 l 1,4,-1
64 0 m 5,8,-1
 64 320 l 5,9,-1
 128 320 l 5,10,-1
 128 0 l 5,11,-1
 64 0 l 5,8,-1
EndSplineSet
Validated: 1
EndChar

StartChar: eth
Encoding: 240 240 216
Width: 384
Flags: W
LayerCount: 5
Fore
SplineSet
256 448 m 1,0,-1
 256 512 l 1,1,-1
 320 512 l 1,2,-1
 320 448 l 1,3,-1
 256 448 l 1,0,-1
192 384 m 1,4,-1
 192 448 l 1,5,-1
 256 448 l 1,6,-1
 256 384 l 1,7,-1
 192 384 l 1,4,-1
128 448 m 1,8,-1
 128 512 l 1,9,-1
 192 512 l 1,10,-1
 192 448 l 1,11,-1
 128 448 l 1,8,-1
128 320 m 5,12,-1
 128 384 l 5,13,-1
 192 384 l 5,14,-1
 192 320 l 5,15,-1
 128 320 l 5,12,-1
64 0 m 1,16,-1
 64 64 l 1,17,-1
 256 64 l 1,18,-1
 256 0 l 1,19,-1
 64 0 l 1,16,-1
0 64 m 1,20,-1
 0 256 l 1,21,-1
 64 256 l 1,22,-1
 64 64 l 1,23,-1
 0 64 l 1,20,-1
256 64 m 1,24,-1
 256 384 l 1,25,-1
 320 384 l 1,26,-1
 320 64 l 1,27,-1
 256 64 l 1,24,-1
64 256 m 1,28,-1
 64 320 l 1,29,-1
 256 320 l 1,30,-1
 256 256 l 1,31,-1
 64 256 l 1,28,-1
EndSplineSet
EndChar

StartChar: ograve
Encoding: 242 242 217
Width: 384
Flags: W
LayerCount: 5
Fore
SplineSet
64 448 m 5,0,-1
 64 512 l 5,1,-1
 128 512 l 5,2,-1
 128 448 l 5,3,-1
 64 448 l 5,0,-1
128 384 m 5,4,-1
 128 448 l 5,5,-1
 192 448 l 5,6,-1
 192 384 l 5,7,-1
 128 384 l 5,4,-1
64 0 m 1,8,-1
 64 64 l 1,9,-1
 256 64 l 1,10,-1
 256 0 l 1,11,-1
 64 0 l 1,8,-1
0 64 m 1,12,-1
 0 256 l 1,13,-1
 64 256 l 1,14,-1
 64 64 l 1,15,-1
 0 64 l 1,12,-1
256 64 m 1,16,-1
 256 256 l 1,17,-1
 320 256 l 1,18,-1
 320 64 l 1,19,-1
 256 64 l 1,16,-1
64 256 m 1,20,-1
 64 320 l 1,21,-1
 256 320 l 1,22,-1
 256 256 l 1,23,-1
 64 256 l 1,20,-1
EndSplineSet
Validated: 5
EndChar

StartChar: oacute
Encoding: 243 243 218
Width: 384
Flags: W
LayerCount: 5
Fore
SplineSet
192 448 m 1,0,-1
 192 512 l 1,1,-1
 256 512 l 1,2,-1
 256 448 l 1,3,-1
 192 448 l 1,0,-1
128 384 m 5,4,-1
 128 448 l 5,5,-1
 192 448 l 5,6,-1
 192 384 l 5,7,-1
 128 384 l 5,4,-1
64 0 m 1,8,-1
 64 64 l 1,9,-1
 256 64 l 1,10,-1
 256 0 l 1,11,-1
 64 0 l 1,8,-1
0 64 m 1,12,-1
 0 256 l 1,13,-1
 64 256 l 1,14,-1
 64 64 l 1,15,-1
 0 64 l 1,12,-1
256 64 m 1,16,-1
 256 256 l 1,17,-1
 320 256 l 1,18,-1
 320 64 l 1,19,-1
 256 64 l 1,16,-1
64 256 m 1,20,-1
 64 320 l 1,21,-1
 256 320 l 1,22,-1
 256 256 l 1,23,-1
 64 256 l 1,20,-1
EndSplineSet
Validated: 5
EndChar

StartChar: ocircumflex
Encoding: 244 244 219
Width: 384
Flags: W
LayerCount: 5
Fore
SplineSet
192 384 m 5,0,-1
 192 448 l 5,1,-1
 256 448 l 5,2,-1
 256 384 l 5,3,-1
 192 384 l 5,0,-1
64 384 m 5,4,-1
 64 448 l 5,5,-1
 128 448 l 5,6,-1
 128 384 l 5,7,-1
 64 384 l 5,4,-1
128 448 m 5,8,-1
 128 512 l 5,9,-1
 192 512 l 5,10,-1
 192 448 l 5,11,-1
 128 448 l 5,8,-1
64 0 m 1,12,-1
 64 64 l 1,13,-1
 256 64 l 1,14,-1
 256 0 l 1,15,-1
 64 0 l 1,12,-1
0 64 m 1,16,-1
 0 256 l 1,17,-1
 64 256 l 1,18,-1
 64 64 l 1,19,-1
 0 64 l 1,16,-1
256 64 m 1,20,-1
 256 256 l 1,21,-1
 320 256 l 1,22,-1
 320 64 l 1,23,-1
 256 64 l 1,20,-1
64 256 m 1,24,-1
 64 320 l 1,25,-1
 256 320 l 1,26,-1
 256 256 l 1,27,-1
 64 256 l 1,24,-1
EndSplineSet
Validated: 5
EndChar

StartChar: otilde
Encoding: 245 245 220
Width: 384
Flags: W
LayerCount: 5
Fore
SplineSet
256 448 m 5,0,-1
 256 512 l 5,1,-1
 320 512 l 5,2,-1
 320 448 l 5,3,-1
 256 448 l 5,0,-1
192 384 m 5,4,-1
 192 448 l 5,5,-1
 256 448 l 5,6,-1
 256 384 l 5,7,-1
 192 384 l 5,4,-1
128 448 m 5,8,-1
 128 512 l 5,9,-1
 192 512 l 5,10,-1
 192 448 l 5,11,-1
 128 448 l 5,8,-1
64 384 m 5,12,-1
 64 448 l 5,13,-1
 128 448 l 5,14,-1
 128 384 l 5,15,-1
 64 384 l 5,12,-1
64 0 m 1,16,-1
 64 64 l 1,17,-1
 256 64 l 1,18,-1
 256 0 l 1,19,-1
 64 0 l 1,16,-1
0 64 m 1,20,-1
 0 256 l 1,21,-1
 64 256 l 1,22,-1
 64 64 l 1,23,-1
 0 64 l 1,20,-1
256 64 m 1,24,-1
 256 256 l 1,25,-1
 320 256 l 1,26,-1
 320 64 l 1,27,-1
 256 64 l 1,24,-1
64 256 m 1,28,-1
 64 320 l 1,29,-1
 256 320 l 1,30,-1
 256 256 l 1,31,-1
 64 256 l 1,28,-1
EndSplineSet
Validated: 5
EndChar

StartChar: odieresis
Encoding: 246 246 221
Width: 384
Flags: W
LayerCount: 5
Fore
SplineSet
192 384 m 1,0,-1
 192 448 l 1,1,-1
 256 448 l 1,2,-1
 256 384 l 1,3,-1
 192 384 l 1,0,-1
64 384 m 5,4,-1
 64 448 l 5,5,-1
 128 448 l 5,6,-1
 128 384 l 5,7,-1
 64 384 l 5,4,-1
64 0 m 1,8,-1
 64 64 l 1,9,-1
 256 64 l 1,10,-1
 256 0 l 1,11,-1
 64 0 l 1,8,-1
0 64 m 1,12,-1
 0 256 l 1,13,-1
 64 256 l 1,14,-1
 64 64 l 1,15,-1
 0 64 l 1,12,-1
256 64 m 1,16,-1
 256 256 l 1,17,-1
 320 256 l 1,18,-1
 320 64 l 1,19,-1
 256 64 l 1,16,-1
64 256 m 1,20,-1
 64 320 l 1,21,-1
 256 320 l 1,22,-1
 256 256 l 1,23,-1
 64 256 l 1,20,-1
EndSplineSet
Validated: 5
EndChar

StartChar: ntilde
Encoding: 241 241 222
Width: 384
Flags: W
LayerCount: 5
Fore
SplineSet
256 448 m 5,0,-1
 256 512 l 5,1,-1
 320 512 l 5,2,-1
 320 448 l 5,3,-1
 256 448 l 5,0,-1
192 384 m 5,4,-1
 192 448 l 5,5,-1
 256 448 l 5,6,-1
 256 384 l 5,7,-1
 192 384 l 5,4,-1
128 448 m 5,8,-1
 128 512 l 5,9,-1
 192 512 l 5,10,-1
 192 448 l 5,11,-1
 128 448 l 5,8,-1
64 384 m 5,12,-1
 64 448 l 5,13,-1
 128 448 l 5,14,-1
 128 384 l 5,15,-1
 64 384 l 5,12,-1
256 0 m 1,16,-1
 256 256 l 1,17,-1
 320 256 l 1,18,-1
 320 0 l 1,19,-1
 256 0 l 1,16,-1
0 0 m 1,20,-1
 0 320 l 1,21,-1
 256 320 l 1,22,-1
 256 256 l 1,23,-1
 64 256 l 1,24,-1
 64 0 l 1,25,-1
 0 0 l 1,20,-1
EndSplineSet
Validated: 5
EndChar

StartChar: ugrave
Encoding: 249 249 223
Width: 384
Flags: W
LayerCount: 5
Fore
SplineSet
64 448 m 5,0,-1
 64 512 l 5,1,-1
 128 512 l 5,2,-1
 128 448 l 5,3,-1
 64 448 l 5,0,-1
128 384 m 5,4,-1
 128 448 l 5,5,-1
 192 448 l 5,6,-1
 192 384 l 5,7,-1
 128 384 l 5,4,-1
0 64 m 1,8,-1
 0 320 l 1,9,-1
 64 320 l 1,10,-1
 64 64 l 1,11,-1
 0 64 l 1,8,-1
64 0 m 1,12,-1
 64 64 l 1,13,-1
 256 64 l 1,14,-1
 256 320 l 1,15,-1
 320 320 l 1,16,-1
 320 0 l 1,17,-1
 64 0 l 1,12,-1
EndSplineSet
Validated: 5
EndChar

StartChar: uacute
Encoding: 250 250 224
Width: 384
Flags: W
LayerCount: 5
Fore
SplineSet
192 448 m 5,0,-1
 192 512 l 5,1,-1
 256 512 l 5,2,-1
 256 448 l 5,3,-1
 192 448 l 5,0,-1
128 384 m 5,4,-1
 128 448 l 5,5,-1
 192 448 l 5,6,-1
 192 384 l 5,7,-1
 128 384 l 5,4,-1
0 64 m 1,8,-1
 0 320 l 1,9,-1
 64 320 l 1,10,-1
 64 64 l 1,11,-1
 0 64 l 1,8,-1
64 0 m 1,12,-1
 64 64 l 1,13,-1
 256 64 l 1,14,-1
 256 320 l 1,15,-1
 320 320 l 1,16,-1
 320 0 l 1,17,-1
 64 0 l 1,12,-1
EndSplineSet
Validated: 5
EndChar

StartChar: ucircumflex
Encoding: 251 251 225
Width: 384
Flags: W
LayerCount: 5
Fore
SplineSet
192 384 m 5,0,-1
 192 448 l 5,1,-1
 256 448 l 5,2,-1
 256 384 l 5,3,-1
 192 384 l 5,0,-1
64 384 m 5,4,-1
 64 448 l 5,5,-1
 128 448 l 5,6,-1
 128 384 l 5,7,-1
 64 384 l 5,4,-1
128 448 m 5,8,-1
 128 512 l 5,9,-1
 192 512 l 5,10,-1
 192 448 l 5,11,-1
 128 448 l 5,8,-1
0 64 m 1,12,-1
 0 320 l 1,13,-1
 64 320 l 1,14,-1
 64 64 l 1,15,-1
 0 64 l 1,12,-1
64 0 m 1,16,-1
 64 64 l 1,17,-1
 256 64 l 1,18,-1
 256 320 l 1,19,-1
 320 320 l 1,20,-1
 320 0 l 1,21,-1
 64 0 l 1,16,-1
EndSplineSet
Validated: 5
EndChar

StartChar: udieresis
Encoding: 252 252 226
Width: 384
Flags: W
LayerCount: 5
Fore
SplineSet
192 384 m 5,0,-1
 192 448 l 5,1,-1
 256 448 l 5,2,-1
 256 384 l 5,3,-1
 192 384 l 5,0,-1
64 384 m 5,4,-1
 64 448 l 5,5,-1
 128 448 l 5,6,-1
 128 384 l 5,7,-1
 64 384 l 5,4,-1
0 64 m 1,8,-1
 0 320 l 1,9,-1
 64 320 l 1,10,-1
 64 64 l 1,11,-1
 0 64 l 1,8,-1
64 0 m 1,12,-1
 64 64 l 1,13,-1
 256 64 l 1,14,-1
 256 320 l 1,15,-1
 320 320 l 1,16,-1
 320 0 l 1,17,-1
 64 0 l 1,12,-1
EndSplineSet
Validated: 5
EndChar

StartChar: divide
Encoding: 247 247 227
Width: 384
Flags: W
LayerCount: 5
Fore
SplineSet
128 64 m 5,0,-1
 128 128 l 5,1,-1
 192 128 l 5,2,-1
 192 64 l 5,3,-1
 128 64 l 5,0,-1
128 320 m 1,4,-1
 128 384 l 1,5,-1
 192 384 l 1,6,-1
 192 320 l 1,7,-1
 128 320 l 1,4,-1
0 192 m 1,8,-1
 0 256 l 1,9,-1
 320 256 l 1,10,-1
 320 192 l 1,11,-1
 0 192 l 1,8,-1
EndSplineSet
Validated: 1
EndChar

StartChar: Oslash
Encoding: 216 216 228
Width: 512
Flags: W
LayerCount: 5
Fore
SplineSet
0 0 m 1,0,-1
 0 64 l 1,1,-1
 64 64 l 1,2,-1
 64 0 l 1,3,-1
 0 0 l 1,0,-1
384 384 m 1,4,-1
 384 448 l 1,5,-1
 448 448 l 1,6,-1
 448 384 l 1,7,-1
 384 384 l 1,4,-1
128 0 m 1,8,-1
 128 64 l 1,9,-1
 320 64 l 1,10,-1
 320 0 l 1,11,-1
 128 0 l 1,8,-1
192 192 m 1,12,-1
 192 256 l 1,13,-1
 256 256 l 1,14,-1
 256 192 l 1,15,-1
 192 192 l 1,12,-1
64 64 m 1,16,-1
 64 384 l 1,17,-1
 128 384 l 1,18,-1
 128 192 l 1,19,-1
 192 192 l 1,20,-1
 192 128 l 1,21,-1
 128 128 l 1,22,-1
 128 64 l 1,23,-1
 64 64 l 1,16,-1
320 64 m 1,24,-1
 320 256 l 1,25,-1
 256 256 l 1,26,-1
 256 320 l 1,27,-1
 320 320 l 1,28,-1
 320 384 l 1,29,-1
 384 384 l 1,30,-1
 384 64 l 1,31,-1
 320 64 l 1,24,-1
128 384 m 1,32,-1
 128 448 l 1,33,-1
 320 448 l 1,34,-1
 320 384 l 1,35,-1
 128 384 l 1,32,-1
EndSplineSet
Validated: 5
EndChar

StartChar: oslash
Encoding: 248 248 229
Width: 384
Flags: W
LayerCount: 5
Fore
SplineSet
192 192 m 5,0,-1
 192 256 l 5,1,-1
 256 256 l 5,2,-1
 256 192 l 5,3,-1
 192 192 l 5,0,-1
128 128 m 1,4,-1
 128 192 l 1,5,-1
 192 192 l 1,6,-1
 192 128 l 1,7,-1
 128 128 l 1,4,-1
64 64 m 1,8,-1
 64 128 l 1,9,-1
 128 128 l 1,10,-1
 128 64 l 1,11,-1
 64 64 l 1,8,-1
64 0 m 1,12,-1
 64 64 l 1,13,-1
 256 64 l 1,14,-1
 256 0 l 1,15,-1
 64 0 l 1,12,-1
0 64 m 1,16,-1
 0 256 l 1,17,-1
 64 256 l 1,18,-1
 64 64 l 1,19,-1
 0 64 l 1,16,-1
256 64 m 1,20,-1
 256 256 l 1,21,-1
 320 256 l 1,22,-1
 320 64 l 1,23,-1
 256 64 l 1,20,-1
64 256 m 1,24,-1
 64 320 l 1,25,-1
 256 320 l 1,26,-1
 256 256 l 1,27,-1
 64 256 l 1,24,-1
EndSplineSet
Validated: 5
EndChar

StartChar: yacute
Encoding: 253 253 230
Width: 384
Flags: W
LayerCount: 5
Fore
SplineSet
192 448 m 5,0,-1
 192 512 l 5,1,-1
 256 512 l 5,2,-1
 256 448 l 5,3,-1
 192 448 l 5,0,-1
128 384 m 5,4,-1
 128 448 l 5,5,-1
 192 448 l 5,6,-1
 192 384 l 5,7,-1
 128 384 l 5,4,-1
64 -192 m 1,8,-1
 64 -128 l 1,9,-1
 256 -128 l 1,10,-1
 256 -192 l 1,11,-1
 64 -192 l 1,8,-1
0 64 m 1,12,-1
 0 320 l 1,13,-1
 64 320 l 1,14,-1
 64 64 l 1,15,-1
 0 64 l 1,12,-1
256 -128 m 1,16,-1
 256 0 l 1,17,-1
 64 0 l 1,18,-1
 64 64 l 1,19,-1
 256 64 l 1,20,-1
 256 320 l 1,21,-1
 320 320 l 1,22,-1
 320 -128 l 1,23,-1
 256 -128 l 1,16,-1
EndSplineSet
Validated: 5
EndChar

StartChar: ydieresis
Encoding: 255 255 231
Width: 384
Flags: W
LayerCount: 5
Fore
SplineSet
192 384 m 5,0,-1
 192 448 l 5,1,-1
 256 448 l 5,2,-1
 256 384 l 5,3,-1
 192 384 l 5,0,-1
64 384 m 5,4,-1
 64 448 l 5,5,-1
 128 448 l 5,6,-1
 128 384 l 5,7,-1
 64 384 l 5,4,-1
64 -192 m 1,8,-1
 64 -128 l 1,9,-1
 256 -128 l 1,10,-1
 256 -192 l 1,11,-1
 64 -192 l 1,8,-1
0 64 m 1,12,-1
 0 320 l 1,13,-1
 64 320 l 1,14,-1
 64 64 l 1,15,-1
 0 64 l 1,12,-1
256 -128 m 1,16,-1
 256 0 l 1,17,-1
 64 0 l 1,18,-1
 64 64 l 1,19,-1
 256 64 l 1,20,-1
 256 320 l 1,21,-1
 320 320 l 1,22,-1
 320 -128 l 1,23,-1
 256 -128 l 1,16,-1
EndSplineSet
Validated: 5
EndChar

StartChar: Yacute
Encoding: 221 221 232
Width: 384
Flags: W
LayerCount: 5
Fore
SplineSet
192 576 m 5,0,-1
 192 640 l 5,1,-1
 256 640 l 5,2,-1
 256 576 l 5,3,-1
 192 576 l 5,0,-1
128 512 m 5,4,-1
 128 576 l 5,5,-1
 192 576 l 5,6,-1
 192 512 l 5,7,-1
 128 512 l 5,4,-1
128 0 m 1,8,-1
 128 256 l 1,9,-1
 192 256 l 1,10,-1
 192 0 l 1,11,-1
 128 0 l 1,8,-1
64 256 m 1,12,-1
 64 320 l 1,13,-1
 128 320 l 1,14,-1
 128 256 l 1,15,-1
 64 256 l 1,12,-1
192 256 m 1,16,-1
 192 320 l 1,17,-1
 256 320 l 1,18,-1
 256 256 l 1,19,-1
 192 256 l 1,16,-1
0 320 m 1,20,-1
 0 448 l 1,21,-1
 64 448 l 1,22,-1
 64 320 l 1,23,-1
 0 320 l 1,20,-1
256 320 m 1,24,-1
 256 448 l 1,25,-1
 320 448 l 1,26,-1
 320 320 l 1,27,-1
 256 320 l 1,24,-1
EndSplineSet
Validated: 5
EndChar

StartChar: Dcroat
Encoding: 272 272 233
Width: 448
Flags: W
LayerCount: 5
Fore
SplineSet
0 192 m 1,0,-1
 0 256 l 1,1,-1
 64 256 l 1,2,-1
 64 192 l 1,3,-1
 0 192 l 1,0,-1
128 192 m 1,4,-1
 128 256 l 1,5,-1
 192 256 l 1,6,-1
 192 192 l 1,7,-1
 128 192 l 1,4,-1
319 64 m 1,8,-1
 319 384 l 1,9,-1
 383 384 l 1,10,-1
 383 64 l 1,11,-1
 319 64 l 1,8,-1
63 0 m 1,12,-1
 63 448 l 1,13,-1
 319 448 l 1,14,-1
 319 384 l 1,15,-1
 127 384 l 1,16,-1
 127 64 l 1,17,-1
 319 64 l 1,18,-1
 319 0 l 1,19,-1
 63 0 l 1,12,-1
EndSplineSet
Validated: 5
EndChar

StartChar: Lslash
Encoding: 321 321 234
Width: 448
Flags: W
LayerCount: 5
Fore
SplineSet
192 320 m 5,0,-1
 192 384 l 5,1,-1
 256 384 l 5,2,-1
 256 320 l 5,3,-1
 192 320 l 5,0,-1
0 128 m 1,4,-1
 0 192 l 1,5,-1
 64 192 l 1,6,-1
 64 128 l 1,7,-1
 0 128 l 1,4,-1
128 256 m 1,8,-1
 128 320 l 1,9,-1
 192 320 l 1,10,-1
 192 256 l 1,11,-1
 128 256 l 1,8,-1
64 0 m 1,12,-1
 64 448 l 1,13,-1
 128 448 l 1,14,-1
 128 64 l 1,15,-1
 384 64 l 1,16,-1
 384 0 l 1,17,-1
 64 0 l 1,12,-1
EndSplineSet
Validated: 5
EndChar

StartChar: lslash
Encoding: 322 322 235
Width: 256
Flags: W
LayerCount: 5
Fore
SplineSet
0 128 m 1,0,-1
 0 192 l 1,1,-1
 64 192 l 1,2,-1
 64 128 l 1,3,-1
 0 128 l 1,0,-1
128 256 m 1,4,-1
 128 320 l 1,5,-1
 192 320 l 1,6,-1
 192 256 l 1,7,-1
 128 256 l 1,4,-1
64 0 m 1,8,-1
 64 448 l 1,9,-1
 128 448 l 1,10,-1
 128 0 l 1,11,-1
 64 0 l 1,8,-1
EndSplineSet
Validated: 5
EndChar

StartChar: Cacute
Encoding: 262 262 236
Width: 384
Flags: W
LayerCount: 5
Fore
SplineSet
192 576 m 5,0,-1
 192 640 l 5,1,-1
 256 640 l 5,2,-1
 256 576 l 5,3,-1
 192 576 l 5,0,-1
128 512 m 5,4,-1
 128 576 l 5,5,-1
 192 576 l 5,6,-1
 192 512 l 5,7,-1
 128 512 l 5,4,-1
64 0 m 1,8,-1
 64 64 l 1,9,-1
 256 64 l 1,10,-1
 256 0 l 1,11,-1
 64 0 l 1,8,-1
256 64 m 1,12,-1
 256 128 l 1,13,-1
 320 128 l 1,14,-1
 320 64 l 1,15,-1
 256 64 l 1,12,-1
0 64 m 1,16,-1
 0 384 l 1,17,-1
 64 384 l 1,18,-1
 64 64 l 1,19,-1
 0 64 l 1,16,-1
256 320 m 1,20,-1
 256 384 l 1,21,-1
 320 384 l 1,22,-1
 320 320 l 1,23,-1
 256 320 l 1,20,-1
64 384 m 1,24,-1
 64 448 l 1,25,-1
 256 448 l 1,26,-1
 256 384 l 1,27,-1
 64 384 l 1,24,-1
EndSplineSet
Validated: 5
EndChar

StartChar: cacute
Encoding: 263 263 237
Width: 384
Flags: W
LayerCount: 5
Fore
SplineSet
192 448 m 5,0,-1
 192 512 l 5,1,-1
 256 512 l 5,2,-1
 256 448 l 5,3,-1
 192 448 l 5,0,-1
128 384 m 5,4,-1
 128 448 l 5,5,-1
 192 448 l 5,6,-1
 192 384 l 5,7,-1
 128 384 l 5,4,-1
64 0 m 1,8,-1
 64 64 l 1,9,-1
 256 64 l 1,10,-1
 256 0 l 1,11,-1
 64 0 l 1,8,-1
256 64 m 1,12,-1
 256 128 l 1,13,-1
 320 128 l 1,14,-1
 320 64 l 1,15,-1
 256 64 l 1,12,-1
0 64 m 1,16,-1
 0 256 l 1,17,-1
 64 256 l 1,18,-1
 64 64 l 1,19,-1
 0 64 l 1,16,-1
256 192 m 1,20,-1
 256 256 l 1,21,-1
 320 256 l 1,22,-1
 320 192 l 1,23,-1
 256 192 l 1,20,-1
64 256 m 1,24,-1
 64 320 l 1,25,-1
 256 320 l 1,26,-1
 256 256 l 1,27,-1
 64 256 l 1,24,-1
EndSplineSet
Validated: 5
EndChar

StartChar: Ccircumflex
Encoding: 264 264 238
Width: 384
Flags: W
LayerCount: 5
Fore
SplineSet
192 512 m 5,0,-1
 192 576 l 5,1,-1
 256 576 l 5,2,-1
 256 512 l 5,3,-1
 192 512 l 5,0,-1
64 512 m 5,4,-1
 64 576 l 5,5,-1
 128 576 l 5,6,-1
 128 512 l 5,7,-1
 64 512 l 5,4,-1
128 576 m 5,8,-1
 128 640 l 5,9,-1
 192 640 l 5,10,-1
 192 576 l 5,11,-1
 128 576 l 5,8,-1
64 0 m 1,12,-1
 64 64 l 1,13,-1
 256 64 l 1,14,-1
 256 0 l 1,15,-1
 64 0 l 1,12,-1
256 64 m 1,16,-1
 256 128 l 1,17,-1
 320 128 l 1,18,-1
 320 64 l 1,19,-1
 256 64 l 1,16,-1
0 64 m 1,20,-1
 0 384 l 1,21,-1
 64 384 l 1,22,-1
 64 64 l 1,23,-1
 0 64 l 1,20,-1
256 320 m 1,24,-1
 256 384 l 1,25,-1
 320 384 l 1,26,-1
 320 320 l 1,27,-1
 256 320 l 1,24,-1
64 384 m 1,28,-1
 64 448 l 1,29,-1
 256 448 l 1,30,-1
 256 384 l 1,31,-1
 64 384 l 1,28,-1
EndSplineSet
Validated: 5
EndChar

StartChar: Cdotaccent
Encoding: 266 266 239
Width: 384
Flags: W
LayerCount: 5
Fore
SplineSet
128 512 m 5,0,-1
 128 576 l 5,1,-1
 192 576 l 5,2,-1
 192 512 l 5,3,-1
 128 512 l 5,0,-1
64 0 m 1,4,-1
 64 64 l 1,5,-1
 256 64 l 1,6,-1
 256 0 l 1,7,-1
 64 0 l 1,4,-1
256 64 m 1,8,-1
 256 128 l 1,9,-1
 320 128 l 1,10,-1
 320 64 l 1,11,-1
 256 64 l 1,8,-1
0 64 m 1,12,-1
 0 384 l 1,13,-1
 64 384 l 1,14,-1
 64 64 l 1,15,-1
 0 64 l 1,12,-1
256 320 m 1,16,-1
 256 384 l 1,17,-1
 320 384 l 1,18,-1
 320 320 l 1,19,-1
 256 320 l 1,16,-1
64 384 m 1,20,-1
 64 448 l 1,21,-1
 256 448 l 1,22,-1
 256 384 l 1,23,-1
 64 384 l 1,20,-1
EndSplineSet
Validated: 5
EndChar

StartChar: Ccaron
Encoding: 268 268 240
Width: 384
Flags: W
LayerCount: 5
Fore
SplineSet
64 576 m 5,0,-1
 64 640 l 5,1,-1
 128 640 l 5,2,-1
 128 576 l 5,3,-1
 64 576 l 5,0,-1
192 576 m 5,4,-1
 192 640 l 5,5,-1
 256 640 l 5,6,-1
 256 576 l 5,7,-1
 192 576 l 5,4,-1
128 512 m 5,8,-1
 128 576 l 5,9,-1
 192 576 l 5,10,-1
 192 512 l 5,11,-1
 128 512 l 5,8,-1
64 0 m 1,12,-1
 64 64 l 1,13,-1
 256 64 l 1,14,-1
 256 0 l 1,15,-1
 64 0 l 1,12,-1
256 64 m 1,16,-1
 256 128 l 1,17,-1
 320 128 l 1,18,-1
 320 64 l 1,19,-1
 256 64 l 1,16,-1
0 64 m 1,20,-1
 0 384 l 1,21,-1
 64 384 l 1,22,-1
 64 64 l 1,23,-1
 0 64 l 1,20,-1
256 320 m 1,24,-1
 256 384 l 1,25,-1
 320 384 l 1,26,-1
 320 320 l 1,27,-1
 256 320 l 1,24,-1
64 384 m 1,28,-1
 64 448 l 1,29,-1
 256 448 l 1,30,-1
 256 384 l 1,31,-1
 64 384 l 1,28,-1
EndSplineSet
Validated: 5
EndChar

StartChar: ccircumflex
Encoding: 265 265 241
Width: 384
Flags: W
LayerCount: 5
Fore
SplineSet
192 384 m 5,0,-1
 192 448 l 5,1,-1
 256 448 l 5,2,-1
 256 384 l 5,3,-1
 192 384 l 5,0,-1
64 384 m 5,4,-1
 64 448 l 5,5,-1
 128 448 l 5,6,-1
 128 384 l 5,7,-1
 64 384 l 5,4,-1
128 448 m 5,8,-1
 128 512 l 5,9,-1
 192 512 l 5,10,-1
 192 448 l 5,11,-1
 128 448 l 5,8,-1
64 0 m 1,12,-1
 64 64 l 1,13,-1
 256 64 l 1,14,-1
 256 0 l 1,15,-1
 64 0 l 1,12,-1
256 64 m 1,16,-1
 256 128 l 1,17,-1
 320 128 l 1,18,-1
 320 64 l 1,19,-1
 256 64 l 1,16,-1
0 64 m 1,20,-1
 0 256 l 1,21,-1
 64 256 l 1,22,-1
 64 64 l 1,23,-1
 0 64 l 1,20,-1
256 192 m 1,24,-1
 256 256 l 1,25,-1
 320 256 l 1,26,-1
 320 192 l 1,27,-1
 256 192 l 1,24,-1
64 256 m 1,28,-1
 64 320 l 1,29,-1
 256 320 l 1,30,-1
 256 256 l 1,31,-1
 64 256 l 1,28,-1
EndSplineSet
Validated: 5
EndChar

StartChar: cdotaccent
Encoding: 267 267 242
Width: 384
Flags: W
LayerCount: 5
Fore
SplineSet
128 384 m 5,0,-1
 128 448 l 5,1,-1
 192 448 l 5,2,-1
 192 384 l 5,3,-1
 128 384 l 5,0,-1
64 0 m 1,4,-1
 64 64 l 1,5,-1
 256 64 l 1,6,-1
 256 0 l 1,7,-1
 64 0 l 1,4,-1
256 64 m 1,8,-1
 256 128 l 1,9,-1
 320 128 l 1,10,-1
 320 64 l 1,11,-1
 256 64 l 1,8,-1
0 64 m 1,12,-1
 0 256 l 1,13,-1
 64 256 l 1,14,-1
 64 64 l 1,15,-1
 0 64 l 1,12,-1
256 192 m 1,16,-1
 256 256 l 1,17,-1
 320 256 l 1,18,-1
 320 192 l 1,19,-1
 256 192 l 1,16,-1
64 256 m 1,20,-1
 64 320 l 1,21,-1
 256 320 l 1,22,-1
 256 256 l 1,23,-1
 64 256 l 1,20,-1
EndSplineSet
Validated: 5
EndChar

StartChar: ccaron
Encoding: 269 269 243
Width: 384
Flags: W
LayerCount: 5
Fore
SplineSet
64 448 m 5,0,-1
 64 512 l 5,1,-1
 128 512 l 5,2,-1
 128 448 l 5,3,-1
 64 448 l 5,0,-1
192 448 m 5,4,-1
 192 512 l 5,5,-1
 256 512 l 5,6,-1
 256 448 l 5,7,-1
 192 448 l 5,4,-1
128 384 m 5,8,-1
 128 448 l 5,9,-1
 192 448 l 5,10,-1
 192 384 l 5,11,-1
 128 384 l 5,8,-1
64 0 m 1,12,-1
 64 64 l 1,13,-1
 256 64 l 1,14,-1
 256 0 l 1,15,-1
 64 0 l 1,12,-1
256 64 m 1,16,-1
 256 128 l 1,17,-1
 320 128 l 1,18,-1
 320 64 l 1,19,-1
 256 64 l 1,16,-1
0 64 m 1,20,-1
 0 256 l 1,21,-1
 64 256 l 1,22,-1
 64 64 l 1,23,-1
 0 64 l 1,20,-1
256 192 m 1,24,-1
 256 256 l 1,25,-1
 320 256 l 1,26,-1
 320 192 l 1,27,-1
 256 192 l 1,24,-1
64 256 m 1,28,-1
 64 320 l 1,29,-1
 256 320 l 1,30,-1
 256 256 l 1,31,-1
 64 256 l 1,28,-1
EndSplineSet
Validated: 5
EndChar

StartChar: Amacron
Encoding: 256 256 244
Width: 384
Flags: W
LayerCount: 5
Fore
SplineSet
64 512 m 5,0,-1
 64 576 l 5,1,-1
 256 576 l 5,2,-1
 256 512 l 5,3,-1
 64 512 l 5,0,-1
0 0 m 1,4,-1
 0 320 l 1,5,-1
 64 320 l 1,6,-1
 64 256 l 1,7,-1
 256 256 l 1,8,-1
 256 320 l 1,9,-1
 320 320 l 1,10,-1
 320 0 l 1,11,-1
 256 0 l 1,12,-1
 256 192 l 1,13,-1
 64 192 l 1,14,-1
 64 0 l 1,15,-1
 0 0 l 1,4,-1
64 320 m 1,16,-1
 64 384 l 1,17,-1
 128 384 l 1,18,-1
 128 320 l 1,19,-1
 64 320 l 1,16,-1
192 320 m 1,20,-1
 192 384 l 1,21,-1
 256 384 l 1,22,-1
 256 320 l 1,23,-1
 192 320 l 1,20,-1
128 384 m 1,24,-1
 128 448 l 1,25,-1
 192 448 l 1,26,-1
 192 384 l 1,27,-1
 128 384 l 1,24,-1
EndSplineSet
Validated: 5
EndChar

StartChar: amacron
Encoding: 257 257 245
Width: 384
Flags: W
LayerCount: 5
Fore
SplineSet
64 384 m 5,0,-1
 64 448 l 5,1,-1
 256 448 l 5,2,-1
 256 384 l 5,3,-1
 64 384 l 5,0,-1
0 64 m 1,4,-1
 0 128 l 1,5,-1
 64 128 l 1,6,-1
 64 64 l 1,7,-1
 0 64 l 1,4,-1
64 0 m 1,8,-1
 64 64 l 1,9,-1
 256 64 l 1,10,-1
 256 128 l 1,11,-1
 64 128 l 1,12,-1
 64 192 l 1,13,-1
 256 192 l 1,14,-1
 256 256 l 1,15,-1
 320 256 l 1,16,-1
 320 0 l 1,17,-1
 64 0 l 1,8,-1
64 256 m 1,18,-1
 64 320 l 1,19,-1
 256 320 l 1,20,-1
 256 256 l 1,21,-1
 64 256 l 1,18,-1
EndSplineSet
Validated: 5
EndChar

StartChar: Abreve
Encoding: 258 258 246
Width: 384
Flags: W
LayerCount: 5
Fore
SplineSet
0 576 m 5,0,-1
 0 640 l 5,1,-1
 64 640 l 5,2,-1
 64 576 l 5,3,-1
 0 576 l 5,0,-1
256 576 m 5,4,-1
 256 640 l 5,5,-1
 320 640 l 5,6,-1
 320 576 l 5,7,-1
 256 576 l 5,4,-1
64 512 m 5,8,-1
 64 576 l 5,9,-1
 256 576 l 5,10,-1
 256 512 l 5,11,-1
 64 512 l 5,8,-1
0 0 m 1,12,-1
 0 320 l 1,13,-1
 64 320 l 1,14,-1
 64 256 l 1,15,-1
 256 256 l 1,16,-1
 256 320 l 1,17,-1
 320 320 l 1,18,-1
 320 0 l 1,19,-1
 256 0 l 1,20,-1
 256 192 l 1,21,-1
 64 192 l 1,22,-1
 64 0 l 1,23,-1
 0 0 l 1,12,-1
64 320 m 1,24,-1
 64 384 l 1,25,-1
 128 384 l 1,26,-1
 128 320 l 1,27,-1
 64 320 l 1,24,-1
192 320 m 1,28,-1
 192 384 l 1,29,-1
 256 384 l 1,30,-1
 256 320 l 1,31,-1
 192 320 l 1,28,-1
128 384 m 1,32,-1
 128 448 l 1,33,-1
 192 448 l 1,34,-1
 192 384 l 1,35,-1
 128 384 l 1,32,-1
EndSplineSet
EndChar

StartChar: abreve
Encoding: 259 259 247
Width: 384
Flags: W
LayerCount: 5
Fore
SplineSet
0 448 m 5,0,-1
 0 512 l 5,1,-1
 64 512 l 5,2,-1
 64 448 l 5,3,-1
 0 448 l 5,0,-1
256 448 m 5,4,-1
 256 512 l 5,5,-1
 320 512 l 5,6,-1
 320 448 l 5,7,-1
 256 448 l 5,4,-1
64 384 m 5,8,-1
 64 448 l 5,9,-1
 256 448 l 5,10,-1
 256 384 l 5,11,-1
 64 384 l 5,8,-1
0 64 m 1,12,-1
 0 128 l 1,13,-1
 64 128 l 1,14,-1
 64 64 l 1,15,-1
 0 64 l 1,12,-1
64 0 m 1,16,-1
 64 64 l 1,17,-1
 256 64 l 1,18,-1
 256 128 l 1,19,-1
 64 128 l 1,20,-1
 64 192 l 1,21,-1
 256 192 l 1,22,-1
 256 256 l 1,23,-1
 320 256 l 1,24,-1
 320 0 l 1,25,-1
 64 0 l 1,16,-1
64 256 m 1,26,-1
 64 320 l 1,27,-1
 256 320 l 1,28,-1
 256 256 l 1,29,-1
 64 256 l 1,26,-1
EndSplineSet
EndChar

StartChar: Aogonek
Encoding: 260 260 248
Width: 384
Flags: W
LayerCount: 5
Fore
SplineSet
256 -128 m 5,0,-1
 256 -64 l 5,1,-1
 320 -64 l 5,2,-1
 320 -128 l 5,3,-1
 256 -128 l 5,0,-1
192 -64 m 5,4,-1
 192 0 l 5,5,-1
 256 0 l 5,6,-1
 256 -64 l 5,7,-1
 192 -64 l 5,4,-1
0 0 m 1,8,-1
 0 320 l 1,9,-1
 64 320 l 1,10,-1
 64 256 l 1,11,-1
 256 256 l 1,12,-1
 256 320 l 1,13,-1
 320 320 l 1,14,-1
 320 0 l 1,15,-1
 256 0 l 1,16,-1
 256 192 l 1,17,-1
 64 192 l 1,18,-1
 64 0 l 1,19,-1
 0 0 l 1,8,-1
64 320 m 1,20,-1
 64 384 l 1,21,-1
 128 384 l 1,22,-1
 128 320 l 1,23,-1
 64 320 l 1,20,-1
192 320 m 1,24,-1
 192 384 l 1,25,-1
 256 384 l 1,26,-1
 256 320 l 1,27,-1
 192 320 l 1,24,-1
128 384 m 1,28,-1
 128 448 l 1,29,-1
 192 448 l 1,30,-1
 192 384 l 1,31,-1
 128 384 l 1,28,-1
EndSplineSet
Validated: 5
EndChar

StartChar: aogonek
Encoding: 261 261 249
Width: 384
Flags: W
LayerCount: 5
Fore
SplineSet
256 -128 m 5,0,-1
 256 -64 l 5,1,-1
 320 -64 l 5,2,-1
 320 -128 l 5,3,-1
 256 -128 l 5,0,-1
192 -64 m 5,4,-1
 192 0 l 5,5,-1
 256 0 l 5,6,-1
 256 -64 l 5,7,-1
 192 -64 l 5,4,-1
0 64 m 1,8,-1
 0 128 l 1,9,-1
 64 128 l 1,10,-1
 64 64 l 1,11,-1
 0 64 l 1,8,-1
64 0 m 1,12,-1
 64 64 l 1,13,-1
 256 64 l 1,14,-1
 256 128 l 1,15,-1
 64 128 l 1,16,-1
 64 192 l 1,17,-1
 256 192 l 1,18,-1
 256 256 l 1,19,-1
 320 256 l 1,20,-1
 320 0 l 1,21,-1
 64 0 l 1,12,-1
64 256 m 1,22,-1
 64 320 l 1,23,-1
 256 320 l 1,24,-1
 256 256 l 1,25,-1
 64 256 l 1,22,-1
EndSplineSet
Validated: 5
EndChar

StartChar: Dcaron
Encoding: 270 270 250
Width: 384
Flags: W
LayerCount: 5
Fore
SplineSet
64 576 m 1,0,-1
 64 640 l 1,1,-1
 128 640 l 1,2,-1
 128 576 l 1,3,-1
 64 576 l 1,0,-1
192 576 m 1,4,-1
 192 640 l 1,5,-1
 256 640 l 1,6,-1
 256 576 l 1,7,-1
 192 576 l 1,4,-1
128 512 m 5,8,-1
 128 576 l 5,9,-1
 192 576 l 5,10,-1
 192 512 l 5,11,-1
 128 512 l 5,8,-1
256 64 m 1,12,-1
 256 384 l 1,13,-1
 320 384 l 1,14,-1
 320 64 l 1,15,-1
 256 64 l 1,12,-1
0 0 m 1,16,-1
 0 448 l 1,17,-1
 256 448 l 1,18,-1
 256 384 l 1,19,-1
 64 384 l 1,20,-1
 64 64 l 1,21,-1
 256 64 l 1,22,-1
 256 0 l 1,23,-1
 0 0 l 1,16,-1
EndSplineSet
Validated: 5
EndChar

StartChar: Emacron
Encoding: 274 274 251
Width: 384
Flags: W
LayerCount: 5
Fore
SplineSet
64 512 m 1,0,-1
 64 576 l 1,1,-1
 256 576 l 1,2,-1
 256 512 l 1,3,-1
 64 512 l 1,0,-1
0 0 m 1,4,-1
 0 448 l 1,5,-1
 320 448 l 1,6,-1
 320 384 l 1,7,-1
 64 384 l 1,8,-1
 64 256 l 1,9,-1
 256 256 l 1,10,-1
 256 192 l 1,11,-1
 64 192 l 1,12,-1
 64 64 l 1,13,-1
 320 64 l 1,14,-1
 320 0 l 1,15,-1
 0 0 l 1,4,-1
EndSplineSet
Validated: 1
EndChar

StartChar: Ebreve
Encoding: 276 276 252
Width: 384
Flags: W
LayerCount: 5
Fore
SplineSet
0 576 m 5,0,-1
 0 640 l 5,1,-1
 64 640 l 5,2,-1
 64 576 l 5,3,-1
 0 576 l 5,0,-1
256 576 m 5,4,-1
 256 640 l 5,5,-1
 320 640 l 5,6,-1
 320 576 l 5,7,-1
 256 576 l 5,4,-1
64 512 m 5,8,-1
 64 576 l 5,9,-1
 256 576 l 5,10,-1
 256 512 l 5,11,-1
 64 512 l 5,8,-1
0 0 m 1,12,-1
 0 448 l 1,13,-1
 320 448 l 1,14,-1
 320 384 l 1,15,-1
 64 384 l 1,16,-1
 64 256 l 1,17,-1
 256 256 l 1,18,-1
 256 192 l 1,19,-1
 64 192 l 1,20,-1
 64 64 l 1,21,-1
 320 64 l 1,22,-1
 320 0 l 1,23,-1
 0 0 l 1,12,-1
EndSplineSet
EndChar

StartChar: Edotaccent
Encoding: 278 278 253
Width: 384
Flags: W
LayerCount: 5
Fore
SplineSet
128 512 m 5,0,-1
 128 576 l 5,1,-1
 192 576 l 5,2,-1
 192 512 l 5,3,-1
 128 512 l 5,0,-1
0 0 m 1,4,-1
 0 448 l 1,5,-1
 320 448 l 1,6,-1
 320 384 l 1,7,-1
 64 384 l 1,8,-1
 64 256 l 1,9,-1
 256 256 l 1,10,-1
 256 192 l 1,11,-1
 64 192 l 1,12,-1
 64 64 l 1,13,-1
 320 64 l 1,14,-1
 320 0 l 1,15,-1
 0 0 l 1,4,-1
EndSplineSet
EndChar

StartChar: Eogonek
Encoding: 280 280 254
Width: 384
Flags: W
LayerCount: 5
Fore
SplineSet
256 -128 m 5,0,-1
 256 -64 l 5,1,-1
 320 -64 l 5,2,-1
 320 -128 l 5,3,-1
 256 -128 l 5,0,-1
192 -64 m 5,4,-1
 192 0 l 5,5,-1
 256 0 l 5,6,-1
 256 -64 l 5,7,-1
 192 -64 l 5,4,-1
0 0 m 1,8,-1
 0 448 l 1,9,-1
 320 448 l 1,10,-1
 320 384 l 1,11,-1
 64 384 l 1,12,-1
 64 256 l 1,13,-1
 256 256 l 1,14,-1
 256 192 l 1,15,-1
 64 192 l 1,16,-1
 64 64 l 1,17,-1
 320 64 l 1,18,-1
 320 0 l 1,19,-1
 0 0 l 1,8,-1
EndSplineSet
EndChar

StartChar: Ecaron
Encoding: 282 282 255
Width: 384
Flags: W
LayerCount: 5
Fore
SplineSet
64 576 m 5,0,-1
 64 640 l 5,1,-1
 128 640 l 5,2,-1
 128 576 l 5,3,-1
 64 576 l 5,0,-1
192 576 m 5,4,-1
 192 640 l 5,5,-1
 256 640 l 5,6,-1
 256 576 l 5,7,-1
 192 576 l 5,4,-1
128 512 m 5,8,-1
 128 576 l 5,9,-1
 192 576 l 5,10,-1
 192 512 l 5,11,-1
 128 512 l 5,8,-1
0 0 m 1,12,-1
 0 448 l 1,13,-1
 320 448 l 1,14,-1
 320 384 l 1,15,-1
 64 384 l 1,16,-1
 64 256 l 1,17,-1
 256 256 l 1,18,-1
 256 192 l 1,19,-1
 64 192 l 1,20,-1
 64 64 l 1,21,-1
 320 64 l 1,22,-1
 320 0 l 1,23,-1
 0 0 l 1,12,-1
EndSplineSet
Validated: 5
EndChar

StartChar: emacron
Encoding: 275 275 256
Width: 384
Flags: W
LayerCount: 5
Fore
SplineSet
64 384 m 5,0,-1
 64 448 l 5,1,-1
 256 448 l 5,2,-1
 256 384 l 5,3,-1
 64 384 l 5,0,-1
64 0 m 1,4,-1
 64 64 l 1,5,-1
 320 64 l 1,6,-1
 320 0 l 1,7,-1
 64 0 l 1,4,-1
0 64 m 1,8,-1
 0 256 l 1,9,-1
 64 256 l 1,10,-1
 64 192 l 1,11,-1
 256 192 l 1,12,-1
 256 256 l 1,13,-1
 320 256 l 1,14,-1
 320 128 l 1,15,-1
 64 128 l 1,16,-1
 64 64 l 1,17,-1
 0 64 l 1,8,-1
64 256 m 1,18,-1
 64 320 l 1,19,-1
 256 320 l 1,20,-1
 256 256 l 1,21,-1
 64 256 l 1,18,-1
EndSplineSet
Validated: 5
EndChar

StartChar: ebreve
Encoding: 277 277 257
Width: 384
Flags: W
LayerCount: 5
Fore
SplineSet
0 448 m 5,0,-1
 0 512 l 5,1,-1
 64 512 l 5,2,-1
 64 448 l 5,3,-1
 0 448 l 5,0,-1
256 448 m 5,4,-1
 256 512 l 5,5,-1
 320 512 l 5,6,-1
 320 448 l 5,7,-1
 256 448 l 5,4,-1
64 384 m 5,8,-1
 64 448 l 5,9,-1
 256 448 l 5,10,-1
 256 384 l 5,11,-1
 64 384 l 5,8,-1
64 0 m 1,12,-1
 64 64 l 1,13,-1
 320 64 l 1,14,-1
 320 0 l 1,15,-1
 64 0 l 1,12,-1
0 64 m 1,16,-1
 0 256 l 1,17,-1
 64 256 l 1,18,-1
 64 192 l 1,19,-1
 256 192 l 1,20,-1
 256 256 l 1,21,-1
 320 256 l 1,22,-1
 320 128 l 1,23,-1
 64 128 l 1,24,-1
 64 64 l 1,25,-1
 0 64 l 1,16,-1
64 256 m 1,26,-1
 64 320 l 1,27,-1
 256 320 l 1,28,-1
 256 256 l 1,29,-1
 64 256 l 1,26,-1
EndSplineSet
EndChar

StartChar: edotaccent
Encoding: 279 279 258
Width: 384
Flags: W
LayerCount: 5
Fore
SplineSet
128 384 m 5,0,-1
 128 448 l 5,1,-1
 192 448 l 5,2,-1
 192 384 l 5,3,-1
 128 384 l 5,0,-1
64 0 m 1,4,-1
 64 64 l 1,5,-1
 320 64 l 1,6,-1
 320 0 l 1,7,-1
 64 0 l 1,4,-1
0 64 m 1,8,-1
 0 256 l 1,9,-1
 64 256 l 1,10,-1
 64 192 l 1,11,-1
 256 192 l 1,12,-1
 256 256 l 1,13,-1
 320 256 l 1,14,-1
 320 128 l 1,15,-1
 64 128 l 1,16,-1
 64 64 l 1,17,-1
 0 64 l 1,8,-1
64 256 m 1,18,-1
 64 320 l 1,19,-1
 256 320 l 1,20,-1
 256 256 l 1,21,-1
 64 256 l 1,18,-1
EndSplineSet
EndChar

StartChar: eogonek
Encoding: 281 281 259
Width: 384
Flags: W
LayerCount: 5
Fore
SplineSet
256 -128 m 5,0,-1
 256 -64 l 5,1,-1
 320 -64 l 5,2,-1
 320 -128 l 5,3,-1
 256 -128 l 5,0,-1
192 -64 m 5,4,-1
 192 0 l 5,5,-1
 256 0 l 5,6,-1
 256 -64 l 5,7,-1
 192 -64 l 5,4,-1
64 0 m 1,8,-1
 64 64 l 1,9,-1
 320 64 l 1,10,-1
 320 0 l 1,11,-1
 64 0 l 1,8,-1
0 64 m 1,12,-1
 0 256 l 1,13,-1
 64 256 l 1,14,-1
 64 192 l 1,15,-1
 256 192 l 1,16,-1
 256 256 l 1,17,-1
 320 256 l 1,18,-1
 320 128 l 1,19,-1
 64 128 l 1,20,-1
 64 64 l 1,21,-1
 0 64 l 1,12,-1
64 256 m 1,22,-1
 64 320 l 1,23,-1
 256 320 l 1,24,-1
 256 256 l 1,25,-1
 64 256 l 1,22,-1
EndSplineSet
EndChar

StartChar: ecaron
Encoding: 283 283 260
Width: 384
Flags: W
LayerCount: 5
Fore
SplineSet
64 448 m 5,0,-1
 64 512 l 5,1,-1
 128 512 l 5,2,-1
 128 448 l 5,3,-1
 64 448 l 5,0,-1
192 448 m 5,4,-1
 192 512 l 5,5,-1
 256 512 l 5,6,-1
 256 448 l 5,7,-1
 192 448 l 5,4,-1
128 384 m 5,8,-1
 128 448 l 5,9,-1
 192 448 l 5,10,-1
 192 384 l 5,11,-1
 128 384 l 5,8,-1
64 0 m 1,12,-1
 64 64 l 1,13,-1
 320 64 l 1,14,-1
 320 0 l 1,15,-1
 64 0 l 1,12,-1
0 64 m 1,16,-1
 0 256 l 1,17,-1
 64 256 l 1,18,-1
 64 192 l 1,19,-1
 256 192 l 1,20,-1
 256 256 l 1,21,-1
 320 256 l 1,22,-1
 320 128 l 1,23,-1
 64 128 l 1,24,-1
 64 64 l 1,25,-1
 0 64 l 1,16,-1
64 256 m 1,26,-1
 64 320 l 1,27,-1
 256 320 l 1,28,-1
 256 256 l 1,29,-1
 64 256 l 1,26,-1
EndSplineSet
Validated: 5
EndChar

StartChar: dcaron
Encoding: 271 271 261
Width: 512
Flags: W
LayerCount: 5
Fore
SplineSet
384 320 m 1,0,-1
 384 448 l 1,1,-1
 448 448 l 1,2,-1
 448 320 l 1,3,-1
 384 320 l 1,0,-1
0 64 m 1,4,-1
 0 256 l 1,5,-1
 64 256 l 1,6,-1
 64 64 l 1,7,-1
 0 64 l 1,4,-1
64 0 m 1,8,-1
 64 64 l 1,9,-1
 256 64 l 1,10,-1
 256 256 l 1,11,-1
 64 256 l 1,12,-1
 64 320 l 1,13,-1
 256 320 l 1,14,-1
 256 448 l 1,15,-1
 320 448 l 1,16,-1
 320 0 l 1,17,-1
 64 0 l 1,8,-1
EndSplineSet
Validated: 5
EndChar

StartChar: Gcircumflex
Encoding: 284 284 262
Width: 384
Flags: W
LayerCount: 5
Fore
SplineSet
192 512 m 5,0,-1
 192 576 l 5,1,-1
 256 576 l 5,2,-1
 256 512 l 5,3,-1
 192 512 l 5,0,-1
64 512 m 5,4,-1
 64 576 l 5,5,-1
 128 576 l 5,6,-1
 128 512 l 5,7,-1
 64 512 l 5,4,-1
128 576 m 5,8,-1
 128 640 l 5,9,-1
 192 640 l 5,10,-1
 192 576 l 5,11,-1
 128 576 l 5,8,-1
64 0 m 1,12,-1
 64 64 l 1,13,-1
 256 64 l 1,14,-1
 256 0 l 1,15,-1
 64 0 l 1,12,-1
256 64 m 1,16,-1
 256 192 l 1,17,-1
 128 192 l 1,18,-1
 128 256 l 1,19,-1
 320 256 l 1,20,-1
 320 64 l 1,21,-1
 256 64 l 1,16,-1
0 64 m 1,22,-1
 0 384 l 1,23,-1
 64 384 l 1,24,-1
 64 64 l 1,25,-1
 0 64 l 1,22,-1
64 384 m 1,26,-1
 64 448 l 1,27,-1
 256 448 l 1,28,-1
 256 384 l 1,29,-1
 64 384 l 1,26,-1
EndSplineSet
EndChar

StartChar: Gbreve
Encoding: 286 286 263
Width: 384
Flags: W
LayerCount: 5
Fore
SplineSet
0 576 m 5,0,-1
 0 640 l 5,1,-1
 64 640 l 5,2,-1
 64 576 l 5,3,-1
 0 576 l 5,0,-1
256 576 m 5,4,-1
 256 640 l 5,5,-1
 320 640 l 5,6,-1
 320 576 l 5,7,-1
 256 576 l 5,4,-1
64 512 m 5,8,-1
 64 576 l 5,9,-1
 256 576 l 5,10,-1
 256 512 l 5,11,-1
 64 512 l 5,8,-1
64 0 m 1,12,-1
 64 64 l 1,13,-1
 256 64 l 1,14,-1
 256 0 l 1,15,-1
 64 0 l 1,12,-1
256 64 m 1,16,-1
 256 192 l 1,17,-1
 128 192 l 1,18,-1
 128 256 l 1,19,-1
 320 256 l 1,20,-1
 320 64 l 1,21,-1
 256 64 l 1,16,-1
0 64 m 1,22,-1
 0 384 l 1,23,-1
 64 384 l 1,24,-1
 64 64 l 1,25,-1
 0 64 l 1,22,-1
64 384 m 1,26,-1
 64 448 l 1,27,-1
 256 448 l 1,28,-1
 256 384 l 1,29,-1
 64 384 l 1,26,-1
EndSplineSet
EndChar

StartChar: Gdotaccent
Encoding: 288 288 264
Width: 384
Flags: W
LayerCount: 5
Fore
SplineSet
128 512 m 5,0,-1
 128 576 l 5,1,-1
 192 576 l 5,2,-1
 192 512 l 5,3,-1
 128 512 l 5,0,-1
64 0 m 1,4,-1
 64 64 l 1,5,-1
 256 64 l 1,6,-1
 256 0 l 1,7,-1
 64 0 l 1,4,-1
256 64 m 1,8,-1
 256 192 l 1,9,-1
 128 192 l 1,10,-1
 128 256 l 1,11,-1
 320 256 l 1,12,-1
 320 64 l 1,13,-1
 256 64 l 1,8,-1
0 64 m 1,14,-1
 0 384 l 1,15,-1
 64 384 l 1,16,-1
 64 64 l 1,17,-1
 0 64 l 1,14,-1
64 384 m 1,18,-1
 64 448 l 1,19,-1
 256 448 l 1,20,-1
 256 384 l 1,21,-1
 64 384 l 1,18,-1
EndSplineSet
EndChar

StartChar: uni0122
Encoding: 290 290 265
Width: 384
Flags: W
LayerCount: 5
Fore
SplineSet
64 -128 m 5,0,-1
 64 -64 l 5,1,-1
 192 -64 l 5,2,-1
 192 -128 l 5,3,-1
 64 -128 l 5,0,-1
192 -64 m 5,4,-1
 192 0 l 5,5,-1
 256 0 l 5,6,-1
 256 -64 l 5,7,-1
 192 -64 l 5,4,-1
64 0 m 1,8,-1
 64 64 l 1,9,-1
 256 64 l 1,10,-1
 256 0 l 1,11,-1
 64 0 l 1,8,-1
256 64 m 1,12,-1
 256 192 l 1,13,-1
 128 192 l 1,14,-1
 128 256 l 1,15,-1
 320 256 l 1,16,-1
 320 64 l 1,17,-1
 256 64 l 1,12,-1
0 64 m 1,18,-1
 0 384 l 1,19,-1
 64 384 l 1,20,-1
 64 64 l 1,21,-1
 0 64 l 1,18,-1
64 384 m 1,22,-1
 64 448 l 1,23,-1
 256 448 l 1,24,-1
 256 384 l 1,25,-1
 64 384 l 1,22,-1
EndSplineSet
EndChar

StartChar: dcroat
Encoding: 273 273 266
Width: 448
Flags: W
LayerCount: 5
Fore
SplineSet
128 384 m 1,0,-1
 128 448 l 1,1,-1
 384 448 l 1,2,-1
 384 384 l 1,3,-1
 128 384 l 1,0,-1
0 64 m 1,4,-1
 0 256 l 1,5,-1
 64 256 l 1,6,-1
 64 64 l 1,7,-1
 0 64 l 1,4,-1
64 0 m 1,8,-1
 64 64 l 1,9,-1
 256 64 l 1,10,-1
 256 256 l 1,11,-1
 64 256 l 1,12,-1
 64 320 l 1,13,-1
 256 320 l 1,14,-1
 256 512 l 1,15,-1
 320 512 l 1,16,-1
 320 0 l 1,17,-1
 64 0 l 1,8,-1
EndSplineSet
EndChar

StartChar: gdotaccent
Encoding: 289 289 267
Width: 384
Flags: W
LayerCount: 5
Fore
SplineSet
128 384 m 5,0,-1
 128 448 l 5,1,-1
 192 448 l 5,2,-1
 192 384 l 5,3,-1
 128 384 l 5,0,-1
64 -192 m 1,4,-1
 64 -128 l 1,5,-1
 256 -128 l 1,6,-1
 256 -192 l 1,7,-1
 64 -192 l 1,4,-1
0 64 m 1,8,-1
 0 256 l 1,9,-1
 64 256 l 1,10,-1
 64 64 l 1,11,-1
 0 64 l 1,8,-1
256 -128 m 1,12,-1
 256 0 l 1,13,-1
 64 0 l 1,14,-1
 64 64 l 1,15,-1
 256 64 l 1,16,-1
 256 256 l 1,17,-1
 64 256 l 1,18,-1
 64 320 l 1,19,-1
 320 320 l 1,20,-1
 320 -128 l 1,21,-1
 256 -128 l 1,12,-1
EndSplineSet
EndChar

StartChar: uni0123
Encoding: 291 291 268
Width: 384
Flags: W
LayerCount: 5
Fore
SplineSet
192 448 m 5,0,-1
 192 512 l 5,1,-1
 256 512 l 5,2,-1
 256 448 l 5,3,-1
 192 448 l 5,0,-1
128 384 m 5,4,-1
 128 448 l 5,5,-1
 192 448 l 5,6,-1
 192 384 l 5,7,-1
 128 384 l 5,4,-1
64 -192 m 1,8,-1
 64 -128 l 1,9,-1
 256 -128 l 1,10,-1
 256 -192 l 1,11,-1
 64 -192 l 1,8,-1
0 64 m 1,12,-1
 0 256 l 1,13,-1
 64 256 l 1,14,-1
 64 64 l 1,15,-1
 0 64 l 1,12,-1
256 -128 m 1,16,-1
 256 0 l 1,17,-1
 64 0 l 1,18,-1
 64 64 l 1,19,-1
 256 64 l 1,20,-1
 256 256 l 1,21,-1
 64 256 l 1,22,-1
 64 320 l 1,23,-1
 320 320 l 1,24,-1
 320 -128 l 1,25,-1
 256 -128 l 1,16,-1
EndSplineSet
EndChar

StartChar: gcircumflex
Encoding: 285 285 269
Width: 384
Flags: W
LayerCount: 5
Fore
SplineSet
192 384 m 5,0,-1
 192 448 l 5,1,-1
 256 448 l 5,2,-1
 256 384 l 5,3,-1
 192 384 l 5,0,-1
64 384 m 5,4,-1
 64 448 l 5,5,-1
 128 448 l 5,6,-1
 128 384 l 5,7,-1
 64 384 l 5,4,-1
128 448 m 5,8,-1
 128 512 l 5,9,-1
 192 512 l 5,10,-1
 192 448 l 5,11,-1
 128 448 l 5,8,-1
64 -192 m 1,12,-1
 64 -128 l 1,13,-1
 256 -128 l 1,14,-1
 256 -192 l 1,15,-1
 64 -192 l 1,12,-1
0 64 m 1,16,-1
 0 256 l 1,17,-1
 64 256 l 1,18,-1
 64 64 l 1,19,-1
 0 64 l 1,16,-1
256 -128 m 1,20,-1
 256 0 l 1,21,-1
 64 0 l 1,22,-1
 64 64 l 1,23,-1
 256 64 l 1,24,-1
 256 256 l 1,25,-1
 64 256 l 1,26,-1
 64 320 l 1,27,-1
 320 320 l 1,28,-1
 320 -128 l 1,29,-1
 256 -128 l 1,20,-1
EndSplineSet
EndChar

StartChar: gbreve
Encoding: 287 287 270
Width: 384
Flags: W
LayerCount: 5
Fore
SplineSet
0 448 m 5,0,-1
 0 512 l 5,1,-1
 64 512 l 5,2,-1
 64 448 l 5,3,-1
 0 448 l 5,0,-1
256 448 m 5,4,-1
 256 512 l 5,5,-1
 320 512 l 5,6,-1
 320 448 l 5,7,-1
 256 448 l 5,4,-1
64 384 m 5,8,-1
 64 448 l 5,9,-1
 256 448 l 5,10,-1
 256 384 l 5,11,-1
 64 384 l 5,8,-1
64 -192 m 1,12,-1
 64 -128 l 1,13,-1
 256 -128 l 1,14,-1
 256 -192 l 1,15,-1
 64 -192 l 1,12,-1
0 64 m 1,16,-1
 0 256 l 1,17,-1
 64 256 l 1,18,-1
 64 64 l 1,19,-1
 0 64 l 1,16,-1
256 -128 m 1,20,-1
 256 0 l 1,21,-1
 64 0 l 1,22,-1
 64 64 l 1,23,-1
 256 64 l 1,24,-1
 256 256 l 1,25,-1
 64 256 l 1,26,-1
 64 320 l 1,27,-1
 320 320 l 1,28,-1
 320 -128 l 1,29,-1
 256 -128 l 1,20,-1
EndSplineSet
EndChar

StartChar: Hcircumflex
Encoding: 292 292 271
Width: 384
Flags: W
LayerCount: 5
Fore
SplineSet
192 512 m 5,0,-1
 192 576 l 5,1,-1
 256 576 l 5,2,-1
 256 512 l 5,3,-1
 192 512 l 5,0,-1
64 512 m 5,4,-1
 64 576 l 5,5,-1
 128 576 l 5,6,-1
 128 512 l 5,7,-1
 64 512 l 5,4,-1
128 576 m 5,8,-1
 128 640 l 5,9,-1
 192 640 l 5,10,-1
 192 576 l 5,11,-1
 128 576 l 5,8,-1
0 0 m 1,12,-1
 0 448 l 1,13,-1
 64 448 l 1,14,-1
 64 256 l 1,15,-1
 256 256 l 1,16,-1
 256 448 l 1,17,-1
 320 448 l 1,18,-1
 320 0 l 1,19,-1
 256 0 l 1,20,-1
 256 192 l 1,21,-1
 64 192 l 1,22,-1
 64 0 l 1,23,-1
 0 0 l 1,12,-1
EndSplineSet
EndChar

StartChar: Hbar
Encoding: 294 294 272
Width: 512
Flags: W
LayerCount: 5
Fore
SplineSet
384 320 m 1,0,-1
 384 384 l 1,1,-1
 448 384 l 1,2,-1
 448 320 l 1,3,-1
 384 320 l 1,0,-1
128 320 m 1,4,-1
 128 384 l 1,5,-1
 320 384 l 1,6,-1
 320 320 l 1,7,-1
 128 320 l 1,4,-1
0 320 m 1,8,-1
 0 384 l 1,9,-1
 64 384 l 1,10,-1
 64 320 l 1,11,-1
 0 320 l 1,8,-1
64 0 m 1,12,-1
 64 448 l 1,13,-1
 128 448 l 1,14,-1
 128 256 l 1,15,-1
 320 256 l 1,16,-1
 320 448 l 1,17,-1
 384 448 l 1,18,-1
 384 0 l 1,19,-1
 320 0 l 1,20,-1
 320 192 l 1,21,-1
 128 192 l 1,22,-1
 128 0 l 1,23,-1
 64 0 l 1,12,-1
EndSplineSet
EndChar

StartChar: hcircumflex
Encoding: 293 293 273
Width: 384
Flags: W
LayerCount: 5
Fore
SplineSet
256 448 m 5,0,-1
 256 512 l 5,1,-1
 320 512 l 5,2,-1
 320 448 l 5,3,-1
 256 448 l 5,0,-1
128 448 m 5,4,-1
 128 512 l 5,5,-1
 192 512 l 5,6,-1
 192 448 l 5,7,-1
 128 448 l 5,4,-1
192 512 m 5,8,-1
 192 576 l 5,9,-1
 256 576 l 5,10,-1
 256 512 l 5,11,-1
 192 512 l 5,8,-1
256 0 m 1,12,-1
 256 256 l 1,13,-1
 320 256 l 1,14,-1
 320 0 l 1,15,-1
 256 0 l 1,12,-1
0 0 m 1,16,-1
 0 448 l 1,17,-1
 64 448 l 1,18,-1
 64 320 l 1,19,-1
 256 320 l 1,20,-1
 256 256 l 1,21,-1
 64 256 l 1,22,-1
 64 0 l 1,23,-1
 0 0 l 1,16,-1
EndSplineSet
EndChar

StartChar: hbar
Encoding: 295 295 274
Width: 448
Flags: W
LayerCount: 5
Fore
SplineSet
0 384 m 1,0,-1
 0 448 l 1,1,-1
 64 448 l 1,2,-1
 64 384 l 1,3,-1
 0 384 l 1,0,-1
128 384 m 1,4,-1
 128 448 l 1,5,-1
 192 448 l 1,6,-1
 192 384 l 1,7,-1
 128 384 l 1,4,-1
320 0 m 1,8,-1
 320 256 l 1,9,-1
 384 256 l 1,10,-1
 384 0 l 1,11,-1
 320 0 l 1,8,-1
64 0 m 1,12,-1
 64 512 l 1,13,-1
 128 512 l 1,14,-1
 128 320 l 1,15,-1
 320 320 l 1,16,-1
 320 256 l 1,17,-1
 128 256 l 1,18,-1
 128 0 l 1,19,-1
 64 0 l 1,12,-1
EndSplineSet
EndChar

StartChar: Itilde
Encoding: 296 296 275
Width: 256
Flags: W
LayerCount: 5
Fore
SplineSet
192 576 m 5,0,-1
 192 640 l 5,1,-1
 256 640 l 5,2,-1
 256 576 l 5,3,-1
 192 576 l 5,0,-1
128 512 m 5,4,-1
 128 576 l 5,5,-1
 192 576 l 5,6,-1
 192 512 l 5,7,-1
 128 512 l 5,4,-1
64 576 m 5,8,-1
 64 640 l 5,9,-1
 128 640 l 5,10,-1
 128 576 l 5,11,-1
 64 576 l 5,8,-1
0 512 m 5,12,-1
 0 576 l 5,13,-1
 64 576 l 5,14,-1
 64 512 l 5,15,-1
 0 512 l 5,12,-1
0 0 m 1,16,-1
 0 64 l 1,17,-1
 64 64 l 1,18,-1
 64 384 l 1,19,-1
 0 384 l 1,20,-1
 0 448 l 1,21,-1
 192 448 l 1,22,-1
 192 384 l 1,23,-1
 128 384 l 1,24,-1
 128 64 l 1,25,-1
 192 64 l 1,26,-1
 192 0 l 1,27,-1
 0 0 l 1,16,-1
EndSplineSet
EndChar

StartChar: Imacron
Encoding: 298 298 276
Width: 256
Flags: W
LayerCount: 5
Fore
SplineSet
0 512 m 5,0,-1
 0 576 l 5,1,-1
 192 576 l 5,2,-1
 192 512 l 5,3,-1
 0 512 l 5,0,-1
0 0 m 1,4,-1
 0 64 l 1,5,-1
 64 64 l 1,6,-1
 64 384 l 1,7,-1
 0 384 l 1,8,-1
 0 448 l 1,9,-1
 192 448 l 1,10,-1
 192 384 l 1,11,-1
 128 384 l 1,12,-1
 128 64 l 1,13,-1
 192 64 l 1,14,-1
 192 0 l 1,15,-1
 0 0 l 1,4,-1
EndSplineSet
EndChar

StartChar: Ibreve
Encoding: 300 300 277
Width: 384
Flags: W
LayerCount: 5
Fore
SplineSet
0 575 m 1,0,-1
 0 639 l 1,1,-1
 64 639 l 1,2,-1
 64 575 l 1,3,-1
 0 575 l 1,0,-1
256 575 m 1,4,-1
 256 639 l 1,5,-1
 320 639 l 1,6,-1
 320 575 l 1,7,-1
 256 575 l 1,4,-1
64 511 m 1,8,-1
 64 575 l 1,9,-1
 256 575 l 1,10,-1
 256 511 l 1,11,-1
 64 511 l 1,8,-1
64 0 m 1,12,-1
 64 64 l 1,13,-1
 128 64 l 1,14,-1
 128 384 l 1,15,-1
 64 384 l 1,16,-1
 64 448 l 1,17,-1
 256 448 l 1,18,-1
 256 384 l 1,19,-1
 192 384 l 1,20,-1
 192 64 l 1,21,-1
 256 64 l 1,22,-1
 256 0 l 1,23,-1
 64 0 l 1,12,-1
EndSplineSet
EndChar

StartChar: Iogonek
Encoding: 302 302 278
Width: 256
Flags: W
LayerCount: 5
Fore
SplineSet
128 -128 m 5,0,-1
 128 -64 l 5,1,-1
 192 -64 l 5,2,-1
 192 -128 l 5,3,-1
 128 -128 l 5,0,-1
64 -64 m 5,4,-1
 64 0 l 5,5,-1
 128 0 l 5,6,-1
 128 -64 l 5,7,-1
 64 -64 l 5,4,-1
0 0 m 1,8,-1
 0 64 l 1,9,-1
 64 64 l 1,10,-1
 64 384 l 1,11,-1
 0 384 l 1,12,-1
 0 448 l 1,13,-1
 192 448 l 1,14,-1
 192 384 l 1,15,-1
 128 384 l 1,16,-1
 128 64 l 1,17,-1
 192 64 l 1,18,-1
 192 0 l 1,19,-1
 0 0 l 1,8,-1
EndSplineSet
EndChar

StartChar: Idotaccent
Encoding: 304 304 279
Width: 256
Flags: W
LayerCount: 5
Fore
SplineSet
64 512 m 5,0,-1
 64 576 l 5,1,-1
 128 576 l 5,2,-1
 128 512 l 5,3,-1
 64 512 l 5,0,-1
0 0 m 1,4,-1
 0 64 l 1,5,-1
 64 64 l 1,6,-1
 64 384 l 1,7,-1
 0 384 l 1,8,-1
 0 448 l 1,9,-1
 192 448 l 1,10,-1
 192 384 l 1,11,-1
 128 384 l 1,12,-1
 128 64 l 1,13,-1
 192 64 l 1,14,-1
 192 0 l 1,15,-1
 0 0 l 1,4,-1
EndSplineSet
EndChar

StartChar: itilde
Encoding: 297 297 280
Width: 256
Flags: W
HStem: 0 21G<64 128> 320 64<64 128>
VStem: 64 64<0 256 320 384>
LayerCount: 5
Fore
SplineSet
192 384 m 1,0,-1
 192 448 l 1,1,-1
 256 448 l 1,2,-1
 256 384 l 1,3,-1
 192 384 l 1,0,-1
128 320 m 1,4,-1
 128 384 l 1,5,-1
 192 384 l 1,6,-1
 192 320 l 1,7,-1
 128 320 l 1,4,-1
64 384 m 1,8,-1
 64 448 l 1,9,-1
 128 448 l 1,10,-1
 128 384 l 1,11,-1
 64 384 l 1,8,-1
0 320 m 1,12,-1
 0 384 l 1,13,-1
 64 384 l 1,14,-1
 64 320 l 1,15,-1
 0 320 l 1,12,-1
64 0 m 1,16,-1
 64 256 l 1,17,-1
 128 256 l 1,18,-1
 128 0 l 1,19,-1
 64 0 l 1,16,-1
EndSplineSet
EndChar

StartChar: imacron
Encoding: 299 299 281
Width: 192
Flags: W
HStem: 0 21G<64 128> 320 64<64 128>
VStem: 64 64<0 256 320 384>
LayerCount: 5
Fore
SplineSet
0 320 m 1,0,-1
 0 384 l 1,1,-1
 192 384 l 1,2,-1
 192 320 l 1,3,-1
 0 320 l 1,0,-1
64 0 m 1,4,-1
 64 256 l 1,5,-1
 128 256 l 1,6,-1
 128 0 l 1,7,-1
 64 0 l 1,4,-1
EndSplineSet
EndChar

StartChar: ibreve
Encoding: 301 301 282
Width: 448
Flags: W
HStem: 0 21G<192 256> 320 64<192 256>
VStem: 192 64<0 256 320 384>
LayerCount: 5
Fore
SplineSet
64 385 m 1,0,-1
 64 449 l 1,1,-1
 128 449 l 1,2,-1
 128 385 l 1,3,-1
 64 385 l 1,0,-1
320 385 m 1,4,-1
 320 449 l 1,5,-1
 384 449 l 1,6,-1
 384 385 l 1,7,-1
 320 385 l 1,4,-1
128 321 m 1,8,-1
 128 385 l 1,9,-1
 320 385 l 1,10,-1
 320 321 l 1,11,-1
 128 321 l 1,8,-1
192 0 m 1,12,-1
 192 256 l 1,13,-1
 256 256 l 1,14,-1
 256 0 l 1,15,-1
 192 0 l 1,12,-1
EndSplineSet
EndChar

StartChar: iogonek
Encoding: 303 303 283
Width: 192
Flags: W
HStem: 0 21G<64 128> 320 64<64 128>
VStem: 64 64<0 256 320 384>
LayerCount: 5
Fore
SplineSet
64 -128 m 1,0,-1
 64 -64 l 1,1,-1
 128 -64 l 1,2,-1
 128 -128 l 1,3,-1
 64 -128 l 1,0,-1
0 -64 m 1,4,-1
 0 0 l 1,5,-1
 64 0 l 1,6,-1
 64 -64 l 1,7,-1
 0 -64 l 1,4,-1
64 0 m 1,8,-1
 64 256 l 1,9,-1
 128 256 l 1,10,-1
 128 0 l 1,11,-1
 64 0 l 1,8,-1
64 320 m 1,12,-1
 64 384 l 1,13,-1
 128 384 l 1,14,-1
 128 320 l 1,15,-1
 64 320 l 1,12,-1
EndSplineSet
EndChar

StartChar: dotlessi
Encoding: 305 305 284
Width: 128
Flags: W
HStem: 0 21G<0 64> 320 64<0 64>
VStem: 0 64<0 256 320 384>
LayerCount: 5
Fore
SplineSet
0 0 m 1,0,-1
 0 256 l 1,1,-1
 64 256 l 1,2,-1
 64 0 l 1,3,-1
 0 0 l 1,0,-1
EndSplineSet
EndChar

StartChar: Jcircumflex
Encoding: 308 308 285
Width: 384
Flags: W
LayerCount: 5
Fore
SplineSet
192 512 m 5,0,-1
 192 576 l 5,1,-1
 256 576 l 5,2,-1
 256 512 l 5,3,-1
 192 512 l 5,0,-1
64 512 m 5,4,-1
 64 576 l 5,5,-1
 128 576 l 5,6,-1
 128 512 l 5,7,-1
 64 512 l 5,4,-1
128 576 m 5,8,-1
 128 640 l 5,9,-1
 192 640 l 5,10,-1
 192 576 l 5,11,-1
 128 576 l 5,8,-1
64 0 m 1,12,-1
 64 64 l 1,13,-1
 256 64 l 1,14,-1
 256 0 l 1,15,-1
 64 0 l 1,12,-1
0 64 m 1,16,-1
 0 128 l 1,17,-1
 64 128 l 1,18,-1
 64 64 l 1,19,-1
 0 64 l 1,16,-1
256 64 m 1,20,-1
 256 448 l 1,21,-1
 320 448 l 1,22,-1
 320 64 l 1,23,-1
 256 64 l 1,20,-1
EndSplineSet
EndChar

StartChar: jcircumflex
Encoding: 309 309 286
Width: 320
Flags: W
LayerCount: 5
Fore
SplineSet
192 320 m 1,0,-1
 192 384 l 1,1,-1
 256 384 l 1,2,-1
 256 320 l 1,3,-1
 192 320 l 1,0,-1
64 320 m 1,4,-1
 64 384 l 1,5,-1
 128 384 l 1,6,-1
 128 320 l 1,7,-1
 64 320 l 1,4,-1
128 384 m 1,8,-1
 128 448 l 1,9,-1
 192 448 l 1,10,-1
 192 384 l 1,11,-1
 128 384 l 1,8,-1
64 -128 m 1,12,-1
 64 -64 l 1,13,-1
 128 -64 l 1,14,-1
 128 -128 l 1,15,-1
 64 -128 l 1,12,-1
0 -64 m 1,16,-1
 0 0 l 1,17,-1
 64 0 l 1,18,-1
 64 -64 l 1,19,-1
 0 -64 l 1,16,-1
128 -64 m 1,20,-1
 128 256 l 1,21,-1
 192 256 l 1,22,-1
 192 -64 l 1,23,-1
 128 -64 l 1,20,-1
EndSplineSet
EndChar

StartChar: uni0136
Encoding: 310 310 287
Width: 384
Flags: W
LayerCount: 5
Fore
SplineSet
0 -128 m 5,0,-1
 0 -64 l 5,1,-1
 128 -64 l 5,2,-1
 128 -128 l 5,3,-1
 0 -128 l 5,0,-1
128 -64 m 5,4,-1
 128 0 l 5,5,-1
 192 0 l 5,6,-1
 192 -64 l 5,7,-1
 128 -64 l 5,4,-1
256 0 m 1,8,-1
 256 64 l 1,9,-1
 320 64 l 1,10,-1
 320 0 l 1,11,-1
 256 0 l 1,8,-1
192 64 m 1,12,-1
 192 128 l 1,13,-1
 256 128 l 1,14,-1
 256 64 l 1,15,-1
 192 64 l 1,12,-1
128 128 m 1,16,-1
 128 192 l 1,17,-1
 192 192 l 1,18,-1
 192 128 l 1,19,-1
 128 128 l 1,16,-1
128 256 m 1,20,-1
 128 320 l 1,21,-1
 192 320 l 1,22,-1
 192 256 l 1,23,-1
 128 256 l 1,20,-1
192 320 m 1,24,-1
 192 384 l 1,25,-1
 256 384 l 1,26,-1
 256 320 l 1,27,-1
 192 320 l 1,24,-1
0 0 m 1,28,-1
 0 448 l 1,29,-1
 64 448 l 1,30,-1
 64 256 l 1,31,-1
 128 256 l 1,32,-1
 128 192 l 1,33,-1
 64 192 l 1,34,-1
 64 0 l 1,35,-1
 0 0 l 1,28,-1
256 384 m 1,36,-1
 256 448 l 1,37,-1
 320 448 l 1,38,-1
 320 384 l 1,39,-1
 256 384 l 1,36,-1
EndSplineSet
EndChar

StartChar: uni0137
Encoding: 311 311 288
Width: 320
Flags: W
HStem: 0 64<192 256> 64 64<128 192> 192 64<128 192> 256 64<192 256> 428 20G<0 64>
VStem: 0 128<128 192> 0 64<0 128 192 448> 128 64<64 128 192 256> 192 64<0 64 256 320>
LayerCount: 5
Fore
SplineSet
0 -128 m 5,0,-1
 0 -64 l 5,1,-1
 128 -64 l 5,2,-1
 128 -128 l 5,3,-1
 0 -128 l 5,0,-1
128 -64 m 5,4,-1
 128 0 l 5,5,-1
 192 0 l 5,6,-1
 192 -64 l 5,7,-1
 128 -64 l 5,4,-1
192 0 m 1,8,-1
 192 64 l 1,9,-1
 256 64 l 1,10,-1
 256 0 l 1,11,-1
 192 0 l 1,8,-1
128 64 m 1,12,-1
 128 128 l 1,13,-1
 192 128 l 1,14,-1
 192 64 l 1,15,-1
 128 64 l 1,12,-1
128 192 m 1,16,-1
 128 256 l 1,17,-1
 192 256 l 1,18,-1
 192 192 l 1,19,-1
 128 192 l 1,16,-1
192 256 m 1,20,-1
 192 320 l 1,21,-1
 256 320 l 1,22,-1
 256 256 l 1,23,-1
 192 256 l 1,20,-1
0 0 m 1,24,-1
 0 448 l 1,25,-1
 64 448 l 1,26,-1
 64 192 l 1,27,-1
 128 192 l 1,28,-1
 128 128 l 1,29,-1
 64 128 l 1,30,-1
 64 0 l 1,31,-1
 0 0 l 1,24,-1
EndSplineSet
EndChar

StartChar: kgreenlandic
Encoding: 312 312 289
Width: 320
Flags: W
HStem: 0 64<192 256> 64 64<128 192> 192 64<128 192> 256 64<192 256> 428 20G<0 64>
VStem: 0 128<128 192> 0 64<0 128 192 448> 128 64<64 128 192 256> 192 64<0 64 256 320>
LayerCount: 5
Fore
SplineSet
192 0 m 1,0,-1
 192 64 l 1,1,-1
 256 64 l 1,2,-1
 256 0 l 1,3,-1
 192 0 l 1,0,-1
128 64 m 1,4,-1
 128 128 l 1,5,-1
 192 128 l 1,6,-1
 192 64 l 1,7,-1
 128 64 l 1,4,-1
128 192 m 1,8,-1
 128 256 l 1,9,-1
 192 256 l 1,10,-1
 192 192 l 1,11,-1
 128 192 l 1,8,-1
192 256 m 1,12,-1
 192 320 l 1,13,-1
 256 320 l 1,14,-1
 256 256 l 1,15,-1
 192 256 l 1,12,-1
0 0 m 1,16,-1
 0 320 l 5,17,-1
 64 320 l 5,18,-1
 64 192 l 1,19,-1
 128 192 l 1,20,-1
 128 128 l 1,21,-1
 64 128 l 1,22,-1
 64 0 l 1,23,-1
 0 0 l 1,16,-1
EndSplineSet
EndChar

StartChar: Lacute
Encoding: 313 313 290
Width: 384
Flags: W
LayerCount: 5
Fore
SplineSet
64 576 m 5,0,-1
 64 640 l 5,1,-1
 128 640 l 5,2,-1
 128 576 l 5,3,-1
 64 576 l 5,0,-1
0 512 m 5,4,-1
 0 576 l 5,5,-1
 64 576 l 5,6,-1
 64 512 l 5,7,-1
 0 512 l 5,4,-1
0 0 m 1,8,-1
 0 448 l 1,9,-1
 64 448 l 1,10,-1
 64 64 l 1,11,-1
 320 64 l 1,12,-1
 320 0 l 1,13,-1
 0 0 l 1,8,-1
EndSplineSet
EndChar

StartChar: uni013B
Encoding: 315 315 291
Width: 384
Flags: W
LayerCount: 5
Fore
SplineSet
64 -128 m 5,0,-1
 64 -64 l 5,1,-1
 192 -64 l 5,2,-1
 192 -128 l 5,3,-1
 64 -128 l 5,0,-1
192 -64 m 5,4,-1
 192 0 l 5,5,-1
 256 0 l 5,6,-1
 256 -64 l 5,7,-1
 192 -64 l 5,4,-1
0 0 m 1,8,-1
 0 448 l 1,9,-1
 64 448 l 1,10,-1
 64 64 l 1,11,-1
 320 64 l 1,12,-1
 320 0 l 1,13,-1
 0 0 l 1,8,-1
EndSplineSet
EndChar

StartChar: Lcaron
Encoding: 317 317 292
Width: 384
Flags: W
LayerCount: 5
Fore
SplineSet
192 448 m 5,0,-1
 192 512 l 5,1,-1
 256 512 l 5,2,-1
 256 448 l 5,3,-1
 192 448 l 5,0,-1
128 384 m 5,4,-1
 128 448 l 5,5,-1
 192 448 l 5,6,-1
 192 384 l 5,7,-1
 128 384 l 5,4,-1
0 0 m 1,8,-1
 0 448 l 1,9,-1
 64 448 l 1,10,-1
 64 64 l 1,11,-1
 320 64 l 1,12,-1
 320 0 l 1,13,-1
 0 0 l 1,8,-1
EndSplineSet
EndChar

StartChar: Ldot
Encoding: 319 319 293
Width: 384
Flags: W
LayerCount: 5
Fore
SplineSet
192 256 m 5,0,-1
 192 320 l 5,1,-1
 256 320 l 5,2,-1
 256 256 l 5,3,-1
 192 256 l 5,0,-1
0 0 m 1,4,-1
 0 448 l 1,5,-1
 64 448 l 1,6,-1
 64 64 l 1,7,-1
 320 64 l 1,8,-1
 320 0 l 1,9,-1
 0 0 l 1,4,-1
EndSplineSet
EndChar

StartChar: Nacute
Encoding: 323 323 294
Width: 384
Flags: W
LayerCount: 5
Fore
SplineSet
192 576 m 5,0,-1
 192 640 l 5,1,-1
 256 640 l 5,2,-1
 256 576 l 5,3,-1
 192 576 l 5,0,-1
128 512 m 5,4,-1
 128 576 l 5,5,-1
 192 576 l 5,6,-1
 192 512 l 5,7,-1
 128 512 l 5,4,-1
128 192 m 1,8,-1
 128 256 l 1,9,-1
 192 256 l 1,10,-1
 192 192 l 1,11,-1
 128 192 l 1,8,-1
0 0 m 1,12,-1
 0 448 l 1,13,-1
 64 448 l 1,14,-1
 64 320 l 1,15,-1
 128 320 l 1,16,-1
 128 256 l 1,17,-1
 64 256 l 1,18,-1
 64 0 l 1,19,-1
 0 0 l 1,12,-1
256 0 m 1,20,-1
 256 128 l 1,21,-1
 192 128 l 1,22,-1
 192 192 l 1,23,-1
 256 192 l 1,24,-1
 256 448 l 1,25,-1
 320 448 l 1,26,-1
 320 0 l 1,27,-1
 256 0 l 1,20,-1
EndSplineSet
EndChar

StartChar: uni0145
Encoding: 325 325 295
Width: 384
Flags: W
LayerCount: 5
Fore
SplineSet
0 -128 m 5,0,-1
 0 -64 l 5,1,-1
 128 -64 l 5,2,-1
 128 -128 l 5,3,-1
 0 -128 l 5,0,-1
128 -64 m 5,4,-1
 128 0 l 5,5,-1
 192 0 l 5,6,-1
 192 -64 l 5,7,-1
 128 -64 l 5,4,-1
128 192 m 1,8,-1
 128 256 l 1,9,-1
 192 256 l 1,10,-1
 192 192 l 1,11,-1
 128 192 l 1,8,-1
0 0 m 1,12,-1
 0 448 l 1,13,-1
 64 448 l 1,14,-1
 64 320 l 1,15,-1
 128 320 l 1,16,-1
 128 256 l 1,17,-1
 64 256 l 1,18,-1
 64 0 l 1,19,-1
 0 0 l 1,12,-1
256 0 m 1,20,-1
 256 128 l 1,21,-1
 192 128 l 1,22,-1
 192 192 l 1,23,-1
 256 192 l 1,24,-1
 256 448 l 1,25,-1
 320 448 l 1,26,-1
 320 0 l 1,27,-1
 256 0 l 1,20,-1
EndSplineSet
EndChar

StartChar: Ncaron
Encoding: 327 327 296
Width: 384
Flags: W
LayerCount: 5
Fore
SplineSet
64 576 m 5,0,-1
 64 640 l 5,1,-1
 128 640 l 5,2,-1
 128 576 l 5,3,-1
 64 576 l 5,0,-1
192 576 m 5,4,-1
 192 640 l 5,5,-1
 256 640 l 5,6,-1
 256 576 l 5,7,-1
 192 576 l 5,4,-1
128 512 m 5,8,-1
 128 576 l 5,9,-1
 192 576 l 5,10,-1
 192 512 l 5,11,-1
 128 512 l 5,8,-1
128 192 m 1,12,-1
 128 256 l 1,13,-1
 192 256 l 1,14,-1
 192 192 l 1,15,-1
 128 192 l 1,12,-1
0 0 m 1,16,-1
 0 448 l 1,17,-1
 64 448 l 1,18,-1
 64 320 l 1,19,-1
 128 320 l 1,20,-1
 128 256 l 1,21,-1
 64 256 l 1,22,-1
 64 0 l 1,23,-1
 0 0 l 1,16,-1
256 0 m 1,24,-1
 256 128 l 1,25,-1
 192 128 l 1,26,-1
 192 192 l 1,27,-1
 256 192 l 1,28,-1
 256 448 l 1,29,-1
 320 448 l 1,30,-1
 320 0 l 1,31,-1
 256 0 l 1,24,-1
EndSplineSet
EndChar

StartChar: nacute
Encoding: 324 324 297
Width: 384
Flags: W
LayerCount: 5
Fore
SplineSet
192 448 m 5,0,-1
 192 512 l 5,1,-1
 256 512 l 5,2,-1
 256 448 l 5,3,-1
 192 448 l 5,0,-1
128 384 m 5,4,-1
 128 448 l 5,5,-1
 192 448 l 5,6,-1
 192 384 l 5,7,-1
 128 384 l 5,4,-1
256 0 m 1,8,-1
 256 256 l 1,9,-1
 320 256 l 1,10,-1
 320 0 l 1,11,-1
 256 0 l 1,8,-1
0 0 m 1,12,-1
 0 320 l 1,13,-1
 256 320 l 1,14,-1
 256 256 l 1,15,-1
 64 256 l 1,16,-1
 64 0 l 1,17,-1
 0 0 l 1,12,-1
EndSplineSet
EndChar

StartChar: uni0146
Encoding: 326 326 298
Width: 384
Flags: W
LayerCount: 5
Fore
SplineSet
64 -128 m 5,0,-1
 64 -64 l 5,1,-1
 192 -64 l 5,2,-1
 192 -128 l 5,3,-1
 64 -128 l 5,0,-1
192 -64 m 5,4,-1
 192 0 l 5,5,-1
 256 0 l 5,6,-1
 256 -64 l 5,7,-1
 192 -64 l 5,4,-1
256 0 m 1,8,-1
 256 256 l 1,9,-1
 320 256 l 1,10,-1
 320 0 l 1,11,-1
 256 0 l 1,8,-1
0 0 m 1,12,-1
 0 320 l 1,13,-1
 256 320 l 1,14,-1
 256 256 l 1,15,-1
 64 256 l 1,16,-1
 64 0 l 1,17,-1
 0 0 l 1,12,-1
EndSplineSet
EndChar

StartChar: ncaron
Encoding: 328 328 299
Width: 384
Flags: W
LayerCount: 5
Fore
SplineSet
64 448 m 5,0,-1
 64 512 l 5,1,-1
 128 512 l 5,2,-1
 128 448 l 5,3,-1
 64 448 l 5,0,-1
192 448 m 5,4,-1
 192 512 l 5,5,-1
 256 512 l 5,6,-1
 256 448 l 5,7,-1
 192 448 l 5,4,-1
128 384 m 5,8,-1
 128 448 l 5,9,-1
 192 448 l 5,10,-1
 192 384 l 5,11,-1
 128 384 l 5,8,-1
256 0 m 1,12,-1
 256 256 l 1,13,-1
 320 256 l 1,14,-1
 320 0 l 1,15,-1
 256 0 l 1,12,-1
0 0 m 1,16,-1
 0 320 l 1,17,-1
 256 320 l 1,18,-1
 256 256 l 1,19,-1
 64 256 l 1,20,-1
 64 0 l 1,21,-1
 0 0 l 1,16,-1
EndSplineSet
EndChar

StartChar: napostrophe
Encoding: 329 329 300
Width: 512
Flags: W
LayerCount: 5
Fore
SplineSet
0 188 m 1,0,-1
 0 320 l 1,1,-1
 64 320 l 1,2,-1
 64 188 l 1,3,-1
 0 188 l 1,0,-1
384 0 m 1,4,-1
 384 256 l 1,5,-1
 448 256 l 1,6,-1
 448 0 l 1,7,-1
 384 0 l 1,4,-1
128 0 m 1,8,-1
 128 320 l 1,9,-1
 384 320 l 1,10,-1
 384 256 l 1,11,-1
 192 256 l 1,12,-1
 192 0 l 1,13,-1
 128 0 l 1,8,-1
EndSplineSet
EndChar

StartChar: eng
Encoding: 331 331 301
Width: 384
Flags: W
LayerCount: 5
Fore
SplineSet
192 -192 m 5,0,-1
 192 -128 l 5,1,-1
 256 -128 l 5,2,-1
 256 -192 l 5,3,-1
 192 -192 l 5,0,-1
256 -128 m 5,4,-1
 256 0 l 5,5,-1
 320 0 l 5,6,-1
 320 -128 l 5,7,-1
 256 -128 l 5,4,-1
256 0 m 5,8,-1
 256 256 l 5,9,-1
 320 256 l 5,10,-1
 320 0 l 5,11,-1
 256 0 l 5,8,-1
0 0 m 5,12,-1
 0 320 l 5,13,-1
 256 320 l 5,14,-1
 256 256 l 5,15,-1
 64 256 l 5,16,-1
 64 0 l 5,17,-1
 0 0 l 5,12,-1
EndSplineSet
EndChar

StartChar: Omacron
Encoding: 332 332 302
Width: 384
Flags: W
LayerCount: 5
Fore
SplineSet
64 512 m 5,0,-1
 64 576 l 5,1,-1
 256 576 l 5,2,-1
 256 512 l 5,3,-1
 64 512 l 5,0,-1
64 0 m 1,4,-1
 64 64 l 1,5,-1
 256 64 l 1,6,-1
 256 0 l 1,7,-1
 64 0 l 1,4,-1
0 64 m 1,8,-1
 0 384 l 1,9,-1
 64 384 l 1,10,-1
 64 64 l 1,11,-1
 0 64 l 1,8,-1
256 64 m 1,12,-1
 256 384 l 1,13,-1
 320 384 l 1,14,-1
 320 64 l 1,15,-1
 256 64 l 1,12,-1
64 384 m 1,16,-1
 64 448 l 1,17,-1
 256 448 l 1,18,-1
 256 384 l 1,19,-1
 64 384 l 1,16,-1
EndSplineSet
EndChar

StartChar: Obreve
Encoding: 334 334 303
Width: 384
Flags: W
LayerCount: 5
Fore
SplineSet
0 576 m 5,0,-1
 0 640 l 5,1,-1
 64 640 l 5,2,-1
 64 576 l 5,3,-1
 0 576 l 5,0,-1
256 576 m 5,4,-1
 256 640 l 5,5,-1
 320 640 l 5,6,-1
 320 576 l 5,7,-1
 256 576 l 5,4,-1
64 512 m 5,8,-1
 64 576 l 5,9,-1
 256 576 l 5,10,-1
 256 512 l 5,11,-1
 64 512 l 5,8,-1
64 0 m 1,12,-1
 64 64 l 1,13,-1
 256 64 l 1,14,-1
 256 0 l 1,15,-1
 64 0 l 1,12,-1
0 64 m 1,16,-1
 0 384 l 1,17,-1
 64 384 l 1,18,-1
 64 64 l 1,19,-1
 0 64 l 1,16,-1
256 64 m 1,20,-1
 256 384 l 1,21,-1
 320 384 l 1,22,-1
 320 64 l 1,23,-1
 256 64 l 1,20,-1
64 384 m 1,24,-1
 64 448 l 1,25,-1
 256 448 l 1,26,-1
 256 384 l 1,27,-1
 64 384 l 1,24,-1
EndSplineSet
EndChar

StartChar: Ohungarumlaut
Encoding: 336 336 304
Width: 384
Flags: W
LayerCount: 5
Fore
SplineSet
256 576 m 5,0,-1
 256 640 l 5,1,-1
 320 640 l 5,2,-1
 320 576 l 5,3,-1
 256 576 l 5,0,-1
192 512 m 5,4,-1
 192 576 l 5,5,-1
 256 576 l 5,6,-1
 256 512 l 5,7,-1
 192 512 l 5,4,-1
64 576 m 5,8,-1
 64 640 l 5,9,-1
 128 640 l 5,10,-1
 128 576 l 5,11,-1
 64 576 l 5,8,-1
0 512 m 5,12,-1
 0 576 l 5,13,-1
 64 576 l 5,14,-1
 64 512 l 5,15,-1
 0 512 l 5,12,-1
64 0 m 1,16,-1
 64 64 l 1,17,-1
 256 64 l 1,18,-1
 256 0 l 1,19,-1
 64 0 l 1,16,-1
0 64 m 1,20,-1
 0 384 l 1,21,-1
 64 384 l 1,22,-1
 64 64 l 1,23,-1
 0 64 l 1,20,-1
256 64 m 1,24,-1
 256 384 l 1,25,-1
 320 384 l 1,26,-1
 320 64 l 1,27,-1
 256 64 l 1,24,-1
64 384 m 1,28,-1
 64 448 l 1,29,-1
 256 448 l 1,30,-1
 256 384 l 1,31,-1
 64 384 l 1,28,-1
EndSplineSet
EndChar

StartChar: omacron
Encoding: 333 333 305
Width: 384
Flags: W
LayerCount: 5
Fore
SplineSet
64 384 m 5,0,-1
 64 448 l 5,1,-1
 256 448 l 5,2,-1
 256 384 l 5,3,-1
 64 384 l 5,0,-1
64 0 m 1,4,-1
 64 64 l 1,5,-1
 256 64 l 1,6,-1
 256 0 l 1,7,-1
 64 0 l 1,4,-1
0 64 m 1,8,-1
 0 256 l 1,9,-1
 64 256 l 1,10,-1
 64 64 l 1,11,-1
 0 64 l 1,8,-1
256 64 m 1,12,-1
 256 256 l 1,13,-1
 320 256 l 1,14,-1
 320 64 l 1,15,-1
 256 64 l 1,12,-1
64 256 m 1,16,-1
 64 320 l 1,17,-1
 256 320 l 1,18,-1
 256 256 l 1,19,-1
 64 256 l 1,16,-1
EndSplineSet
EndChar

StartChar: obreve
Encoding: 335 335 306
Width: 384
Flags: W
LayerCount: 5
Fore
SplineSet
0 448 m 5,0,-1
 0 512 l 5,1,-1
 64 512 l 5,2,-1
 64 448 l 5,3,-1
 0 448 l 5,0,-1
256 448 m 5,4,-1
 256 512 l 5,5,-1
 320 512 l 5,6,-1
 320 448 l 5,7,-1
 256 448 l 5,4,-1
64 384 m 5,8,-1
 64 448 l 5,9,-1
 256 448 l 5,10,-1
 256 384 l 5,11,-1
 64 384 l 5,8,-1
64 0 m 1,12,-1
 64 64 l 1,13,-1
 256 64 l 1,14,-1
 256 0 l 1,15,-1
 64 0 l 1,12,-1
0 64 m 1,16,-1
 0 256 l 1,17,-1
 64 256 l 1,18,-1
 64 64 l 1,19,-1
 0 64 l 1,16,-1
256 64 m 1,20,-1
 256 256 l 1,21,-1
 320 256 l 1,22,-1
 320 64 l 1,23,-1
 256 64 l 1,20,-1
64 256 m 1,24,-1
 64 320 l 1,25,-1
 256 320 l 1,26,-1
 256 256 l 1,27,-1
 64 256 l 1,24,-1
EndSplineSet
EndChar

StartChar: ohungarumlaut
Encoding: 337 337 307
Width: 384
Flags: W
LayerCount: 5
Fore
SplineSet
256 448 m 5,0,-1
 256 512 l 5,1,-1
 320 512 l 5,2,-1
 320 448 l 5,3,-1
 256 448 l 5,0,-1
192 384 m 5,4,-1
 192 448 l 5,5,-1
 256 448 l 5,6,-1
 256 384 l 5,7,-1
 192 384 l 5,4,-1
64 448 m 5,8,-1
 64 512 l 5,9,-1
 128 512 l 5,10,-1
 128 448 l 5,11,-1
 64 448 l 5,8,-1
0 384 m 5,12,-1
 0 448 l 5,13,-1
 64 448 l 5,14,-1
 64 384 l 5,15,-1
 0 384 l 5,12,-1
64 0 m 1,16,-1
 64 64 l 1,17,-1
 256 64 l 1,18,-1
 256 0 l 1,19,-1
 64 0 l 1,16,-1
0 64 m 1,20,-1
 0 256 l 1,21,-1
 64 256 l 1,22,-1
 64 64 l 1,23,-1
 0 64 l 1,20,-1
256 64 m 1,24,-1
 256 256 l 1,25,-1
 320 256 l 1,26,-1
 320 64 l 1,27,-1
 256 64 l 1,24,-1
64 256 m 1,28,-1
 64 320 l 1,29,-1
 256 320 l 1,30,-1
 256 256 l 1,31,-1
 64 256 l 1,28,-1
EndSplineSet
EndChar

StartChar: Racute
Encoding: 340 340 308
Width: 384
Flags: W
LayerCount: 5
Fore
SplineSet
192 576 m 5,0,-1
 192 640 l 5,1,-1
 256 640 l 5,2,-1
 256 576 l 5,3,-1
 192 576 l 5,0,-1
128 512 m 5,4,-1
 128 576 l 5,5,-1
 192 576 l 5,6,-1
 192 512 l 5,7,-1
 128 512 l 5,4,-1
256 0 m 1,8,-1
 256 192 l 1,9,-1
 320 192 l 1,10,-1
 320 0 l 1,11,-1
 256 0 l 1,8,-1
256 256 m 1,12,-1
 256 384 l 1,13,-1
 320 384 l 1,14,-1
 320 256 l 1,15,-1
 256 256 l 1,12,-1
0 0 m 1,16,-1
 0 448 l 1,17,-1
 256 448 l 1,18,-1
 256 384 l 1,19,-1
 64 384 l 1,20,-1
 64 256 l 1,21,-1
 256 256 l 1,22,-1
 256 192 l 1,23,-1
 64 192 l 1,24,-1
 64 0 l 1,25,-1
 0 0 l 1,16,-1
EndSplineSet
EndChar

StartChar: uni0156
Encoding: 342 342 309
Width: 384
Flags: W
LayerCount: 5
Fore
SplineSet
0 -128 m 5,0,-1
 0 -64 l 5,1,-1
 128 -64 l 5,2,-1
 128 -128 l 5,3,-1
 0 -128 l 5,0,-1
128 -64 m 5,4,-1
 128 0 l 5,5,-1
 192 0 l 5,6,-1
 192 -64 l 5,7,-1
 128 -64 l 5,4,-1
256 0 m 1,8,-1
 256 192 l 1,9,-1
 320 192 l 1,10,-1
 320 0 l 1,11,-1
 256 0 l 1,8,-1
256 256 m 1,12,-1
 256 384 l 1,13,-1
 320 384 l 1,14,-1
 320 256 l 1,15,-1
 256 256 l 1,12,-1
0 0 m 1,16,-1
 0 448 l 1,17,-1
 256 448 l 1,18,-1
 256 384 l 1,19,-1
 64 384 l 1,20,-1
 64 256 l 1,21,-1
 256 256 l 1,22,-1
 256 192 l 1,23,-1
 64 192 l 1,24,-1
 64 0 l 1,25,-1
 0 0 l 1,16,-1
EndSplineSet
EndChar

StartChar: Rcaron
Encoding: 344 344 310
Width: 384
Flags: W
LayerCount: 5
Fore
SplineSet
64 576 m 5,0,-1
 64 640 l 5,1,-1
 128 640 l 5,2,-1
 128 576 l 5,3,-1
 64 576 l 5,0,-1
192 576 m 5,4,-1
 192 640 l 5,5,-1
 256 640 l 5,6,-1
 256 576 l 5,7,-1
 192 576 l 5,4,-1
128 512 m 5,8,-1
 128 576 l 5,9,-1
 192 576 l 5,10,-1
 192 512 l 5,11,-1
 128 512 l 5,8,-1
256 0 m 1,12,-1
 256 192 l 1,13,-1
 320 192 l 1,14,-1
 320 0 l 1,15,-1
 256 0 l 1,12,-1
256 256 m 1,16,-1
 256 384 l 1,17,-1
 320 384 l 1,18,-1
 320 256 l 1,19,-1
 256 256 l 1,16,-1
0 0 m 1,20,-1
 0 448 l 1,21,-1
 256 448 l 1,22,-1
 256 384 l 1,23,-1
 64 384 l 1,24,-1
 64 256 l 1,25,-1
 256 256 l 1,26,-1
 256 192 l 1,27,-1
 64 192 l 1,28,-1
 64 0 l 1,29,-1
 0 0 l 1,20,-1
EndSplineSet
EndChar

StartChar: racute
Encoding: 341 341 311
Width: 384
Flags: W
LayerCount: 5
Fore
SplineSet
192 448 m 5,0,-1
 192 512 l 5,1,-1
 256 512 l 5,2,-1
 256 448 l 5,3,-1
 192 448 l 5,0,-1
128 384 m 5,4,-1
 128 448 l 5,5,-1
 192 448 l 5,6,-1
 192 384 l 5,7,-1
 128 384 l 5,4,-1
256 192 m 1,8,-1
 256 256 l 1,9,-1
 320 256 l 1,10,-1
 320 192 l 1,11,-1
 256 192 l 1,8,-1
0 0 m 1,12,-1
 0 320 l 1,13,-1
 256 320 l 1,14,-1
 256 256 l 1,15,-1
 64 256 l 1,16,-1
 64 0 l 1,17,-1
 0 0 l 1,12,-1
EndSplineSet
EndChar

StartChar: uni0157
Encoding: 343 343 312
Width: 384
Flags: W
LayerCount: 5
Fore
SplineSet
0 -128 m 5,0,-1
 0 -64 l 5,1,-1
 128 -64 l 5,2,-1
 128 -128 l 5,3,-1
 0 -128 l 5,0,-1
128 -64 m 5,4,-1
 128 0 l 5,5,-1
 192 0 l 5,6,-1
 192 -64 l 5,7,-1
 128 -64 l 5,4,-1
256 192 m 1,8,-1
 256 256 l 1,9,-1
 320 256 l 1,10,-1
 320 192 l 1,11,-1
 256 192 l 1,8,-1
0 0 m 1,12,-1
 0 320 l 1,13,-1
 256 320 l 1,14,-1
 256 256 l 1,15,-1
 64 256 l 1,16,-1
 64 0 l 1,17,-1
 0 0 l 1,12,-1
EndSplineSet
EndChar

StartChar: rcaron
Encoding: 345 345 313
Width: 384
Flags: W
LayerCount: 5
Fore
SplineSet
64 448 m 5,0,-1
 64 512 l 5,1,-1
 128 512 l 5,2,-1
 128 448 l 5,3,-1
 64 448 l 5,0,-1
192 448 m 5,4,-1
 192 512 l 5,5,-1
 256 512 l 5,6,-1
 256 448 l 5,7,-1
 192 448 l 5,4,-1
128 384 m 5,8,-1
 128 448 l 5,9,-1
 192 448 l 5,10,-1
 192 384 l 5,11,-1
 128 384 l 5,8,-1
256 192 m 1,12,-1
 256 256 l 1,13,-1
 320 256 l 1,14,-1
 320 192 l 1,15,-1
 256 192 l 1,12,-1
0 0 m 1,16,-1
 0 320 l 1,17,-1
 256 320 l 1,18,-1
 256 256 l 1,19,-1
 64 256 l 1,20,-1
 64 0 l 1,21,-1
 0 0 l 1,16,-1
EndSplineSet
EndChar

StartChar: Sacute
Encoding: 346 346 314
Width: 384
Flags: W
LayerCount: 5
Fore
SplineSet
192 576 m 5,0,-1
 192 640 l 5,1,-1
 256 640 l 5,2,-1
 256 576 l 5,3,-1
 192 576 l 5,0,-1
128 512 m 5,4,-1
 128 576 l 5,5,-1
 192 576 l 5,6,-1
 192 512 l 5,7,-1
 128 512 l 5,4,-1
64 0 m 1,8,-1
 64 64 l 1,9,-1
 256 64 l 1,10,-1
 256 0 l 1,11,-1
 64 0 l 1,8,-1
0 64 m 1,12,-1
 0 128 l 1,13,-1
 64 128 l 1,14,-1
 64 64 l 1,15,-1
 0 64 l 1,12,-1
256 64 m 1,16,-1
 256 192 l 1,17,-1
 320 192 l 1,18,-1
 320 64 l 1,19,-1
 256 64 l 1,16,-1
64 192 m 1,20,-1
 64 256 l 1,21,-1
 256 256 l 1,22,-1
 256 192 l 1,23,-1
 64 192 l 1,20,-1
0 256 m 1,24,-1
 0 384 l 1,25,-1
 64 384 l 1,26,-1
 64 256 l 1,27,-1
 0 256 l 1,24,-1
256 320 m 1,28,-1
 256 384 l 1,29,-1
 320 384 l 1,30,-1
 320 320 l 1,31,-1
 256 320 l 1,28,-1
64 384 m 1,32,-1
 64 448 l 1,33,-1
 256 448 l 1,34,-1
 256 384 l 1,35,-1
 64 384 l 1,32,-1
EndSplineSet
EndChar

StartChar: Scircumflex
Encoding: 348 348 315
Width: 384
Flags: W
LayerCount: 5
Fore
SplineSet
192 512 m 5,0,-1
 192 576 l 5,1,-1
 256 576 l 5,2,-1
 256 512 l 5,3,-1
 192 512 l 5,0,-1
64 512 m 5,4,-1
 64 576 l 5,5,-1
 128 576 l 5,6,-1
 128 512 l 5,7,-1
 64 512 l 5,4,-1
128 576 m 5,8,-1
 128 640 l 5,9,-1
 192 640 l 5,10,-1
 192 576 l 5,11,-1
 128 576 l 5,8,-1
64 0 m 1,12,-1
 64 64 l 1,13,-1
 256 64 l 1,14,-1
 256 0 l 1,15,-1
 64 0 l 1,12,-1
0 64 m 1,16,-1
 0 128 l 1,17,-1
 64 128 l 1,18,-1
 64 64 l 1,19,-1
 0 64 l 1,16,-1
256 64 m 1,20,-1
 256 192 l 1,21,-1
 320 192 l 1,22,-1
 320 64 l 1,23,-1
 256 64 l 1,20,-1
64 192 m 1,24,-1
 64 256 l 1,25,-1
 256 256 l 1,26,-1
 256 192 l 1,27,-1
 64 192 l 1,24,-1
0 256 m 1,28,-1
 0 384 l 1,29,-1
 64 384 l 1,30,-1
 64 256 l 1,31,-1
 0 256 l 1,28,-1
256 320 m 1,32,-1
 256 384 l 1,33,-1
 320 384 l 1,34,-1
 320 320 l 1,35,-1
 256 320 l 1,32,-1
64 384 m 1,36,-1
 64 448 l 1,37,-1
 256 448 l 1,38,-1
 256 384 l 1,39,-1
 64 384 l 1,36,-1
EndSplineSet
EndChar

StartChar: Scedilla
Encoding: 350 350 316
Width: 384
Flags: W
LayerCount: 5
Fore
SplineSet
0 -128 m 5,0,-1
 0 -64 l 5,1,-1
 128 -64 l 5,2,-1
 128 -128 l 5,3,-1
 0 -128 l 5,0,-1
128 -64 m 5,4,-1
 128 0 l 5,5,-1
 192 0 l 5,6,-1
 192 -64 l 5,7,-1
 128 -64 l 5,4,-1
64 0 m 1,8,-1
 64 64 l 1,9,-1
 256 64 l 1,10,-1
 256 0 l 1,11,-1
 64 0 l 1,8,-1
0 64 m 1,12,-1
 0 128 l 1,13,-1
 64 128 l 1,14,-1
 64 64 l 1,15,-1
 0 64 l 1,12,-1
256 64 m 1,16,-1
 256 192 l 1,17,-1
 320 192 l 1,18,-1
 320 64 l 1,19,-1
 256 64 l 1,16,-1
64 192 m 1,20,-1
 64 256 l 1,21,-1
 256 256 l 1,22,-1
 256 192 l 1,23,-1
 64 192 l 1,20,-1
0 256 m 1,24,-1
 0 384 l 1,25,-1
 64 384 l 1,26,-1
 64 256 l 1,27,-1
 0 256 l 1,24,-1
256 320 m 1,28,-1
 256 384 l 1,29,-1
 320 384 l 1,30,-1
 320 320 l 1,31,-1
 256 320 l 1,28,-1
64 384 m 1,32,-1
 64 448 l 1,33,-1
 256 448 l 1,34,-1
 256 384 l 1,35,-1
 64 384 l 1,32,-1
EndSplineSet
EndChar

StartChar: Scaron
Encoding: 352 352 317
Width: 384
Flags: W
LayerCount: 5
Fore
SplineSet
64 576 m 5,0,-1
 64 640 l 5,1,-1
 128 640 l 5,2,-1
 128 576 l 5,3,-1
 64 576 l 5,0,-1
192 576 m 5,4,-1
 192 640 l 5,5,-1
 256 640 l 5,6,-1
 256 576 l 5,7,-1
 192 576 l 5,4,-1
128 512 m 5,8,-1
 128 576 l 5,9,-1
 192 576 l 5,10,-1
 192 512 l 5,11,-1
 128 512 l 5,8,-1
64 0 m 1,12,-1
 64 64 l 1,13,-1
 256 64 l 1,14,-1
 256 0 l 1,15,-1
 64 0 l 1,12,-1
0 64 m 1,16,-1
 0 128 l 1,17,-1
 64 128 l 1,18,-1
 64 64 l 1,19,-1
 0 64 l 1,16,-1
256 64 m 1,20,-1
 256 192 l 1,21,-1
 320 192 l 1,22,-1
 320 64 l 1,23,-1
 256 64 l 1,20,-1
64 192 m 1,24,-1
 64 256 l 1,25,-1
 256 256 l 1,26,-1
 256 192 l 1,27,-1
 64 192 l 1,24,-1
0 256 m 1,28,-1
 0 384 l 1,29,-1
 64 384 l 1,30,-1
 64 256 l 1,31,-1
 0 256 l 1,28,-1
256 320 m 1,32,-1
 256 384 l 1,33,-1
 320 384 l 1,34,-1
 320 320 l 1,35,-1
 256 320 l 1,32,-1
64 384 m 1,36,-1
 64 448 l 1,37,-1
 256 448 l 1,38,-1
 256 384 l 1,39,-1
 64 384 l 1,36,-1
EndSplineSet
EndChar

StartChar: sacute
Encoding: 347 347 318
Width: 384
Flags: W
LayerCount: 5
Fore
SplineSet
192 448 m 5,0,-1
 192 512 l 5,1,-1
 256 512 l 5,2,-1
 256 448 l 5,3,-1
 192 448 l 5,0,-1
128 384 m 5,4,-1
 128 448 l 5,5,-1
 192 448 l 5,6,-1
 192 384 l 5,7,-1
 128 384 l 5,4,-1
0 0 m 1,8,-1
 0 64 l 1,9,-1
 256 64 l 1,10,-1
 256 0 l 1,11,-1
 0 0 l 1,8,-1
256 64 m 1,12,-1
 256 128 l 1,13,-1
 320 128 l 1,14,-1
 320 64 l 1,15,-1
 256 64 l 1,12,-1
64 128 m 1,16,-1
 64 192 l 1,17,-1
 256 192 l 1,18,-1
 256 128 l 1,19,-1
 64 128 l 1,16,-1
0 192 m 1,20,-1
 0 256 l 1,21,-1
 64 256 l 1,22,-1
 64 192 l 1,23,-1
 0 192 l 1,20,-1
64 256 m 1,24,-1
 64 320 l 1,25,-1
 320 320 l 1,26,-1
 320 256 l 1,27,-1
 64 256 l 1,24,-1
EndSplineSet
EndChar

StartChar: scircumflex
Encoding: 349 349 319
Width: 384
Flags: W
LayerCount: 5
Fore
SplineSet
192 384 m 5,0,-1
 192 448 l 5,1,-1
 256 448 l 5,2,-1
 256 384 l 5,3,-1
 192 384 l 5,0,-1
64 384 m 5,4,-1
 64 448 l 5,5,-1
 128 448 l 5,6,-1
 128 384 l 5,7,-1
 64 384 l 5,4,-1
128 448 m 5,8,-1
 128 512 l 5,9,-1
 192 512 l 5,10,-1
 192 448 l 5,11,-1
 128 448 l 5,8,-1
0 0 m 1,12,-1
 0 64 l 1,13,-1
 256 64 l 1,14,-1
 256 0 l 1,15,-1
 0 0 l 1,12,-1
256 64 m 1,16,-1
 256 128 l 1,17,-1
 320 128 l 1,18,-1
 320 64 l 1,19,-1
 256 64 l 1,16,-1
64 128 m 1,20,-1
 64 192 l 1,21,-1
 256 192 l 1,22,-1
 256 128 l 1,23,-1
 64 128 l 1,20,-1
0 192 m 1,24,-1
 0 256 l 1,25,-1
 64 256 l 1,26,-1
 64 192 l 1,27,-1
 0 192 l 1,24,-1
64 256 m 1,28,-1
 64 320 l 1,29,-1
 320 320 l 1,30,-1
 320 256 l 1,31,-1
 64 256 l 1,28,-1
EndSplineSet
EndChar

StartChar: scedilla
Encoding: 351 351 320
Width: 384
Flags: W
LayerCount: 5
Fore
SplineSet
0 -128 m 5,0,-1
 0 -64 l 5,1,-1
 128 -64 l 5,2,-1
 128 -128 l 5,3,-1
 0 -128 l 5,0,-1
128 -64 m 5,4,-1
 128 0 l 5,5,-1
 192 0 l 5,6,-1
 192 -64 l 5,7,-1
 128 -64 l 5,4,-1
0 0 m 1,8,-1
 0 64 l 1,9,-1
 256 64 l 1,10,-1
 256 0 l 1,11,-1
 0 0 l 1,8,-1
256 64 m 1,12,-1
 256 128 l 1,13,-1
 320 128 l 1,14,-1
 320 64 l 1,15,-1
 256 64 l 1,12,-1
64 128 m 1,16,-1
 64 192 l 1,17,-1
 256 192 l 1,18,-1
 256 128 l 1,19,-1
 64 128 l 1,16,-1
0 192 m 1,20,-1
 0 256 l 1,21,-1
 64 256 l 1,22,-1
 64 192 l 1,23,-1
 0 192 l 1,20,-1
64 256 m 1,24,-1
 64 320 l 1,25,-1
 320 320 l 1,26,-1
 320 256 l 1,27,-1
 64 256 l 1,24,-1
EndSplineSet
EndChar

StartChar: scaron
Encoding: 353 353 321
Width: 384
Flags: W
LayerCount: 5
Fore
SplineSet
64 448 m 5,0,-1
 64 512 l 5,1,-1
 128 512 l 5,2,-1
 128 448 l 5,3,-1
 64 448 l 5,0,-1
192 448 m 5,4,-1
 192 512 l 5,5,-1
 256 512 l 5,6,-1
 256 448 l 5,7,-1
 192 448 l 5,4,-1
128 384 m 5,8,-1
 128 448 l 5,9,-1
 192 448 l 5,10,-1
 192 384 l 5,11,-1
 128 384 l 5,8,-1
0 0 m 1,12,-1
 0 64 l 1,13,-1
 256 64 l 1,14,-1
 256 0 l 1,15,-1
 0 0 l 1,12,-1
256 64 m 1,16,-1
 256 128 l 1,17,-1
 320 128 l 1,18,-1
 320 64 l 1,19,-1
 256 64 l 1,16,-1
64 128 m 1,20,-1
 64 192 l 1,21,-1
 256 192 l 1,22,-1
 256 128 l 1,23,-1
 64 128 l 1,20,-1
0 192 m 1,24,-1
 0 256 l 1,25,-1
 64 256 l 1,26,-1
 64 192 l 1,27,-1
 0 192 l 1,24,-1
64 256 m 1,28,-1
 64 320 l 1,29,-1
 320 320 l 1,30,-1
 320 256 l 1,31,-1
 64 256 l 1,28,-1
EndSplineSet
EndChar

StartChar: uni0162
Encoding: 354 354 322
Width: 384
Flags: W
LayerCount: 5
Fore
SplineSet
64 -128 m 5,0,-1
 64 -64 l 5,1,-1
 192 -64 l 5,2,-1
 192 -128 l 5,3,-1
 64 -128 l 5,0,-1
192 -64 m 5,4,-1
 192 0 l 5,5,-1
 256 0 l 5,6,-1
 256 -64 l 5,7,-1
 192 -64 l 5,4,-1
128 0 m 1,8,-1
 128 384 l 1,9,-1
 0 384 l 1,10,-1
 0 448 l 1,11,-1
 320 448 l 1,12,-1
 320 384 l 1,13,-1
 192 384 l 1,14,-1
 192 0 l 1,15,-1
 128 0 l 1,8,-1
EndSplineSet
EndChar

StartChar: Tcaron
Encoding: 356 356 323
Width: 384
Flags: W
LayerCount: 5
Fore
SplineSet
64 576 m 5,0,-1
 64 640 l 5,1,-1
 128 640 l 5,2,-1
 128 576 l 5,3,-1
 64 576 l 5,0,-1
192 576 m 5,4,-1
 192 640 l 5,5,-1
 256 640 l 5,6,-1
 256 576 l 5,7,-1
 192 576 l 5,4,-1
128 512 m 5,8,-1
 128 576 l 5,9,-1
 192 576 l 5,10,-1
 192 512 l 5,11,-1
 128 512 l 5,8,-1
128 0 m 1,12,-1
 128 384 l 1,13,-1
 0 384 l 1,14,-1
 0 448 l 1,15,-1
 320 448 l 1,16,-1
 320 384 l 1,17,-1
 192 384 l 1,18,-1
 192 0 l 1,19,-1
 128 0 l 1,12,-1
EndSplineSet
EndChar

StartChar: Tbar
Encoding: 358 358 324
Width: 384
Flags: W
LayerCount: 5
Fore
SplineSet
64 192 m 5,0,-1
 64 256 l 5,1,-1
 256 256 l 5,2,-1
 256 192 l 5,3,-1
 64 192 l 5,0,-1
128 0 m 1,4,-1
 128 384 l 1,5,-1
 0 384 l 1,6,-1
 0 448 l 1,7,-1
 320 448 l 1,8,-1
 320 384 l 1,9,-1
 192 384 l 1,10,-1
 192 0 l 1,11,-1
 128 0 l 1,4,-1
EndSplineSet
EndChar

StartChar: uni0163
Encoding: 355 355 325
Width: 256
Flags: W
LayerCount: 5
Fore
SplineSet
0 -128 m 5,0,-1
 0 -64 l 5,1,-1
 128 -64 l 5,2,-1
 128 -128 l 5,3,-1
 0 -128 l 5,0,-1
128 -64 m 5,4,-1
 128 0 l 5,5,-1
 192 0 l 5,6,-1
 192 -64 l 5,7,-1
 128 -64 l 5,4,-1
64 0 m 1,8,-1
 64 256 l 1,9,-1
 0 256 l 1,10,-1
 0 320 l 1,11,-1
 64 320 l 1,12,-1
 64 448 l 1,13,-1
 128 448 l 1,14,-1
 128 320 l 1,15,-1
 192 320 l 1,16,-1
 192 256 l 1,17,-1
 128 256 l 1,18,-1
 128 0 l 1,19,-1
 64 0 l 1,8,-1
EndSplineSet
EndChar

StartChar: tcaron
Encoding: 357 357 326
Width: 320
Flags: W
LayerCount: 5
Fore
SplineSet
192 384 m 1,0,-1
 192 512 l 1,1,-1
 256 512 l 1,2,-1
 256 384 l 1,3,-1
 192 384 l 1,0,-1
64 0 m 1,4,-1
 64 256 l 1,5,-1
 0 256 l 1,6,-1
 0 320 l 1,7,-1
 64 320 l 1,8,-1
 64 448 l 1,9,-1
 128 448 l 1,10,-1
 128 320 l 1,11,-1
 192 320 l 1,12,-1
 192 256 l 1,13,-1
 128 256 l 1,14,-1
 128 0 l 1,15,-1
 64 0 l 1,4,-1
EndSplineSet
EndChar

StartChar: tbar
Encoding: 359 359 327
Width: 256
Flags: W
LayerCount: 5
Fore
SplineSet
0 128 m 5,0,-1
 0 192 l 5,1,-1
 192 192 l 5,2,-1
 192 128 l 5,3,-1
 0 128 l 5,0,-1
64 0 m 1,4,-1
 64 256 l 1,5,-1
 0 256 l 1,6,-1
 0 320 l 1,7,-1
 64 320 l 1,8,-1
 64 448 l 1,9,-1
 128 448 l 1,10,-1
 128 320 l 1,11,-1
 192 320 l 1,12,-1
 192 256 l 1,13,-1
 128 256 l 1,14,-1
 128 0 l 1,15,-1
 64 0 l 1,4,-1
EndSplineSet
EndChar

StartChar: Utilde
Encoding: 360 360 328
Width: 384
Flags: W
LayerCount: 5
Fore
SplineSet
256 576 m 5,0,-1
 256 640 l 5,1,-1
 320 640 l 5,2,-1
 320 576 l 5,3,-1
 256 576 l 5,0,-1
192 512 m 5,4,-1
 192 576 l 5,5,-1
 256 576 l 5,6,-1
 256 512 l 5,7,-1
 192 512 l 5,4,-1
128 576 m 5,8,-1
 128 640 l 5,9,-1
 192 640 l 5,10,-1
 192 576 l 5,11,-1
 128 576 l 5,8,-1
64 512 m 5,12,-1
 64 576 l 5,13,-1
 128 576 l 5,14,-1
 128 512 l 5,15,-1
 64 512 l 5,12,-1
64 0 m 1,16,-1
 64 64 l 1,17,-1
 256 64 l 1,18,-1
 256 0 l 1,19,-1
 64 0 l 1,16,-1
0 64 m 1,20,-1
 0 448 l 1,21,-1
 64 448 l 1,22,-1
 64 64 l 1,23,-1
 0 64 l 1,20,-1
256 64 m 1,24,-1
 256 448 l 1,25,-1
 320 448 l 1,26,-1
 320 64 l 1,27,-1
 256 64 l 1,24,-1
EndSplineSet
EndChar

StartChar: Umacron
Encoding: 362 362 329
Width: 384
Flags: W
LayerCount: 5
Fore
SplineSet
64 512 m 5,0,-1
 64 576 l 5,1,-1
 256 576 l 5,2,-1
 256 512 l 5,3,-1
 64 512 l 5,0,-1
64 0 m 1,4,-1
 64 64 l 1,5,-1
 256 64 l 1,6,-1
 256 0 l 1,7,-1
 64 0 l 1,4,-1
0 64 m 1,8,-1
 0 448 l 1,9,-1
 64 448 l 1,10,-1
 64 64 l 1,11,-1
 0 64 l 1,8,-1
256 64 m 1,12,-1
 256 448 l 1,13,-1
 320 448 l 1,14,-1
 320 64 l 1,15,-1
 256 64 l 1,12,-1
EndSplineSet
EndChar

StartChar: Ubreve
Encoding: 364 364 330
Width: 384
Flags: W
LayerCount: 5
Fore
SplineSet
0 576 m 5,0,-1
 0 640 l 5,1,-1
 64 640 l 5,2,-1
 64 576 l 5,3,-1
 0 576 l 5,0,-1
256 576 m 5,4,-1
 256 640 l 5,5,-1
 320 640 l 5,6,-1
 320 576 l 5,7,-1
 256 576 l 5,4,-1
64 512 m 5,8,-1
 64 576 l 5,9,-1
 256 576 l 5,10,-1
 256 512 l 5,11,-1
 64 512 l 5,8,-1
64 0 m 1,12,-1
 64 64 l 1,13,-1
 256 64 l 1,14,-1
 256 0 l 1,15,-1
 64 0 l 1,12,-1
0 64 m 1,16,-1
 0 448 l 1,17,-1
 64 448 l 1,18,-1
 64 64 l 1,19,-1
 0 64 l 1,16,-1
256 64 m 1,20,-1
 256 448 l 1,21,-1
 320 448 l 1,22,-1
 320 64 l 1,23,-1
 256 64 l 1,20,-1
EndSplineSet
EndChar

StartChar: Uring
Encoding: 366 366 331
Width: 384
Flags: W
LayerCount: 5
Fore
SplineSet
128 512 m 5,0,-1
 128 576 l 5,1,-1
 192 576 l 5,2,-1
 192 512 l 5,3,-1
 128 512 l 5,0,-1
64 448 m 5,4,-1
 64 512 l 5,5,-1
 128 512 l 5,6,-1
 128 448 l 5,7,-1
 64 448 l 5,4,-1
192 448 m 5,8,-1
 192 512 l 5,9,-1
 256 512 l 5,10,-1
 256 448 l 5,11,-1
 192 448 l 5,8,-1
128 384 m 5,12,-1
 128 448 l 5,13,-1
 192 448 l 5,14,-1
 192 384 l 5,15,-1
 128 384 l 5,12,-1
64 0 m 1,16,-1
 64 64 l 1,17,-1
 256 64 l 1,18,-1
 256 0 l 1,19,-1
 64 0 l 1,16,-1
0 64 m 1,20,-1
 0 448 l 1,21,-1
 64 448 l 1,22,-1
 64 64 l 1,23,-1
 0 64 l 1,20,-1
256 64 m 1,24,-1
 256 448 l 1,25,-1
 320 448 l 1,26,-1
 320 64 l 1,27,-1
 256 64 l 1,24,-1
EndSplineSet
EndChar

StartChar: Uhungarumlaut
Encoding: 368 368 332
Width: 384
Flags: W
LayerCount: 5
Fore
SplineSet
256 576 m 5,0,-1
 256 640 l 5,1,-1
 320 640 l 5,2,-1
 320 576 l 5,3,-1
 256 576 l 5,0,-1
192 512 m 5,4,-1
 192 576 l 5,5,-1
 256 576 l 5,6,-1
 256 512 l 5,7,-1
 192 512 l 5,4,-1
64 576 m 5,8,-1
 64 640 l 5,9,-1
 128 640 l 5,10,-1
 128 576 l 5,11,-1
 64 576 l 5,8,-1
0 512 m 5,12,-1
 0 576 l 5,13,-1
 64 576 l 5,14,-1
 64 512 l 5,15,-1
 0 512 l 5,12,-1
64 0 m 1,16,-1
 64 64 l 1,17,-1
 256 64 l 1,18,-1
 256 0 l 1,19,-1
 64 0 l 1,16,-1
0 64 m 1,20,-1
 0 448 l 1,21,-1
 64 448 l 1,22,-1
 64 64 l 1,23,-1
 0 64 l 1,20,-1
256 64 m 1,24,-1
 256 448 l 1,25,-1
 320 448 l 1,26,-1
 320 64 l 1,27,-1
 256 64 l 1,24,-1
EndSplineSet
EndChar

StartChar: Uogonek
Encoding: 370 370 333
Width: 384
Flags: W
LayerCount: 5
Fore
SplineSet
192 -128 m 5,0,-1
 192 -64 l 5,1,-1
 256 -64 l 5,2,-1
 256 -128 l 5,3,-1
 192 -128 l 5,0,-1
128 -64 m 5,4,-1
 128 0 l 5,5,-1
 192 0 l 5,6,-1
 192 -64 l 5,7,-1
 128 -64 l 5,4,-1
64 0 m 1,8,-1
 64 64 l 1,9,-1
 256 64 l 1,10,-1
 256 0 l 1,11,-1
 64 0 l 1,8,-1
0 64 m 1,12,-1
 0 448 l 1,13,-1
 64 448 l 1,14,-1
 64 64 l 1,15,-1
 0 64 l 1,12,-1
256 64 m 1,16,-1
 256 448 l 1,17,-1
 320 448 l 1,18,-1
 320 64 l 1,19,-1
 256 64 l 1,16,-1
EndSplineSet
EndChar

StartChar: utilde
Encoding: 361 361 334
Width: 384
Flags: W
LayerCount: 5
Fore
SplineSet
256 448 m 5,0,-1
 256 512 l 5,1,-1
 320 512 l 5,2,-1
 320 448 l 5,3,-1
 256 448 l 5,0,-1
192 384 m 5,4,-1
 192 448 l 5,5,-1
 256 448 l 5,6,-1
 256 384 l 5,7,-1
 192 384 l 5,4,-1
128 448 m 5,8,-1
 128 512 l 5,9,-1
 192 512 l 5,10,-1
 192 448 l 5,11,-1
 128 448 l 5,8,-1
64 384 m 5,12,-1
 64 448 l 5,13,-1
 128 448 l 5,14,-1
 128 384 l 5,15,-1
 64 384 l 5,12,-1
0 64 m 1,16,-1
 0 320 l 1,17,-1
 64 320 l 1,18,-1
 64 64 l 1,19,-1
 0 64 l 1,16,-1
64 0 m 1,20,-1
 64 64 l 1,21,-1
 256 64 l 1,22,-1
 256 320 l 1,23,-1
 320 320 l 1,24,-1
 320 0 l 1,25,-1
 64 0 l 1,20,-1
EndSplineSet
EndChar

StartChar: umacron
Encoding: 363 363 335
Width: 384
Flags: W
LayerCount: 5
Fore
SplineSet
64 384 m 5,0,-1
 64 448 l 5,1,-1
 256 448 l 5,2,-1
 256 384 l 5,3,-1
 64 384 l 5,0,-1
0 64 m 1,4,-1
 0 320 l 1,5,-1
 64 320 l 1,6,-1
 64 64 l 1,7,-1
 0 64 l 1,4,-1
64 0 m 1,8,-1
 64 64 l 1,9,-1
 256 64 l 1,10,-1
 256 320 l 1,11,-1
 320 320 l 1,12,-1
 320 0 l 1,13,-1
 64 0 l 1,8,-1
EndSplineSet
EndChar

StartChar: ubreve
Encoding: 365 365 336
Width: 384
Flags: W
LayerCount: 5
Fore
SplineSet
0 448 m 5,0,-1
 0 512 l 5,1,-1
 64 512 l 5,2,-1
 64 448 l 5,3,-1
 0 448 l 5,0,-1
256 448 m 5,4,-1
 256 512 l 5,5,-1
 320 512 l 5,6,-1
 320 448 l 5,7,-1
 256 448 l 5,4,-1
64 384 m 5,8,-1
 64 448 l 5,9,-1
 256 448 l 5,10,-1
 256 384 l 5,11,-1
 64 384 l 5,8,-1
0 64 m 1,12,-1
 0 320 l 1,13,-1
 64 320 l 1,14,-1
 64 64 l 1,15,-1
 0 64 l 1,12,-1
64 0 m 1,16,-1
 64 64 l 1,17,-1
 256 64 l 1,18,-1
 256 320 l 1,19,-1
 320 320 l 1,20,-1
 320 0 l 1,21,-1
 64 0 l 1,16,-1
EndSplineSet
EndChar

StartChar: uring
Encoding: 367 367 337
Width: 384
Flags: W
LayerCount: 5
Fore
SplineSet
128 448 m 5,0,-1
 128 512 l 5,1,-1
 192 512 l 5,2,-1
 192 448 l 5,3,-1
 128 448 l 5,0,-1
64 384 m 5,4,-1
 64 448 l 5,5,-1
 128 448 l 5,6,-1
 128 384 l 5,7,-1
 64 384 l 5,4,-1
192 384 m 5,8,-1
 192 448 l 5,9,-1
 256 448 l 5,10,-1
 256 384 l 5,11,-1
 192 384 l 5,8,-1
128 320 m 5,12,-1
 128 384 l 5,13,-1
 192 384 l 5,14,-1
 192 320 l 5,15,-1
 128 320 l 5,12,-1
0 64 m 1,16,-1
 0 320 l 1,17,-1
 64 320 l 1,18,-1
 64 64 l 1,19,-1
 0 64 l 1,16,-1
64 0 m 1,20,-1
 64 64 l 1,21,-1
 256 64 l 1,22,-1
 256 320 l 1,23,-1
 320 320 l 1,24,-1
 320 0 l 1,25,-1
 64 0 l 1,20,-1
EndSplineSet
EndChar

StartChar: uhungarumlaut
Encoding: 369 369 338
Width: 384
Flags: W
LayerCount: 5
Fore
SplineSet
256 448 m 5,0,-1
 256 512 l 5,1,-1
 320 512 l 5,2,-1
 320 448 l 5,3,-1
 256 448 l 5,0,-1
192 384 m 5,4,-1
 192 448 l 5,5,-1
 256 448 l 5,6,-1
 256 384 l 5,7,-1
 192 384 l 5,4,-1
64 448 m 5,8,-1
 64 512 l 5,9,-1
 128 512 l 5,10,-1
 128 448 l 5,11,-1
 64 448 l 5,8,-1
0 384 m 5,12,-1
 0 448 l 5,13,-1
 64 448 l 5,14,-1
 64 384 l 5,15,-1
 0 384 l 5,12,-1
0 64 m 1,16,-1
 0 320 l 1,17,-1
 64 320 l 1,18,-1
 64 64 l 1,19,-1
 0 64 l 1,16,-1
64 0 m 1,20,-1
 64 64 l 1,21,-1
 256 64 l 1,22,-1
 256 320 l 1,23,-1
 320 320 l 1,24,-1
 320 0 l 1,25,-1
 64 0 l 1,20,-1
EndSplineSet
EndChar

StartChar: uogonek
Encoding: 371 371 339
Width: 384
Flags: W
LayerCount: 5
Fore
SplineSet
256 -128 m 5,0,-1
 256 -64 l 5,1,-1
 320 -64 l 5,2,-1
 320 -128 l 5,3,-1
 256 -128 l 5,0,-1
192 -64 m 5,4,-1
 192 0 l 5,5,-1
 256 0 l 5,6,-1
 256 -64 l 5,7,-1
 192 -64 l 5,4,-1
0 64 m 1,8,-1
 0 320 l 1,9,-1
 64 320 l 1,10,-1
 64 64 l 1,11,-1
 0 64 l 1,8,-1
64 0 m 1,12,-1
 64 64 l 1,13,-1
 256 64 l 1,14,-1
 256 320 l 1,15,-1
 320 320 l 1,16,-1
 320 0 l 1,17,-1
 64 0 l 1,12,-1
EndSplineSet
EndChar

StartChar: Wcircumflex
Encoding: 372 372 340
Width: 384
Flags: W
LayerCount: 5
Fore
SplineSet
192 512 m 5,0,-1
 192 576 l 5,1,-1
 256 576 l 5,2,-1
 256 512 l 5,3,-1
 192 512 l 5,0,-1
64 512 m 5,4,-1
 64 576 l 5,5,-1
 128 576 l 5,6,-1
 128 512 l 5,7,-1
 64 512 l 5,4,-1
128 576 m 5,8,-1
 128 640 l 5,9,-1
 192 640 l 5,10,-1
 192 576 l 5,11,-1
 128 576 l 5,8,-1
64 0 m 1,12,-1
 64 64 l 1,13,-1
 128 64 l 1,14,-1
 128 0 l 1,15,-1
 64 0 l 1,12,-1
192 0 m 1,16,-1
 192 64 l 1,17,-1
 256 64 l 1,18,-1
 256 0 l 1,19,-1
 192 0 l 1,16,-1
128 64 m 1,20,-1
 128 384 l 1,21,-1
 192 384 l 1,22,-1
 192 64 l 1,23,-1
 128 64 l 1,20,-1
0 64 m 1,24,-1
 0 448 l 1,25,-1
 64 448 l 1,26,-1
 64 64 l 1,27,-1
 0 64 l 1,24,-1
256 64 m 1,28,-1
 256 448 l 1,29,-1
 320 448 l 1,30,-1
 320 64 l 1,31,-1
 256 64 l 1,28,-1
EndSplineSet
EndChar

StartChar: wcircumflex
Encoding: 373 373 341
Width: 384
Flags: W
LayerCount: 5
Fore
SplineSet
192 384 m 5,0,-1
 192 448 l 5,1,-1
 256 448 l 5,2,-1
 256 384 l 5,3,-1
 192 384 l 5,0,-1
64 384 m 5,4,-1
 64 448 l 5,5,-1
 128 448 l 5,6,-1
 128 384 l 5,7,-1
 64 384 l 5,4,-1
128 448 m 5,8,-1
 128 512 l 5,9,-1
 192 512 l 5,10,-1
 192 448 l 5,11,-1
 128 448 l 5,8,-1
64 0 m 1,12,-1
 64 64 l 1,13,-1
 128 64 l 1,14,-1
 128 0 l 1,15,-1
 64 0 l 1,12,-1
192 0 m 1,16,-1
 192 64 l 1,17,-1
 256 64 l 1,18,-1
 256 0 l 1,19,-1
 192 0 l 1,16,-1
128 64 m 1,20,-1
 128 256 l 1,21,-1
 192 256 l 1,22,-1
 192 64 l 1,23,-1
 128 64 l 1,20,-1
0 64 m 1,24,-1
 0 320 l 1,25,-1
 64 320 l 1,26,-1
 64 64 l 1,27,-1
 0 64 l 1,24,-1
256 64 m 1,28,-1
 256 320 l 1,29,-1
 320 320 l 1,30,-1
 320 64 l 1,31,-1
 256 64 l 1,28,-1
EndSplineSet
EndChar

StartChar: Ycircumflex
Encoding: 374 374 342
Width: 384
Flags: W
LayerCount: 5
Fore
SplineSet
192 512 m 5,0,-1
 192 576 l 5,1,-1
 256 576 l 5,2,-1
 256 512 l 5,3,-1
 192 512 l 5,0,-1
64 512 m 5,4,-1
 64 576 l 5,5,-1
 128 576 l 5,6,-1
 128 512 l 5,7,-1
 64 512 l 5,4,-1
128 576 m 5,8,-1
 128 640 l 5,9,-1
 192 640 l 5,10,-1
 192 576 l 5,11,-1
 128 576 l 5,8,-1
128 0 m 1,12,-1
 128 256 l 1,13,-1
 192 256 l 1,14,-1
 192 0 l 1,15,-1
 128 0 l 1,12,-1
64 256 m 1,16,-1
 64 320 l 1,17,-1
 128 320 l 1,18,-1
 128 256 l 1,19,-1
 64 256 l 1,16,-1
192 256 m 1,20,-1
 192 320 l 1,21,-1
 256 320 l 1,22,-1
 256 256 l 1,23,-1
 192 256 l 1,20,-1
0 320 m 1,24,-1
 0 448 l 1,25,-1
 64 448 l 1,26,-1
 64 320 l 1,27,-1
 0 320 l 1,24,-1
256 320 m 1,28,-1
 256 448 l 1,29,-1
 320 448 l 1,30,-1
 320 320 l 1,31,-1
 256 320 l 1,28,-1
EndSplineSet
EndChar

StartChar: Ydieresis
Encoding: 376 376 343
Width: 384
Flags: W
LayerCount: 5
Fore
SplineSet
192 512 m 5,0,-1
 192 576 l 5,1,-1
 256 576 l 5,2,-1
 256 512 l 5,3,-1
 192 512 l 5,0,-1
64 512 m 5,4,-1
 64 576 l 5,5,-1
 128 576 l 5,6,-1
 128 512 l 5,7,-1
 64 512 l 5,4,-1
128 0 m 1,8,-1
 128 256 l 1,9,-1
 192 256 l 1,10,-1
 192 0 l 1,11,-1
 128 0 l 1,8,-1
64 256 m 1,12,-1
 64 320 l 1,13,-1
 128 320 l 1,14,-1
 128 256 l 1,15,-1
 64 256 l 1,12,-1
192 256 m 1,16,-1
 192 320 l 1,17,-1
 256 320 l 1,18,-1
 256 256 l 1,19,-1
 192 256 l 1,16,-1
0 320 m 1,20,-1
 0 448 l 1,21,-1
 64 448 l 1,22,-1
 64 320 l 1,23,-1
 0 320 l 1,20,-1
256 320 m 1,24,-1
 256 448 l 1,25,-1
 320 448 l 1,26,-1
 320 320 l 1,27,-1
 256 320 l 1,24,-1
EndSplineSet
EndChar

StartChar: ycircumflex
Encoding: 375 375 344
Width: 384
Flags: W
LayerCount: 5
Fore
SplineSet
192 384 m 5,0,-1
 192 448 l 5,1,-1
 256 448 l 5,2,-1
 256 384 l 5,3,-1
 192 384 l 5,0,-1
64 384 m 5,4,-1
 64 448 l 5,5,-1
 128 448 l 5,6,-1
 128 384 l 5,7,-1
 64 384 l 5,4,-1
128 448 m 5,8,-1
 128 512 l 5,9,-1
 192 512 l 5,10,-1
 192 448 l 5,11,-1
 128 448 l 5,8,-1
64 -192 m 1,12,-1
 64 -128 l 1,13,-1
 256 -128 l 1,14,-1
 256 -192 l 1,15,-1
 64 -192 l 1,12,-1
0 64 m 1,16,-1
 0 320 l 1,17,-1
 64 320 l 1,18,-1
 64 64 l 1,19,-1
 0 64 l 1,16,-1
256 -128 m 1,20,-1
 256 0 l 1,21,-1
 64 0 l 1,22,-1
 64 64 l 1,23,-1
 256 64 l 1,24,-1
 256 320 l 1,25,-1
 320 320 l 1,26,-1
 320 -128 l 1,27,-1
 256 -128 l 1,20,-1
EndSplineSet
EndChar

StartChar: Zacute
Encoding: 377 377 345
Width: 384
Flags: W
LayerCount: 5
Fore
SplineSet
192 576 m 5,0,-1
 192 640 l 5,1,-1
 256 640 l 5,2,-1
 256 576 l 5,3,-1
 192 576 l 5,0,-1
128 512 m 5,4,-1
 128 576 l 5,5,-1
 192 576 l 5,6,-1
 192 512 l 5,7,-1
 128 512 l 5,4,-1
0 0 m 1,8,-1
 0 128 l 1,9,-1
 64 128 l 1,10,-1
 64 64 l 1,11,-1
 320 64 l 1,12,-1
 320 0 l 1,13,-1
 0 0 l 1,8,-1
64 128 m 1,14,-1
 64 192 l 1,15,-1
 128 192 l 1,16,-1
 128 128 l 1,17,-1
 64 128 l 1,14,-1
128 192 m 1,18,-1
 128 256 l 1,19,-1
 192 256 l 1,20,-1
 192 192 l 1,21,-1
 128 192 l 1,18,-1
192 256 m 1,22,-1
 192 320 l 1,23,-1
 256 320 l 1,24,-1
 256 256 l 1,25,-1
 192 256 l 1,22,-1
256 320 m 1,26,-1
 256 384 l 1,27,-1
 0 384 l 1,28,-1
 0 448 l 1,29,-1
 320 448 l 1,30,-1
 320 320 l 1,31,-1
 256 320 l 1,26,-1
EndSplineSet
EndChar

